SplineFontDB: 3.0
FontName: Dhyana-Regular
FullName: Dhyana
FamilyName: Dhyana
Weight: Book
Copyright: Copyright (c) 2010-12, Vernon Adams (vern@newtypography.co.uk), with Reserved Font Names "Nobile" and "Dhyana"
Version: 1.002
ItalicAngle: 0
UnderlinePosition: -188
UnderlineWidth: 48
Ascent: 1638
Descent: 410
sfntRevision: 0x00010000
LayerCount: 2
Layer: 0 1 "Back"  1
Layer: 1 1 "Fore"  0
NeedsXUIDChange: 1
XUID: [1021 14 500265001 9986886]
FSType: 0
OS2Version: 2
OS2_WeightWidthSlopeOnly: 0
OS2_UseTypoMetrics: 1
CreationTime: 1283952577
ModificationTime: 1335946279
PfmFamily: 17
TTFWeight: 400
TTFWidth: 5
LineGap: 0
VLineGap: 0
Panose: 2 0 8 3 5 0 0 2 0 4
OS2TypoAscent: 899
OS2TypoAOffset: 1
OS2TypoDescent: -356
OS2TypoDOffset: 1
OS2TypoLinegap: 0
OS2WinAscent: 0
OS2WinAOffset: 1
OS2WinDescent: 0
OS2WinDOffset: 1
HheadAscent: 0
HheadAOffset: 1
HheadDescent: 0
HheadDOffset: 1
OS2SubXSize: 1331
OS2SubYSize: 1433
OS2SubXOff: 0
OS2SubYOff: 286
OS2SupXSize: 1331
OS2SupYSize: 1433
OS2SupXOff: 0
OS2SupYOff: 983
OS2StrikeYSize: 102
OS2StrikeYPos: 512
OS2Vendor: 'newt'
OS2CodePages: 00000001.00000000
OS2UnicodeRanges: 82000067.1000200a.00000000.00000000
Lookup: 1 0 0 "'liga' Standard Ligatures lookup 0"  {"'liga' Standard Ligatures lookup 0 subtable"  } ['liga' ('lao ' <'dflt' > 'latn' <'dflt' > ) ]
Lookup: 4 0 1 "'liga' Standard Ligatures lookup 1"  {"'liga' Standard Ligatures lookup 1 subtable"  } ['liga' ('lao ' <'dflt' > 'latn' <'dflt' > ) ]
Lookup: 2 0 0 "'ccmp' Glyph Composition/Decomposition in Lao lookup 2"  {"'ccmp' Glyph Composition/Decomposition in Lao lookup 2 subtable"  } ['ccmp' ('lao ' <'dflt' > ) ]
Lookup: 258 0 0 "'kern' Horizontal Kerning in Latin lookup 0"  {"'kern' Horizontal Kerning in Latin lookup 0 subtable"  } ['kern' ('DFLT' <'dflt' > 'latn' <'dflt' > ) ]

StartChar: exclam
Encoding: 33 33 4
Width: 448
GlyphClass: 2
Flags: HW
LayerCount: 2
Fore
SplineSet
327 186 m 1,0,-1
 327 -16 l 1,1,-1
 118 -16 l 1,2,-1
 118 186 l 1,3,-1
 327 186 l 1,0,-1
314 399 m 1,4,-1
 140 399 l 1,5,-1
 140 1579 l 1,6,-1
 314 1579 l 1,7,-1
 314 399 l 1,4,-1
EndSplineSet
EndChar

StartChar: quotedbl
Encoding: 34 34 5
Width: 796
GlyphClass: 2
Flags: HW
LayerCount: 2
Fore
SplineSet
681 1579 m 1,0,-1
 682 1531 l 2,1,2
 682 1515 682 1515 681 1508 c 2,3,-1
 621 1058 l 1,4,-1
 513 1058 l 1,5,-1
 453 1508 l 2,6,7
 452 1515 452 1515 452 1531 c 2,8,-1
 453 1579 l 1,9,-1
 681 1579 l 1,0,-1
343 1579 m 1,10,-1
 344 1531 l 2,11,12
 344 1515 344 1515 343 1508 c 2,13,-1
 283 1058 l 1,14,-1
 175 1058 l 1,15,-1
 115 1508 l 2,16,17
 114 1515 114 1515 114 1531 c 2,18,-1
 115 1579 l 1,19,-1
 343 1579 l 1,10,-1
EndSplineSet
EndChar

StartChar: numbersign
Encoding: 35 35 6
Width: 1056
GlyphClass: 2
Flags: HW
LayerCount: 2
Fore
SplineSet
599 561 m 1,0,-1
 413 561 l 1,1,-1
 380 295 l 1,2,-1
 239 295 l 1,3,-1
 272 561 l 1,4,-1
 106 561 l 1,5,-1
 106 684 l 1,6,-1
 282 684 l 1,7,-1
 309 905 l 1,8,-1
 134 905 l 1,9,-1
 134 1030 l 1,10,-1
 323 1030 l 1,11,-1
 354 1309 l 1,12,-1
 493 1309 l 1,13,-1
 462 1030 l 1,14,-1
 651 1030 l 1,15,-1
 679 1307 l 1,16,-1
 821 1307 l 1,17,-1
 790 1030 l 1,18,-1
 950 1030 l 1,19,-1
 950 905 l 1,20,-1
 778 905 l 1,21,-1
 751 684 l 1,22,-1
 927 684 l 1,23,-1
 927 561 l 1,24,-1
 739 561 l 1,25,-1
 708 295 l 1,26,-1
 567 295 l 1,27,-1
 599 561 l 1,0,-1
425 684 m 1,28,-1
 608 684 l 1,29,-1
 634 905 l 1,30,-1
 452 905 l 1,31,-1
 425 684 l 1,28,-1
EndSplineSet
EndChar

StartChar: dollar
Encoding: 36 36 7
Width: 1019
GlyphClass: 2
Flags: HW
LayerCount: 2
Fore
SplineSet
576 1236 m 1,0,1
 650 1234 650 1234 778.5 1216.5 c 128,-1,2
 907 1199 907 1199 907 1172 c 2,3,-1
 907 1171 l 1,4,-1
 855 1040 l 1,5,6
 742 1087 742 1087 576 1098 c 1,7,-1
 576 709 l 1,8,9
 801 634 801 634 881.5 550 c 128,-1,10
 962 466 962 466 962 340 c 0,11,12
 962 92 962 92 728 12 c 0,13,14
 660 -12 660 -12 576 -18 c 1,15,-1
 576 -178 l 1,16,-1
 473 -178 l 1,17,-1
 473 -20 l 1,18,19
 371 -13 371 -13 286 12 c 128,-1,20
 201 37 201 37 124 63 c 1,21,-1
 173 207 l 1,22,23
 337 145 337 145 473 129 c 1,24,-1
 473 572 l 1,25,26
 316 607 316 607 281 621.5 c 128,-1,27
 246 636 246 636 213 652.5 c 128,-1,28
 180 669 180 669 161 686.5 c 128,-1,29
 142 704 142 704 120 729 c 128,-1,30
 98 754 98 754 86 782 c 0,31,32
 60 848 60 848 60 921.5 c 128,-1,33
 60 995 60 995 85 1048 c 128,-1,34
 110 1101 110 1101 151 1135 c 128,-1,35
 192 1169 192 1169 247 1193 c 0,36,37
 345 1236 345 1236 473 1240 c 1,38,-1
 473 1390 l 1,39,-1
 576 1390 l 1,40,-1
 576 1236 l 1,0,1
473 745 m 1,41,-1
 473 1100 l 1,42,43
 290 1100 290 1100 244 1016 c 0,44,45
 224 979 224 979 223.5 930.5 c 128,-1,46
 223 882 223 882 248 848.5 c 0,47,48
 273 814 273 814 314 794 c 0,49,50
 388 756 388 756 473 745 c 1,41,-1
576 539 m 1,51,-1
 576 134 l 1,52,53
 669 136 669 136 733 188 c 128,-1,54
 797 240 797 240 797 329 c 0,55,56
 797 393 797 393 777 416.5 c 128,-1,57
 757 440 757 440 749.5 449 c 128,-1,58
 742 458 742 458 725 469 c 128,-1,59
 708 480 708 480 699 486 c 128,-1,60
 690 492 690 492 668.5 501.5 c 128,-1,61
 647 511 647 511 639 514.5 c 128,-1,62
 631 518 631 518 607 527 c 128,-1,63
 583 536 583 536 576 539 c 1,51,-1
EndSplineSet
EndChar

StartChar: percent
Encoding: 37 37 8
Width: 1671
GlyphClass: 2
Flags: HW
LayerCount: 2
Fore
SplineSet
1291 89 m 128,-1,1
 1479 89 1479 89 1479 390.5 c 128,-1,2
 1479 692 1479 692 1291 692 c 128,-1,3
 1103 692 1103 692 1103 390.5 c 128,-1,0
 1103 89 1103 89 1291 89 c 128,-1,1
985.5 530.5 m 128,-1,5
 1001 602 1001 602 1036 664 c 128,-1,6
 1071 726 1071 726 1136 761 c 128,-1,7
 1201 796 1201 796 1291 796 c 128,-1,8
 1381 796 1381 796 1446 761 c 128,-1,9
 1511 726 1511 726 1546 664 c 128,-1,10
 1581 602 1581 602 1596.5 530.5 c 128,-1,11
 1612 459 1612 459 1612 351 c 0,12,13
 1612 242 1612 242 1564 146 c 0,14,15
 1481 -22 1481 -22 1291 -21 c 0,16,17
 1128 -21 1128 -21 1046 101 c 0,18,19
 1008 157 1008 157 989 226 c 128,-1,20
 970 295 970 295 970 377 c 128,-1,4
 970 459 970 459 985.5 530.5 c 128,-1,5
380 788 m 128,-1,22
 568 788 568 788 568 1089.5 c 128,-1,23
 568 1391 568 1391 380 1391 c 128,-1,24
 192 1391 192 1391 192 1089.5 c 128,-1,21
 192 788 192 788 380 788 c 128,-1,22
74.5 1229.5 m 128,-1,26
 90 1301 90 1301 125 1363 c 128,-1,27
 160 1425 160 1425 225 1460 c 128,-1,28
 290 1495 290 1495 380 1495 c 128,-1,29
 470 1495 470 1495 535 1460 c 128,-1,30
 600 1425 600 1425 635 1363 c 128,-1,31
 670 1301 670 1301 685.5 1229.5 c 128,-1,32
 701 1158 701 1158 701 1050 c 128,-1,33
 701 942 701 942 653 846 c 0,34,35
 570 678 570 678 380 678 c 0,36,37
 216 678 216 678 134 800 c 0,38,39
 96 856 96 856 77.5 925 c 128,-1,40
 59 994 59 994 59 1076 c 128,-1,25
 59 1158 59 1158 74.5 1229.5 c 128,-1,26
425 37 m 1,41,-1
 1107 1497 l 1,42,-1
 1236 1430 l 1,43,-1
 555 -22 l 1,44,-1
 425 37 l 1,41,-1
EndSplineSet
EndChar

StartChar: ampersand
Encoding: 38 38 9
Width: 1536
GlyphClass: 2
Flags: HW
LayerCount: 2
Fore
SplineSet
778 -29 m 128,-1,1
 701 -39 701 -39 622.5 -39 c 128,-1,2
 544 -39 544 -39 465 -25 c 128,-1,3
 386 -11 386 -11 311.5 22 c 128,-1,4
 237 55 237 55 183 104 c 0,5,6
 64 212 64 212 64 396 c 0,7,8
 64 727 64 727 398 822 c 1,9,10
 321 870 321 870 258.5 952.5 c 128,-1,11
 196 1035 196 1035 196 1116 c 128,-1,12
 196 1197 196 1197 228.5 1262 c 0,13,14
 262 1326 262 1326 318 1366 c 0,15,16
 430 1444 430 1444 595 1445 c 0,17,18
 759 1445 759 1445 873 1367 c 0,19,20
 996 1283 996 1283 996 1115 c 0,21,22
 996 985 996 985 909 910 c 0,23,24
 839 850 839 850 713 806 c 0,25,26
 684 796 684 796 637 781 c 1,27,-1
 1132 391 l 1,28,29
 1146 601 1146 601 1146 796 c 1,30,-1
 1310 796 l 1,31,32
 1310 518 1310 518 1263 277 c 1,33,-1
 1489 95 l 1,34,-1
 1403 -7 l 1,35,-1
 1192 170 l 1,36,37
 1161 112 1161 112 1092.5 68.5 c 128,-1,38
 1024 25 1024 25 939.5 3 c 128,-1,0
 855 -19 855 -19 778 -29 c 128,-1,1
246 418 m 0,39,40
 246 232 246 232 352 162 c 0,41,42
 448 100 448 100 631 100 c 0,43,44
 981 100 981 100 1080 256 c 1,45,-1
 492 726 l 1,46,47
 246 674 246 674 246 418 c 0,39,40
836 1119 m 0,48,49
 836 1216 836 1216 767 1263 c 128,-1,50
 698 1310 698 1310 595 1310 c 0,51,52
 362 1310 362 1310 362 1121 c 0,53,54
 362 1055 362 1055 420.5 987 c 128,-1,55
 479 919 479 919 547 883 c 1,56,57
 555 885 555 885 586.5 894.5 c 128,-1,58
 618 904 618 904 628.5 907 c 128,-1,59
 639 910 639 910 667 919.5 c 128,-1,60
 695 929 695 929 706.5 935 c 128,-1,61
 718 941 718 941 740.5 953 c 128,-1,62
 763 965 763 965 773 975.5 c 128,-1,63
 783 986 783 986 798 1002 c 0,64,65
 814 1018 814 1018 820 1034 c 0,66,67
 836 1076 836 1076 836 1119 c 0,48,49
EndSplineSet
EndChar

StartChar: quotesingle
Encoding: 39 39 10
Width: 353
GlyphClass: 2
Flags: HW
LayerCount: 2
Fore
SplineSet
289 1579 m 1,0,-1
 290 1531 l 2,1,2
 290 1515 290 1515 289 1508 c 2,3,-1
 229 1058 l 1,4,-1
 121 1058 l 1,5,-1
 61 1508 l 2,6,7
 60 1515 60 1515 60 1531 c 2,8,-1
 61 1579 l 1,9,-1
 289 1579 l 1,0,-1
EndSplineSet
EndChar

StartChar: parenleft
Encoding: 40 40 11
Width: 467
GlyphClass: 2
Flags: HW
LayerCount: 2
Fore
SplineSet
491 1493 m 1,0,1
 390 1404 390 1404 320 1264 c 0,2,3
 189 1001 189 1001 189 694 c 0,4,5
 190 490 190 490 254 268 c 0,6,7
 286 156 286 156 343.5 58 c 128,-1,8
 401 -40 401 -40 475 -97 c 1,9,-1
 392 -205 l 1,10,11
 293 -142 293 -142 216 -34.5 c 128,-1,12
 139 73 139 73 94 198.5 c 128,-1,13
 49 324 49 324 26 450.5 c 128,-1,14
 3 577 3 577 3 696 c 128,-1,15
 3 815 3 815 25.5 940.5 c 128,-1,16
 48 1066 48 1066 92 1188.5 c 128,-1,17
 136 1311 136 1311 210.5 1419 c 128,-1,18
 285 1527 285 1527 380 1595 c 1,19,-1
 491 1493 l 1,0,1
EndSplineSet
EndChar

StartChar: parenright
Encoding: 41 41 12
Width: 469
GlyphClass: 2
Flags: HW
LayerCount: 2
Fore
SplineSet
281 694 m 0,0,1
 281 1002 281 1002 160 1264 c 0,2,3
 93 1410 93 1410 -4 1491 c 1,4,-1
 79 1599 l 1,5,6
 177 1532 177 1532 253.5 1426.5 c 0,7,8
 330 1320 330 1320 376 1200 c 0,9,10
 468 955 468 955 468 710 c 0,11,12
 468 448 468 448 380 206 c 0,13,14
 283 -64 283 -64 79 -205 c 1,15,-1
 -21 -99 l 1,16,17
 126 28 126 28 203.5 252 c 128,-1,18
 281 476 281 476 281 694 c 0,0,1
EndSplineSet
EndChar

StartChar: asterisk
Encoding: 42 42 13
Width: 1017
GlyphClass: 2
Flags: HW
LayerCount: 2
Fore
SplineSet
508 1292 m 1,0,-1
 647 1567 l 1,1,-1
 750 1509 l 1,2,-1
 592 1237 l 1,3,-1
 903 1237 l 1,4,-1
 903 1145 l 1,5,-1
 594 1145 l 1,6,-1
 764 872 l 1,7,-1
 662 815 l 1,8,-1
 508 1090 l 1,9,-1
 354 815 l 1,10,-1
 252 872 l 1,11,-1
 422 1145 l 1,12,-1
 113 1145 l 1,13,-1
 113 1237 l 1,14,-1
 424 1237 l 1,15,-1
 266 1509 l 1,16,-1
 369 1567 l 1,17,-1
 508 1292 l 1,0,-1
EndSplineSet
EndChar

StartChar: plus
Encoding: 43 43 14
Width: 1005
GlyphClass: 2
Flags: HW
LayerCount: 2
Fore
SplineSet
886 518 m 1,0,-1
 572 518 l 1,1,-1
 572 174 l 1,2,-1
 431 174 l 1,3,-1
 431 518 l 1,4,-1
 118 518 l 1,5,-1
 118 651 l 1,6,-1
 431 651 l 1,7,-1
 431 995 l 1,8,-1
 572 995 l 1,9,-1
 572 651 l 1,10,-1
 886 651 l 1,11,-1
 886 518 l 1,0,-1
EndSplineSet
EndChar

StartChar: comma
Encoding: 44 44 15
Width: 522
GlyphClass: 2
Flags: HW
LayerCount: 2
Fore
SplineSet
121 0 m 1,0,-1
 121 293 l 1,1,-1
 402 293 l 1,2,-1
 402 44 l 2,3,4
 402 -70 402 -70 343 -145.5 c 128,-1,5
 284 -221 284 -221 173 -253 c 1,6,-1
 122 -159 l 1,7,8
 191 -135 191 -135 222 -101 c 128,-1,9
 253 -67 253 -67 252 0 c 1,10,-1
 121 0 l 1,0,-1
EndSplineSet
EndChar

StartChar: hyphen
Encoding: 45 45 16
Width: 923
GlyphClass: 2
Flags: HW
LayerCount: 2
Fore
SplineSet
799 508 m 1,0,-1
 123 508 l 1,1,-1
 123 665 l 1,2,-1
 799 665 l 1,3,-1
 799 508 l 1,0,-1
EndSplineSet
EndChar

StartChar: period
Encoding: 46 46 17
Width: 456
GlyphClass: 2
Flags: HW
LayerCount: 2
Fore
SplineSet
150.5 179 m 128,-1,1
 183 213 183 213 230.5 213 c 128,-1,2
 278 213 278 213 308 179.5 c 128,-1,3
 338 146 338 146 338 98 c 128,-1,4
 338 50 338 50 308 16.5 c 128,-1,5
 278 -17 278 -17 230 -17 c 128,-1,6
 182 -17 182 -17 150 16.5 c 128,-1,7
 118 50 118 50 118 97.5 c 128,-1,0
 118 145 118 145 150.5 179 c 128,-1,1
EndSplineSet
EndChar

StartChar: slash
Encoding: 47 47 18
Width: 727
GlyphClass: 2
Flags: HW
LayerCount: 2
Fore
SplineSet
-33 -117 m 1,0,-1
 592 1731 l 1,1,-1
 761 1669 l 1,2,-1
 137 -179 l 1,3,-1
 -33 -117 l 1,0,-1
EndSplineSet
EndChar

StartChar: zero
Encoding: 48 48 19
Width: 1374
GlyphClass: 2
Flags: HW
LayerCount: 2
Fore
SplineSet
863 1032.5 m 128,-1,1
 787 1069 787 1069 693.5 1069 c 128,-1,2
 600 1069 600 1069 534 1043.5 c 128,-1,3
 468 1018 468 1018 425.5 974.5 c 128,-1,4
 383 931 383 931 355 869 c 0,5,6
 304 756 304 756 304 592 c 0,7,8
 304 226 304 226 536 136 c 0,9,10
 602 110 602 110 687 110.5 c 128,-1,11
 772 111 772 111 840 138 c 128,-1,12
 908 165 908 165 950.5 210.5 c 0,13,14
 992 256 992 256 1020 321 c 0,15,16
 1070 438 1070 438 1070 571 c 128,-1,17
 1070 704 1070 704 1049 785 c 128,-1,18
 1028 866 1028 866 983.5 931 c 128,-1,0
 939 996 939 996 863 1032.5 c 128,-1,1
1256 590 m 128,-1,20
 1256 412 1256 412 1191.5 273 c 128,-1,21
 1127 134 1127 134 996 51.5 c 128,-1,22
 865 -31 865 -31 708 -31 c 128,-1,23
 551 -31 551 -31 442.5 17 c 0,24,25
 334 66 334 66 264 150 c 0,26,27
 118 324 118 324 118 590 c 0,28,29
 118 860 118 860 260 1032 c 0,30,31
 330 1116 330 1116 439 1163 c 128,-1,32
 548 1210 548 1210 707 1210 c 128,-1,33
 866 1210 866 1210 997 1127.5 c 128,-1,34
 1128 1045 1128 1045 1192 906.5 c 128,-1,19
 1256 768 1256 768 1256 590 c 128,-1,20
EndSplineSet
EndChar

StartChar: one
Encoding: 49 49 20
Width: 650
GlyphClass: 2
Flags: HW
LayerCount: 2
Fore
SplineSet
348 0 m 1,0,-1
 348 1057 l 1,1,-1
 141 957 l 1,2,-1
 88 1083 l 1,3,-1
 345 1202 l 1,4,-1
 535 1202 l 1,5,-1
 535 0 l 1,6,-1
 348 0 l 1,0,-1
EndSplineSet
EndChar

StartChar: two
Encoding: 50 50 21
Width: 1054
GlyphClass: 2
Flags: HW
LayerCount: 2
Fore
SplineSet
337 152 m 1,0,-1
 933 152 l 1,1,-1
 933 0 l 1,2,-1
 118 0 l 1,3,-1
 118 146 l 1,4,-1
 526 480 l 1,5,6
 677 606 677 606 720 676 c 0,7,8
 771 759 771 759 771 831.5 c 128,-1,9
 771 904 771 904 748 947 c 128,-1,10
 725 990 725 990 685 1014 c 0,11,12
 608 1060 608 1060 488 1059.5 c 128,-1,13
 368 1059 368 1059 230 992 c 1,14,-1
 177 1108 l 1,15,16
 306 1198 306 1198 517 1198 c 0,17,18
 698 1198 698 1198 812 1117 c 0,19,20
 932 1031 932 1031 933 845 c 0,21,22
 933 654 933 654 707 446 c 0,23,24
 635 380 635 380 580 337.5 c 128,-1,25
 525 295 525 295 447.5 236.5 c 128,-1,26
 370 178 370 178 337 152 c 1,0,-1
EndSplineSet
EndChar

StartChar: three
Encoding: 51 51 22
Width: 988
GlyphClass: 2
Flags: HW
LayerCount: 2
Fore
SplineSet
724 844 m 0,0,1
 724 908 724 908 701.5 952.5 c 0,2,3
 679 996 679 996 637 1020 c 0,4,5
 561 1062 561 1062 423 1062.5 c 128,-1,6
 285 1063 285 1063 138 992 c 1,7,-1
 88 1125 l 1,8,9
 269 1206 269 1206 441 1206 c 0,10,11
 617 1206 617 1206 746 1132 c 0,12,13
 812 1094 812 1094 850.5 1026 c 128,-1,14
 889 958 889 958 889 849 c 128,-1,15
 889 740 889 740 807 643 c 128,-1,16
 725 546 725 546 600 545 c 1,17,18
 753 513 753 513 840.5 416.5 c 128,-1,19
 928 320 928 320 928 166 c 0,20,21
 928 75 928 75 886.5 3 c 0,22,23
 844 -70 844 -70 776 -112 c 0,24,25
 637 -198 637 -198 444.5 -198 c 128,-1,26
 252 -198 252 -198 55 -102 c 1,27,-1
 109 31 l 1,28,29
 185 -10 185 -10 282 -34.5 c 128,-1,30
 379 -59 379 -59 487 -59 c 128,-1,31
 595 -59 595 -59 671.5 0 c 128,-1,32
 748 59 748 59 748 186 c 0,33,34
 748 434 748 434 412 471 c 1,35,-1
 412 614 l 1,36,37
 536 614 536 614 624 661 c 0,38,39
 724 716 724 716 724 844 c 0,0,1
EndSplineSet
EndChar

StartChar: four
Encoding: 52 52 23
Width: 1253
GlyphClass: 2
Flags: HW
LayerCount: 2
Fore
SplineSet
794 1208 m 1,0,-1
 956 1169 l 1,1,-1
 956 207 l 1,2,-1
 1142 207 l 1,3,-1
 1142 68 l 1,4,-1
 956 68 l 1,5,-1
 956 -260 l 1,6,-1
 785 -260 l 1,7,-1
 785 68 l 1,8,-1
 138 68 l 1,9,-1
 110 205 l 1,10,-1
 794 1208 l 1,0,-1
785 930 m 1,11,-1
 295 205 l 1,12,-1
 785 205 l 1,13,-1
 785 930 l 1,11,-1
EndSplineSet
EndChar

StartChar: five
Encoding: 53 53 24
Width: 990
GlyphClass: 2
Flags: HW
LayerCount: 2
Fore
SplineSet
441 -56 m 0,0,1
 758 -56 758 -56 758 244 c 0,2,3
 758 391 758 391 682.5 476.5 c 128,-1,4
 607 562 607 562 461 562 c 0,5,6
 354 562 354 562 162 468 c 1,7,-1
 94 537 l 1,8,-1
 94 1169 l 1,9,-1
 842 1169 l 1,10,-1
 842 1018 l 1,11,-1
 239 1018 l 1,12,-1
 239 622 l 1,13,14
 274 661 274 661 344.5 679.5 c 128,-1,15
 415 698 415 698 479 698 c 0,16,17
 681 698 681 698 805.5 574 c 128,-1,18
 930 450 930 450 930 240 c 0,19,20
 930 30 930 30 794.5 -88.5 c 128,-1,21
 659 -207 659 -207 439 -207 c 0,22,23
 343 -207 343 -207 260 -184.5 c 128,-1,24
 177 -162 177 -162 58 -114 c 1,25,-1
 109 31 l 1,26,27
 280 -56 280 -56 441 -56 c 0,0,1
EndSplineSet
EndChar

StartChar: six
Encoding: 54 54 25
Width: 1235
GlyphClass: 2
Flags: HW
LayerCount: 2
Fore
SplineSet
869 567 m 128,-1,1
 793 657 793 657 655 657 c 0,2,3
 574 657 574 657 461.5 617.5 c 128,-1,4
 349 578 349 578 300 523 c 1,5,6
 294 483 294 483 294 372.5 c 128,-1,7
 294 262 294 262 338 162 c 0,8,9
 414 -14 414 -14 621 -14 c 0,10,11
 772 -14 772 -14 858.5 84 c 128,-1,12
 945 182 945 182 945 329.5 c 128,-1,0
 945 477 945 477 869 567 c 128,-1,1
116 425 m 0,13,14
 116 763 116 763 308.5 1002 c 128,-1,15
 501 1241 501 1241 831 1319 c 1,16,-1
 874 1174 l 1,17,18
 662 1129 662 1129 507 991 c 128,-1,19
 352 853 352 853 314 649 c 1,20,21
 434 793 434 793 648 793 c 128,-1,22
 862 793 862 793 991.5 667.5 c 128,-1,23
 1121 542 1121 542 1121 328 c 128,-1,24
 1121 114 1121 114 982.5 -21 c 128,-1,25
 844 -156 844 -156 621 -156 c 0,26,27
 362 -156 362 -156 236 12 c 0,28,29
 116 172 116 172 116 425 c 0,13,14
EndSplineSet
EndChar

StartChar: seven
Encoding: 55 55 26
Width: 1114
GlyphClass: 2
Flags: HW
LayerCount: 2
Fore
SplineSet
952 1229 m 1,0,-1
 1009 1107 l 1,1,-1
 437 -176 l 1,2,-1
 269 -100 l 1,3,-1
 794 1074 l 1,4,-1
 116 1074 l 1,5,-1
 116 1229 l 1,6,-1
 952 1229 l 1,0,-1
EndSplineSet
EndChar

StartChar: eight
Encoding: 56 56 27
Width: 1186
GlyphClass: 2
Flags: HW
LayerCount: 2
Fore
SplineSet
590 1334 m 1,0,1
 746 1334 746 1334 862 1280 c 0,2,3
 1066 1184 1066 1184 1066 966 c 0,4,5
 1066 843 1066 843 996 759.5 c 128,-1,6
 926 676 926 676 804 634 c 1,7,8
 937 592 937 592 1001.5 485 c 128,-1,9
 1066 378 1066 378 1066 231 c 0,10,11
 1066 34 1066 34 922 -61 c 0,12,13
 856 -105 856 -105 774.5 -126.5 c 128,-1,14
 693 -148 693 -148 599 -148 c 128,-1,15
 505 -148 505 -148 422 -126.5 c 128,-1,16
 339 -105 339 -105 270 -61 c 128,-1,17
 201 -17 201 -17 160.5 58.5 c 128,-1,18
 120 134 120 134 120 257 c 128,-1,19
 120 380 120 380 184.5 487 c 128,-1,20
 249 594 249 594 382 636 c 1,21,22
 261 676 261 676 190.5 760.5 c 128,-1,23
 120 845 120 845 120 953.5 c 128,-1,24
 120 1062 120 1062 162.5 1135 c 128,-1,25
 205 1208 205 1208 275.5 1250 c 128,-1,26
 346 1292 346 1292 428 1313 c 128,-1,27
 510 1334 510 1334 590 1334 c 1,0,1
599 -9 m 128,-1,29
 749 -9 749 -9 818.5 49.5 c 128,-1,30
 888 108 888 108 888 246.5 c 128,-1,31
 888 385 888 385 808.5 480 c 128,-1,32
 729 575 729 575 597.5 575 c 128,-1,33
 466 575 466 575 382 482 c 128,-1,34
 298 389 298 389 298 250 c 128,-1,35
 298 111 298 111 373.5 51 c 128,-1,28
 449 -9 449 -9 599 -9 c 128,-1,29
802 769.5 m 128,-1,37
 888 848 888 848 888 969.5 c 0,38,39
 888 1092 888 1092 802 1148 c 0,40,41
 762 1174 762 1174 711 1186.5 c 128,-1,42
 660 1199 660 1199 599 1199 c 0,43,44
 538 1200 538 1200 486 1188 c 0,45,46
 298 1146 298 1146 298 966 c 0,47,48
 298 849 298 849 389 770 c 128,-1,49
 480 691 480 691 598 691 c 128,-1,36
 716 691 716 691 802 769.5 c 128,-1,37
EndSplineSet
EndChar

StartChar: nine
Encoding: 57 57 28
Width: 1235
GlyphClass: 2
Flags: HW
LayerCount: 2
Fore
SplineSet
367 591 m 128,-1,1
 443 501 443 501 581 501 c 0,2,3
 663 501 663 501 776 540.5 c 128,-1,4
 889 580 889 580 936 635 c 1,5,6
 942 675 942 675 942 785.5 c 128,-1,7
 942 896 942 896 898 996 c 0,8,9
 822 1172 822 1172 615 1172 c 0,10,11
 464 1172 464 1172 377.5 1074 c 128,-1,12
 291 976 291 976 291 828.5 c 128,-1,0
 291 681 291 681 367 591 c 128,-1,1
1120 733 m 0,13,14
 1120 395 1120 395 927.5 155.5 c 128,-1,15
 735 -84 735 -84 405 -161 c 1,16,-1
 362 -16 l 1,17,18
 573 27 573 27 728.5 166.5 c 128,-1,19
 884 306 884 306 922 509 c 1,20,21
 802 365 802 365 587.5 365 c 128,-1,22
 373 365 373 365 244 490 c 128,-1,23
 115 615 115 615 115 829.5 c 128,-1,24
 115 1044 115 1044 253.5 1179 c 128,-1,25
 392 1314 392 1314 615 1314 c 0,26,27
 874 1314 874 1314 1000 1146 c 0,28,29
 1120 986 1120 986 1120 733 c 0,13,14
EndSplineSet
EndChar

StartChar: colon
Encoding: 58 58 29
Width: 528
GlyphClass: 2
Flags: HW
LayerCount: 2
Fore
SplineSet
129 281 m 1,0,-1
 399 281 l 1,1,-1
 399 0 l 1,2,-1
 129 0 l 1,3,-1
 129 281 l 1,0,-1
129 864 m 1,4,-1
 399 864 l 1,5,-1
 399 583 l 1,6,-1
 129 583 l 1,7,-1
 129 864 l 1,4,-1
EndSplineSet
EndChar

StartChar: semicolon
Encoding: 59 59 30
Width: 535
GlyphClass: 2
Flags: HW
LayerCount: 2
Fore
SplineSet
128 864 m 1,0,-1
 408 864 l 1,1,-1
 408 583 l 1,2,-1
 128 583 l 1,3,-1
 128 864 l 1,0,-1
127 0 m 1,4,-1
 127 293 l 1,5,-1
 408 293 l 1,6,-1
 408 44 l 2,7,8
 408 -70 408 -70 349 -145.5 c 128,-1,9
 290 -221 290 -221 179 -253 c 1,10,-1
 128 -159 l 1,11,12
 197 -135 197 -135 228 -101 c 128,-1,13
 259 -67 259 -67 258 0 c 1,14,-1
 127 0 l 1,4,-1
EndSplineSet
EndChar

StartChar: less
Encoding: 60 60 31
Width: 868
GlyphClass: 2
Flags: HW
LayerCount: 2
Fore
SplineSet
52 663 m 1,0,-1
 707 1266 l 1,1,-1
 809 1156 l 1,2,-1
 258 663 l 1,3,-1
 809 170 l 1,4,-1
 707 60 l 1,5,-1
 52 663 l 1,0,-1
EndSplineSet
EndChar

StartChar: equal
Encoding: 61 61 32
Width: 835
GlyphClass: 2
Flags: HW
LayerCount: 2
Fore
SplineSet
711 508 m 1,0,-1
 123 508 l 1,1,-1
 123 639 l 1,2,-1
 711 639 l 1,3,-1
 711 508 l 1,0,-1
711 280 m 1,4,-1
 123 280 l 1,5,-1
 123 411 l 1,6,-1
 711 411 l 1,7,-1
 711 280 l 1,4,-1
EndSplineSet
EndChar

StartChar: greater
Encoding: 62 62 33
Width: 694
GlyphClass: 2
Flags: HW
LayerCount: 2
Fore
SplineSet
730 663 m 1,0,-1
 75 60 l 1,1,-1
 -27 170 l 1,2,-1
 524 663 l 1,3,-1
 -27 1156 l 1,4,-1
 75 1266 l 1,5,-1
 730 663 l 1,0,-1
EndSplineSet
EndChar

StartChar: question
Encoding: 63 63 34
Width: 971
GlyphClass: 2
Flags: HW
LayerCount: 2
Fore
SplineSet
386 675 m 1,0,-1
 386 292 l 1,1,-1
 206 292 l 1,2,-1
 206 777 l 1,3,4
 404 844 404 844 495 892 c 1,5,6
 728 1018 728 1018 729 1197 c 0,7,8
 729 1354 729 1354 597 1396 c 0,9,10
 529 1418 529 1418 433 1418 c 0,11,12
 228 1418 228 1418 90 1332 c 1,13,-1
 31 1475 l 1,14,15
 114 1523 114 1523 226.5 1551 c 128,-1,16
 339 1579 339 1579 426 1579 c 128,-1,17
 513 1579 513 1579 580 1568.5 c 128,-1,18
 647 1558 647 1558 711 1532 c 128,-1,19
 775 1506 775 1506 820 1466 c 0,20,21
 920 1377 920 1377 920 1216 c 0,22,23
 920 887 920 887 498 717 c 0,24,25
 448 697 448 697 386 675 c 1,0,-1
361 -9.5 m 128,-1,27
 330 -40 330 -40 286.5 -40 c 128,-1,28
 243 -40 243 -40 213 -7 c 128,-1,29
 183 26 183 26 183 69 c 128,-1,30
 183 112 183 112 216 140.5 c 128,-1,31
 249 169 249 169 290.5 169 c 128,-1,32
 332 169 332 169 362 137 c 128,-1,33
 392 105 392 105 392 63 c 128,-1,26
 392 21 392 21 361 -9.5 c 128,-1,27
EndSplineSet
EndChar

StartChar: at
Encoding: 64 64 35
Width: 1873
GlyphClass: 2
Flags: HW
LayerCount: 2
Fore
SplineSet
1207 987 m 1,0,1
 1107 1008 1107 1008 1031 1008 c 0,2,3
 850 1008 850 1008 726.5 881.5 c 128,-1,4
 603 755 603 755 603 573 c 0,5,6
 603 330 603 330 828 330 c 0,7,8
 1202 330 1202 330 1207 987 c 1,0,1
1440 134 m 1,9,-1
 1531 42 l 1,10,11
 1466 -30 1466 -30 1360 -76 c 0,12,13
 1178 -155 1178 -155 943 -155 c 0,14,15
 653 -154 653 -154 447 -40 c 0,16,17
 230 81 230 81 150 310 c 0,18,19
 108 431 108 431 108 596 c 128,-1,20
 108 761 108 761 171.5 923 c 128,-1,21
 235 1085 235 1085 346 1202.5 c 128,-1,22
 457 1320 457 1320 616.5 1388 c 128,-1,23
 776 1456 776 1456 951.5 1456 c 128,-1,24
 1127 1456 1127 1456 1271 1412.5 c 128,-1,25
 1415 1369 1415 1369 1527.5 1284.5 c 128,-1,26
 1640 1200 1640 1200 1704.5 1064 c 128,-1,27
 1769 928 1769 928 1769 756 c 0,28,29
 1769 484 1769 484 1614 318 c 0,30,31
 1502 198 1502 198 1328 199 c 1,32,33
 1220 199 1220 199 1220 383 c 0,34,35
 1220 417 1220 417 1224 474 c 128,-1,36
 1228 531 1228 531 1228 548 c 1,37,38
 1196 392 1196 392 1083 295.5 c 128,-1,39
 970 199 970 199 804 199 c 128,-1,40
 638 199 638 199 543 306 c 128,-1,41
 448 413 448 413 448 573.5 c 128,-1,42
 448 734 448 734 529.5 859 c 128,-1,43
 611 984 611 984 742 1056 c 128,-1,44
 873 1128 873 1128 1015 1128 c 0,45,46
 1104 1128 1104 1128 1300 1096 c 1,47,-1
 1355 987 l 1,48,-1
 1355 317 l 1,49,-1
 1358 317 l 2,50,51
 1609 317 1609 317 1609 758 c 0,52,53
 1609 1176 1609 1176 1221 1285 c 0,54,55
 1107 1317 1107 1317 955.5 1317 c 128,-1,56
 804 1317 804 1317 672 1261.5 c 128,-1,57
 540 1206 540 1206 452 1108 c 0,58,59
 268 903 268 903 267 578 c 0,60,61
 266 222 266 222 544 72 c 0,62,63
 709 -16 709 -16 953 -16 c 0,64,65
 1100 -16 1100 -16 1218 18 c 128,-1,66
 1336 52 1336 52 1440 134 c 1,9,-1
EndSplineSet
EndChar

StartChar: A
Encoding: 65 65 36
Width: 1501
GlyphClass: 2
Flags: HW
LayerCount: 2
Fore
SplineSet
1067 485 m 1,0,-1
 750 1460 l 1,1,-1
 433 485 l 1,2,-1
 1067 485 l 1,0,-1
1100 383 m 1,3,-1
 400 383 l 1,4,-1
 277 0 l 1,5,-1
 84 0 l 1,6,-1
 600 1579 l 1,7,-1
 900 1579 l 1,8,-1
 1416 0 l 1,9,-1
 1223 0 l 1,10,-1
 1100 383 l 1,3,-1
EndSplineSet
EndChar

StartChar: B
Encoding: 66 66 37
Width: 1350
GlyphClass: 2
Flags: HW
LayerCount: 2
Fore
SplineSet
996 1186 m 0,0,1
 996 1237 996 1237 980.5 1276 c 128,-1,2
 965 1315 965 1315 941 1341 c 128,-1,3
 917 1367 917 1367 878 1385 c 128,-1,4
 839 1403 839 1403 803.5 1413 c 0,5,6
 768 1422 768 1422 718 1428 c 0,7,8
 649 1436 649 1436 546 1436 c 2,9,-1
 317 1436 l 1,10,-1
 317 915 l 1,11,-1
 576 915 l 2,12,13
 750 914 750 914 829 942 c 0,14,15
 912 971 912 971 950 1023 c 0,16,17
 996 1087 996 1087 996 1186 c 0,0,1
543 143 m 2,18,19
 713 143 713 143 767 153 c 128,-1,20
 821 163 821 163 861 174.5 c 128,-1,21
 901 186 901 186 927.5 202 c 128,-1,22
 954 218 954 218 981.5 242.5 c 0,23,24
 1009 266 1009 266 1025 298 c 0,25,26
 1061 369 1061 369 1061 448 c 128,-1,27
 1061 527 1061 527 1046.5 576 c 128,-1,28
 1032 625 1032 625 1008 658 c 128,-1,29
 984 691 984 691 946 715 c 128,-1,30
 908 739 908 739 869.5 752.5 c 0,31,32
 830 766 830 766 778 774 c 0,33,34
 699 786 699 786 580 786 c 2,35,-1
 317 786 l 1,36,-1
 317 143 l 1,37,-1
 543 143 l 2,18,19
836 862 m 1,38,39
 1033 840 1033 840 1138 734 c 128,-1,40
 1243 628 1243 628 1243 434 c 0,41,42
 1244 206 1244 206 1062 100 c 0,43,44
 890 0 890 0 543 0 c 2,45,-1
 123 0 l 1,46,-1
 123 1579 l 1,47,-1
 484 1579 l 2,48,49
 701 1579 701 1579 768 1567 c 128,-1,50
 835 1555 835 1555 888.5 1541.5 c 128,-1,51
 942 1528 942 1528 978 1508.5 c 128,-1,52
 1014 1489 1014 1489 1051.5 1459 c 0,53,54
 1089 1430 1089 1430 1111 1392 c 0,55,56
 1161 1307 1161 1307 1161 1171.5 c 128,-1,57
 1161 1036 1161 1036 1079 961 c 128,-1,58
 997 886 997 886 836 862 c 1,38,39
EndSplineSet
EndChar

StartChar: C
Encoding: 67 67 38
Width: 1328
GlyphClass: 2
Flags: HW
LayerCount: 2
Fore
SplineSet
1151 1385 m 1,0,1
 956 1458 956 1458 816.5 1458 c 128,-1,2
 677 1458 677 1458 589.5 1419 c 128,-1,3
 502 1380 502 1380 450.5 1318 c 128,-1,4
 399 1256 399 1256 367.5 1164.5 c 128,-1,5
 336 1073 336 1073 325.5 983.5 c 128,-1,6
 315 894 315 894 315 784 c 128,-1,7
 315 674 315 674 326 583.5 c 128,-1,8
 337 493 337 493 369 402 c 128,-1,9
 401 311 401 311 452.5 249.5 c 128,-1,10
 504 188 504 188 591 149.5 c 128,-1,11
 678 111 678 111 794 111 c 0,12,13
 906 110 906 110 1100 190 c 0,14,15
 1158 214 1158 214 1168 218 c 1,16,-1
 1224 79 l 1,17,18
 1047 7 1047 7 960 -17 c 128,-1,19
 873 -41 873 -41 750 -41 c 128,-1,20
 627 -41 627 -41 512 3.5 c 128,-1,21
 397 48 397 48 323.5 123.5 c 0,22,23
 250 198 250 198 202 306 c 0,24,25
 114 503 114 503 114 788 c 0,26,27
 114 1420 114 1420 530 1568 c 0,28,29
 646 1610 646 1610 794 1610 c 0,30,31
 906 1610 906 1610 973 1593 c 128,-1,32
 1040 1576 1040 1576 1059.5 1570.5 c 128,-1,33
 1079 1565 1079 1565 1127 1550.5 c 128,-1,34
 1175 1536 1175 1536 1196 1530 c 1,35,-1
 1151 1385 l 1,0,1
EndSplineSet
EndChar

StartChar: D
Encoding: 68 68 39
Width: 1469
GlyphClass: 2
Flags: HW
LayerCount: 2
Fore
SplineSet
698 1436 m 2,0,-1
 317 1436 l 1,1,-1
 317 143 l 1,2,-1
 698 143 l 2,3,4
 812 143 812 143 896 180 c 128,-1,5
 980 217 980 217 1029 276 c 128,-1,6
 1078 335 1078 335 1108 423 c 0,7,8
 1156 568 1156 568 1156 789 c 0,9,10
 1156 1228 1156 1228 959 1364 c 0,11,12
 856 1436 856 1436 698 1436 c 2,0,-1
698 1579 m 2,13,14
 1357 1579 1357 1579 1357 789.5 c 128,-1,15
 1357 0 1357 0 698 0 c 2,16,-1
 123 0 l 1,17,-1
 123 1579 l 1,18,-1
 698 1579 l 2,13,14
EndSplineSet
PairPos2: "'kern' Horizontal Kerning lookup 1 per glyph data 0" Y dx=0 dy=0 dh=-21 dv=0 dx=0 dy=0 dh=0 dv=0
PairPos2: "'kern' Horizontal Kerning lookup 1 per glyph data 0" X dx=0 dy=0 dh=-16 dv=0 dx=0 dy=0 dh=0 dv=0
PairPos2: "'kern' Horizontal Kerning lookup 1 per glyph data 0" W dx=0 dy=0 dh=-9 dv=0 dx=0 dy=0 dh=0 dv=0
PairPos2: "'kern' Horizontal Kerning lookup 1 per glyph data 0" W dx=0 dy=0 dh=-70 dv=0 dx=0 dy=0 dh=0 dv=0
PairPos2: "'kern' Horizontal Kerning lookup 1 per glyph data 0" V dx=0 dy=0 dh=-70 dv=0 dx=0 dy=0 dh=0 dv=0
PairPos2: "'kern' Horizontal Kerning lookup 1 per glyph data 0" V dx=0 dy=0 dh=-20 dv=0 dx=0 dy=0 dh=0 dv=0
PairPos2: "'kern' Horizontal Kerning lookup 1 per glyph data 0" T dx=0 dy=0 dh=-21 dv=0 dx=0 dy=0 dh=0 dv=0
PairPos2: "'kern' Horizontal Kerning lookup 1 per glyph data 0" A dx=0 dy=0 dh=-70 dv=0 dx=0 dy=0 dh=0 dv=0
PairPos2: "'kern' Horizontal Kerning lookup 1 per glyph data 0" period dx=0 dy=0 dh=-115 dv=0 dx=0 dy=0 dh=0 dv=0
PairPos2: "'kern' Horizontal Kerning lookup 1 per glyph data 0" comma dx=0 dy=0 dh=-100 dv=0 dx=0 dy=0 dh=0 dv=0
EndChar

StartChar: E
Encoding: 69 69 40
Width: 1219
GlyphClass: 2
Flags: HW
LayerCount: 2
Fore
SplineSet
1106 0 m 1,0,-1
 123 0 l 1,1,-1
 123 1579 l 1,2,-1
 1093 1579 l 1,3,-1
 1093 1436 l 1,4,-1
 317 1436 l 1,5,-1
 317 891 l 1,6,-1
 995 891 l 1,7,-1
 995 776 l 1,8,-1
 317 776 l 1,9,-1
 317 143 l 1,10,-1
 1106 143 l 1,11,-1
 1106 0 l 1,0,-1
EndSplineSet
EndChar

StartChar: F
Encoding: 70 70 41
Width: 1154
GlyphClass: 2
Flags: HW
LayerCount: 2
Fore
SplineSet
319 762 m 1,0,-1
 319 0 l 1,1,-1
 123 0 l 1,2,-1
 123 1579 l 1,3,-1
 1044 1579 l 1,4,-1
 1044 1436 l 1,5,-1
 319 1436 l 1,6,-1
 319 879 l 1,7,-1
 983 879 l 1,8,-1
 983 762 l 1,9,-1
 319 762 l 1,0,-1
EndSplineSet
PairPos2: "'kern' Horizontal Kerning lookup 1 per glyph data 0" oe dx=0 dy=0 dh=-23 dv=0 dx=0 dy=0 dh=0 dv=0
PairPos2: "'kern' Horizontal Kerning lookup 1 per glyph data 0" oslash dx=0 dy=0 dh=-23 dv=0 dx=0 dy=0 dh=0 dv=0
PairPos2: "'kern' Horizontal Kerning lookup 1 per glyph data 0" odieresis dx=0 dy=0 dh=-23 dv=0 dx=0 dy=0 dh=0 dv=0
PairPos2: "'kern' Horizontal Kerning lookup 1 per glyph data 0" otilde dx=0 dy=0 dh=-23 dv=0 dx=0 dy=0 dh=0 dv=0
PairPos2: "'kern' Horizontal Kerning lookup 1 per glyph data 0" ocircumflex dx=0 dy=0 dh=-23 dv=0 dx=0 dy=0 dh=0 dv=0
PairPos2: "'kern' Horizontal Kerning lookup 1 per glyph data 0" oacute dx=0 dy=0 dh=-23 dv=0 dx=0 dy=0 dh=0 dv=0
PairPos2: "'kern' Horizontal Kerning lookup 1 per glyph data 0" ograve dx=0 dy=0 dh=-23 dv=0 dx=0 dy=0 dh=0 dv=0
PairPos2: "'kern' Horizontal Kerning lookup 1 per glyph data 0" edieresis dx=0 dy=0 dh=-23 dv=0 dx=0 dy=0 dh=0 dv=0
PairPos2: "'kern' Horizontal Kerning lookup 1 per glyph data 0" ecircumflex dx=0 dy=0 dh=-23 dv=0 dx=0 dy=0 dh=0 dv=0
PairPos2: "'kern' Horizontal Kerning lookup 1 per glyph data 0" eacute dx=0 dy=0 dh=-23 dv=0 dx=0 dy=0 dh=0 dv=0
PairPos2: "'kern' Horizontal Kerning lookup 1 per glyph data 0" egrave dx=0 dy=0 dh=-23 dv=0 dx=0 dy=0 dh=0 dv=0
PairPos2: "'kern' Horizontal Kerning lookup 1 per glyph data 0" ae dx=0 dy=0 dh=-23 dv=0 dx=0 dy=0 dh=0 dv=0
PairPos2: "'kern' Horizontal Kerning lookup 1 per glyph data 0" q dx=0 dy=0 dh=-23 dv=0 dx=0 dy=0 dh=0 dv=0
PairPos2: "'kern' Horizontal Kerning lookup 1 per glyph data 0" o dx=0 dy=0 dh=-23 dv=0 dx=0 dy=0 dh=0 dv=0
PairPos2: "'kern' Horizontal Kerning lookup 1 per glyph data 0" e dx=0 dy=0 dh=-23 dv=0 dx=0 dy=0 dh=0 dv=0
PairPos2: "'kern' Horizontal Kerning lookup 1 per glyph data 0" d dx=0 dy=0 dh=-23 dv=0 dx=0 dy=0 dh=0 dv=0
PairPos2: "'kern' Horizontal Kerning lookup 1 per glyph data 0" c dx=0 dy=0 dh=-23 dv=0 dx=0 dy=0 dh=0 dv=0
PairPos2: "'kern' Horizontal Kerning lookup 1 per glyph data 0" period dx=0 dy=0 dh=-180 dv=0 dx=0 dy=0 dh=0 dv=0
PairPos2: "'kern' Horizontal Kerning lookup 1 per glyph data 0" .notdef dx=0 dy=0 dh=-23 dv=0 dx=0 dy=0 dh=0 dv=0
EndChar

StartChar: G
Encoding: 71 71 42
Width: 1473
GlyphClass: 2
Flags: HW
LayerCount: 2
Fore
SplineSet
888 -29 m 128,-1,1
 819 -41 819 -41 726 -41 c 128,-1,2
 633 -41 633 -41 538.5 -7.5 c 128,-1,3
 444 26 444 26 376 85.5 c 128,-1,4
 308 145 308 145 257 223 c 128,-1,5
 206 301 206 301 175 395 c 0,6,7
 114 580 114 580 114 753.5 c 128,-1,8
 114 927 114 927 136 1047.5 c 128,-1,9
 158 1168 158 1168 208 1273 c 128,-1,10
 258 1378 258 1378 334 1452 c 0,11,12
 497 1610 497 1610 788 1610 c 0,13,14
 1018 1610 1018 1610 1230 1476 c 1,15,-1
 1164 1341 l 1,16,17
 1098 1397 1098 1397 990.5 1427.5 c 128,-1,18
 883 1458 883 1458 792.5 1458 c 128,-1,19
 702 1458 702 1458 633 1437.5 c 128,-1,20
 564 1417 564 1417 516 1382 c 128,-1,21
 468 1347 468 1347 431.5 1295 c 128,-1,22
 395 1243 395 1243 373 1187 c 128,-1,23
 351 1131 351 1131 338 1060 c 0,24,25
 315 934 315 934 315 819.5 c 128,-1,26
 315 705 315 705 320 639.5 c 128,-1,27
 325 574 325 574 339 504 c 128,-1,28
 353 434 353 434 375 378 c 128,-1,29
 397 322 397 322 434 271 c 128,-1,30
 471 220 471 220 520 186 c 0,31,32
 626 112 626 112 792 111 c 0,33,34
 943 112 943 112 1049 174 c 0,35,36
 1168 244 1168 244 1168 399 c 2,37,-1
 1168 684 l 1,38,-1
 766 684 l 1,39,-1
 766 811 l 1,40,-1
 1353 811 l 1,41,-1
 1353 0 l 1,42,-1
 1265 0 l 1,43,-1
 1212 213 l 1,44,45
 1194 141 1194 141 1144.5 88.5 c 128,-1,46
 1095 36 1095 36 1026 9.5 c 128,-1,0
 957 -17 957 -17 888 -29 c 128,-1,1
EndSplineSet
EndChar

StartChar: H
Encoding: 72 72 43
Width: 1467
GlyphClass: 2
Flags: HW
LayerCount: 2
Fore
SplineSet
1149 0 m 1,0,-1
 1149 764 l 1,1,-1
 317 764 l 1,2,-1
 317 0 l 1,3,-1
 123 0 l 1,4,-1
 123 1579 l 1,5,-1
 317 1579 l 1,6,-1
 317 879 l 1,7,-1
 1149 879 l 1,8,-1
 1149 1579 l 1,9,-1
 1343 1579 l 1,10,-1
 1343 0 l 1,11,-1
 1149 0 l 1,0,-1
EndSplineSet
EndChar

StartChar: I
Encoding: 73 73 44
Width: 823
GlyphClass: 2
Flags: HW
LayerCount: 2
Fore
SplineSet
114 112 m 1,0,-1
 318 112 l 1,1,-1
 318 1461 l 1,2,-1
 114 1461 l 1,3,-1
 114 1579 l 1,4,-1
 707 1579 l 1,5,-1
 707 1461 l 1,6,-1
 501 1461 l 1,7,-1
 501 112 l 1,8,-1
 707 112 l 1,9,-1
 707 0 l 1,10,-1
 114 0 l 1,11,-1
 114 112 l 1,0,-1
EndSplineSet
EndChar

StartChar: J
Encoding: 74 74 45
Width: 727
GlyphClass: 2
Flags: HW
LayerCount: 2
Fore
SplineSet
136 -90 m 1,0,-1
 89 37 l 1,1,2
 276 66 276 66 336 133 c 0,3,4
 375 178 375 178 385 212 c 128,-1,5
 395 246 395 246 400 270 c 0,6,7
 406 294 406 294 408 332 c 0,8,9
 412 384 412 384 411 479 c 2,10,-1
 411 1579 l 1,11,-1
 603 1579 l 1,12,-1
 603 514 l 2,13,14
 604 252 604 252 548 130 c 0,15,16
 498 18 498 18 408 -31 c 0,17,18
 302 -90 302 -90 136 -90 c 1,0,-1
EndSplineSet
EndChar

StartChar: K
Encoding: 75 75 46
Width: 1366
GlyphClass: 2
Flags: HW
LayerCount: 2
Fore
SplineSet
317 747 m 1,0,-1
 317 0 l 1,1,-1
 123 0 l 1,2,-1
 123 1579 l 1,3,-1
 317 1579 l 1,4,-1
 317 854 l 1,5,-1
 540 854 l 1,6,-1
 1030 1579 l 1,7,-1
 1223 1579 l 1,8,-1
 694 798 l 1,9,-1
 1290 0 l 1,10,-1
 1087 0 l 1,11,-1
 532 747 l 1,12,-1
 317 747 l 1,0,-1
EndSplineSet
EndChar

StartChar: L
Encoding: 76 76 47
Width: 1175
GlyphClass: 2
Flags: HW
LayerCount: 2
Fore
SplineSet
1063 0 m 1,0,-1
 123 0 l 1,1,-1
 123 1579 l 1,2,-1
 317 1579 l 1,3,-1
 317 143 l 1,4,-1
 1063 143 l 1,5,-1
 1063 0 l 1,0,-1
EndSplineSet
PairPos2: "'kern' Horizontal Kerning lookup 1 per glyph data 0" quotedblright dx=0 dy=0 dh=-80 dv=0 dx=0 dy=0 dh=0 dv=0
PairPos2: "'kern' Horizontal Kerning lookup 1 per glyph data 0" quoteright dx=0 dy=0 dh=-80 dv=0 dx=0 dy=0 dh=0 dv=0
PairPos2: "'kern' Horizontal Kerning lookup 1 per glyph data 0" OE dx=0 dy=0 dh=-50 dv=0 dx=0 dy=0 dh=0 dv=0
PairPos2: "'kern' Horizontal Kerning lookup 1 per glyph data 0" Oslash dx=0 dy=0 dh=-50 dv=0 dx=0 dy=0 dh=0 dv=0
PairPos2: "'kern' Horizontal Kerning lookup 1 per glyph data 0" Odieresis dx=0 dy=0 dh=-50 dv=0 dx=0 dy=0 dh=0 dv=0
PairPos2: "'kern' Horizontal Kerning lookup 1 per glyph data 0" Otilde dx=0 dy=0 dh=-50 dv=0 dx=0 dy=0 dh=0 dv=0
PairPos2: "'kern' Horizontal Kerning lookup 1 per glyph data 0" Ocircumflex dx=0 dy=0 dh=-50 dv=0 dx=0 dy=0 dh=0 dv=0
PairPos2: "'kern' Horizontal Kerning lookup 1 per glyph data 0" Oacute dx=0 dy=0 dh=-50 dv=0 dx=0 dy=0 dh=0 dv=0
PairPos2: "'kern' Horizontal Kerning lookup 1 per glyph data 0" Ograve dx=0 dy=0 dh=-50 dv=0 dx=0 dy=0 dh=0 dv=0
PairPos2: "'kern' Horizontal Kerning lookup 1 per glyph data 0" Ccedilla dx=0 dy=0 dh=-50 dv=0 dx=0 dy=0 dh=0 dv=0
PairPos2: "'kern' Horizontal Kerning lookup 1 per glyph data 0" W dx=0 dy=0 dh=-65 dv=0 dx=0 dy=0 dh=0 dv=0
PairPos2: "'kern' Horizontal Kerning lookup 1 per glyph data 0" V dx=0 dy=0 dh=-115 dv=0 dx=0 dy=0 dh=0 dv=0
PairPos2: "'kern' Horizontal Kerning lookup 1 per glyph data 0" T dx=0 dy=0 dh=-99 dv=0 dx=0 dy=0 dh=0 dv=0
PairPos2: "'kern' Horizontal Kerning lookup 1 per glyph data 0" Q dx=0 dy=0 dh=-50 dv=0 dx=0 dy=0 dh=0 dv=0
PairPos2: "'kern' Horizontal Kerning lookup 1 per glyph data 0" O dx=0 dy=0 dh=-50 dv=0 dx=0 dy=0 dh=0 dv=0
PairPos2: "'kern' Horizontal Kerning lookup 1 per glyph data 0" G dx=0 dy=0 dh=-50 dv=0 dx=0 dy=0 dh=0 dv=0
PairPos2: "'kern' Horizontal Kerning lookup 1 per glyph data 0" D dx=0 dy=0 dh=-50 dv=0 dx=0 dy=0 dh=0 dv=0
PairPos2: "'kern' Horizontal Kerning lookup 1 per glyph data 0" C dx=0 dy=0 dh=-50 dv=0 dx=0 dy=0 dh=0 dv=0
PairPos2: "'kern' Horizontal Kerning lookup 1 per glyph data 0" six dx=0 dy=0 dh=-50 dv=0 dx=0 dy=0 dh=0 dv=0
EndChar

StartChar: M
Encoding: 77 77 48
Width: 1779
GlyphClass: 2
Flags: HW
LayerCount: 2
Fore
SplineSet
791 0 m 1,0,-1
 278 1469 l 1,1,-1
 278 0 l 1,2,-1
 123 0 l 1,3,-1
 123 1579 l 1,4,-1
 414 1579 l 1,5,-1
 889 178 l 1,6,-1
 1364 1579 l 1,7,-1
 1655 1579 l 1,8,-1
 1655 0 l 1,9,-1
 1500 0 l 1,10,-1
 1500 1469 l 1,11,-1
 987 0 l 1,12,-1
 791 0 l 1,0,-1
EndSplineSet
EndChar

StartChar: N
Encoding: 78 78 49
Width: 1500
GlyphClass: 2
Flags: HW
LayerCount: 2
Fore
SplineSet
1214 145 m 1,0,-1
 1214 1579 l 1,1,-1
 1376 1579 l 1,2,-1
 1376 0 l 1,3,-1
 1114 0 l 1,4,-1
 285 1434 l 1,5,-1
 285 0 l 1,6,-1
 123 0 l 1,7,-1
 123 1579 l 1,8,-1
 385 1579 l 1,9,-1
 1214 145 l 1,0,-1
EndSplineSet
EndChar

StartChar: O
Encoding: 79 79 50
Width: 1536
GlyphClass: 2
Flags: HW
LayerCount: 2
Fore
SplineSet
1404 1044 m 128,-1,1
 1424 925 1424 925 1424 785.5 c 128,-1,2
 1424 646 1424 646 1404.5 528.5 c 128,-1,3
 1385 411 1385 411 1337.5 304 c 128,-1,4
 1290 197 1290 197 1216 122 c 0,5,6
 1056 -41 1056 -41 768 -41 c 0,7,8
 354 -42 354 -42 202 300 c 0,9,10
 114 496 114 496 114 784 c 0,11,12
 114 1226 114 1226 318 1444 c 0,13,14
 390 1520 390 1520 501.5 1565 c 128,-1,15
 613 1610 613 1610 758 1610 c 128,-1,16
 903 1610 903 1610 1019.5 1567 c 128,-1,17
 1136 1524 1136 1524 1211 1450 c 128,-1,18
 1286 1376 1286 1376 1335 1269.5 c 128,-1,0
 1384 1163 1384 1163 1404 1044 c 128,-1,1
1224 784 m 0,19,20
 1224 1092 1224 1092 1143 1242 c 0,21,22
 1066 1385 1066 1385 938 1431 c 0,23,24
 864 1458 864 1458 776 1458 c 128,-1,25
 688 1458 688 1458 621 1437 c 128,-1,26
 554 1416 554 1416 507.5 1380.5 c 128,-1,27
 461 1345 461 1345 425.5 1292 c 128,-1,28
 390 1239 390 1239 369.5 1182.5 c 128,-1,29
 349 1126 349 1126 336 1056 c 0,30,31
 314 937 314 937 314 816.5 c 128,-1,32
 314 696 314 696 321.5 620.5 c 128,-1,33
 329 545 329 545 347 465.5 c 128,-1,34
 365 386 365 386 399 324.5 c 0,35,36
 433 264 433 264 483 214 c 0,37,38
 587 112 587 112 779 111 c 0,39,40
 1224 111 1224 111 1224 784 c 0,19,20
EndSplineSet
EndChar

StartChar: P
Encoding: 80 80 51
Width: 1330
GlyphClass: 2
Flags: HW
LayerCount: 2
Fore
SplineSet
487 784 m 2,0,1
 701 784 701 784 770.5 802 c 128,-1,2
 840 820 840 820 889.5 842.5 c 0,3,4
 938 865 938 865 968 896 c 0,5,6
 1038 969 1038 969 1038 1068 c 128,-1,7
 1038 1167 1038 1167 1022.5 1227.5 c 128,-1,8
 1007 1288 1007 1288 971.5 1326 c 128,-1,9
 936 1364 936 1364 898.5 1387 c 0,10,11
 860 1410 860 1410 794 1420 c 0,12,13
 688 1436 688 1436 532 1436 c 2,14,-1
 317 1436 l 1,15,-1
 317 784 l 1,16,-1
 487 784 l 2,0,1
1220 1116 m 0,17,18
 1220 1035 1220 1035 1203.5 974 c 128,-1,19
 1187 913 1187 913 1160.5 868.5 c 128,-1,20
 1134 824 1134 824 1091.5 788 c 128,-1,21
 1049 752 1049 752 1005.5 728.5 c 128,-1,22
 962 705 962 705 901.5 687.5 c 128,-1,23
 841 670 841 670 789 661 c 0,24,25
 738 652 738 652 668 647 c 0,26,27
 557 639 557 639 427 639 c 2,28,-1
 317 639 l 1,29,-1
 317 0 l 1,30,-1
 123 0 l 1,31,-1
 123 1579 l 1,32,-1
 520 1579 l 2,33,34
 807 1578 807 1578 945 1528 c 0,35,36
 1081 1478 1081 1478 1144 1388 c 0,37,38
 1220 1280 1220 1280 1220 1116 c 0,17,18
EndSplineSet
PairPos2: "'kern' Horizontal Kerning lookup 1 per glyph data 0" oe dx=0 dy=0 dh=-81 dv=0 dx=0 dy=0 dh=0 dv=0
PairPos2: "'kern' Horizontal Kerning lookup 1 per glyph data 0" oslash dx=0 dy=0 dh=-81 dv=0 dx=0 dy=0 dh=0 dv=0
PairPos2: "'kern' Horizontal Kerning lookup 1 per glyph data 0" odieresis dx=0 dy=0 dh=-81 dv=0 dx=0 dy=0 dh=0 dv=0
PairPos2: "'kern' Horizontal Kerning lookup 1 per glyph data 0" otilde dx=0 dy=0 dh=-81 dv=0 dx=0 dy=0 dh=0 dv=0
PairPos2: "'kern' Horizontal Kerning lookup 1 per glyph data 0" ocircumflex dx=0 dy=0 dh=-81 dv=0 dx=0 dy=0 dh=0 dv=0
PairPos2: "'kern' Horizontal Kerning lookup 1 per glyph data 0" oacute dx=0 dy=0 dh=-81 dv=0 dx=0 dy=0 dh=0 dv=0
PairPos2: "'kern' Horizontal Kerning lookup 1 per glyph data 0" ograve dx=0 dy=0 dh=-81 dv=0 dx=0 dy=0 dh=0 dv=0
PairPos2: "'kern' Horizontal Kerning lookup 1 per glyph data 0" edieresis dx=0 dy=0 dh=-81 dv=0 dx=0 dy=0 dh=0 dv=0
PairPos2: "'kern' Horizontal Kerning lookup 1 per glyph data 0" ecircumflex dx=0 dy=0 dh=-81 dv=0 dx=0 dy=0 dh=0 dv=0
PairPos2: "'kern' Horizontal Kerning lookup 1 per glyph data 0" eacute dx=0 dy=0 dh=-81 dv=0 dx=0 dy=0 dh=0 dv=0
PairPos2: "'kern' Horizontal Kerning lookup 1 per glyph data 0" egrave dx=0 dy=0 dh=-81 dv=0 dx=0 dy=0 dh=0 dv=0
PairPos2: "'kern' Horizontal Kerning lookup 1 per glyph data 0" ae dx=0 dy=0 dh=-81 dv=0 dx=0 dy=0 dh=0 dv=0
PairPos2: "'kern' Horizontal Kerning lookup 1 per glyph data 0" x dx=0 dy=0 dh=-14 dv=0 dx=0 dy=0 dh=0 dv=0
PairPos2: "'kern' Horizontal Kerning lookup 1 per glyph data 0" r dx=0 dy=0 dh=-34 dv=0 dx=0 dy=0 dh=0 dv=0
PairPos2: "'kern' Horizontal Kerning lookup 1 per glyph data 0" q dx=0 dy=0 dh=-81 dv=0 dx=0 dy=0 dh=0 dv=0
PairPos2: "'kern' Horizontal Kerning lookup 1 per glyph data 0" o dx=0 dy=0 dh=-81 dv=0 dx=0 dy=0 dh=0 dv=0
PairPos2: "'kern' Horizontal Kerning lookup 1 per glyph data 0" e dx=0 dy=0 dh=-81 dv=0 dx=0 dy=0 dh=0 dv=0
PairPos2: "'kern' Horizontal Kerning lookup 1 per glyph data 0" d dx=0 dy=0 dh=-81 dv=0 dx=0 dy=0 dh=0 dv=0
PairPos2: "'kern' Horizontal Kerning lookup 1 per glyph data 0" c dx=0 dy=0 dh=-81 dv=0 dx=0 dy=0 dh=0 dv=0
PairPos2: "'kern' Horizontal Kerning lookup 1 per glyph data 0" a dx=0 dy=0 dh=-81 dv=0 dx=0 dy=0 dh=0 dv=0
PairPos2: "'kern' Horizontal Kerning lookup 1 per glyph data 0" X dx=0 dy=0 dh=-84 dv=0 dx=0 dy=0 dh=0 dv=0
PairPos2: "'kern' Horizontal Kerning lookup 1 per glyph data 0" period dx=0 dy=0 dh=-110 dv=0 dx=0 dy=0 dh=0 dv=0
PairPos2: "'kern' Horizontal Kerning lookup 1 per glyph data 0" comma dx=0 dy=0 dh=-110 dv=0 dx=0 dy=0 dh=0 dv=0
PairPos2: "'kern' Horizontal Kerning lookup 1 per glyph data 0" .notdef dx=0 dy=0 dh=-81 dv=0 dx=0 dy=0 dh=0 dv=0
EndChar

StartChar: Q
Encoding: 81 81 52
Width: 1549
GlyphClass: 2
Flags: HW
LayerCount: 2
Fore
SplineSet
776 1458 m 128,-1,1
 313 1458 313 1458 313 784 c 0,2,3
 313 340 313 340 513 188 c 0,4,5
 616 110 616 110 776 111 c 0,6,7
 1193 112 1193 112 1234 646 c 0,8,9
 1239 710 1239 710 1239 784 c 0,10,0
 1239 1458 1239 1458 776 1458 c 128,-1,1
1439 794 m 0,11,12
 1439 666 1439 666 1424.5 563 c 128,-1,13
 1410 460 1410 460 1372.5 357.5 c 128,-1,14
 1335 255 1335 255 1277 178.5 c 128,-1,15
 1219 102 1219 102 1125.5 46 c 128,-1,16
 1032 -10 1032 -10 911 -29 c 1,17,-1
 1290 -293 l 1,18,-1
 1171 -424 l 1,19,-1
 678 -35 l 1,20,21
 459 -11 459 -11 333 114.5 c 0,22,23
 208 240 208 240 160 414 c 0,24,25
 112 589 112 589 112 758 c 128,-1,26
 112 927 112 927 133.5 1045 c 128,-1,27
 155 1163 155 1163 205 1268 c 128,-1,28
 255 1373 255 1373 330 1448 c 0,29,30
 492 1610 492 1610 776 1610 c 0,31,32
 1188 1610 1188 1610 1348 1267 c 0,33,34
 1440 1071 1440 1071 1439 794 c 0,11,12
EndSplineSet
EndChar

StartChar: R
Encoding: 82 82 53
Width: 1333
GlyphClass: 2
Flags: HW
LayerCount: 2
Fore
SplineSet
1032 0 m 1,0,-1
 1036 312 l 1,1,2
 1036 508 1036 508 994 580 c 0,3,4
 954 652 954 652 882 681 c 0,5,6
 788 719 788 719 688.5 726 c 128,-1,7
 589 733 589 733 497 733 c 2,8,-1
 317 733 l 1,9,-1
 317 0 l 1,10,-1
 123 0 l 1,11,-1
 123 1579 l 1,12,-1
 499 1579 l 2,13,14
 739 1579 739 1579 802.5 1568 c 128,-1,15
 866 1557 866 1557 926 1542.5 c 128,-1,16
 986 1528 986 1528 1021.5 1507.5 c 128,-1,17
 1057 1487 1057 1487 1098.5 1455 c 128,-1,18
 1140 1423 1140 1423 1162 1382 c 0,19,20
 1216 1285 1216 1285 1216 1160 c 0,21,22
 1216 992 1216 992 1095.5 894.5 c 128,-1,23
 975 797 975 797 803 797 c 1,24,25
 1112 762 1112 762 1186 570 c 0,26,27
 1214 496 1214 496 1214 397 c 2,28,-1
 1214 0 l 1,29,-1
 1032 0 l 1,0,-1
612 1437 m 2,30,-1
 499 1436 l 1,31,-1
 317 1436 l 1,32,-1
 317 862 l 1,33,-1
 558 862 l 2,34,35
 880 862 880 862 985 976 c 0,36,37
 1046 1043 1046 1043 1046 1150 c 0,38,39
 1046 1310 1046 1310 941 1374 c 0,40,41
 876 1414 876 1414 809 1424 c 0,42,43
 713 1437 713 1437 612 1437 c 2,30,-1
EndSplineSet
EndChar

StartChar: S
Encoding: 83 83 54
Width: 1096
GlyphClass: 2
Flags: HW
LayerCount: 2
Fore
SplineSet
70 72 m 1,0,-1
 90 222 l 1,1,2
 204 162 204 162 293 136.5 c 128,-1,3
 382 111 382 111 475 111 c 128,-1,4
 568 111 568 111 624.5 118.5 c 128,-1,5
 681 126 681 126 736 146.5 c 0,6,7
 791 166 791 166 828 200 c 0,8,9
 911 275 911 275 911 416 c 0,10,11
 911 556 911 556 796 634 c 0,12,13
 703 697 703 697 579.5 735.5 c 128,-1,14
 456 774 456 774 380.5 799 c 128,-1,15
 305 824 305 824 237 859.5 c 0,16,17
 169 894 169 894 116 940 c 0,18,19
 1 1039 1 1039 1 1217 c 0,20,21
 1 1317 1 1317 44.5 1394.5 c 128,-1,22
 88 1472 88 1472 160 1518 c 0,23,24
 305 1610 305 1610 500 1610 c 0,25,26
 771 1610 771 1610 993 1484 c 1,27,-1
 963 1337 l 1,28,29
 877 1392 877 1392 769 1425 c 128,-1,30
 661 1458 661 1458 580.5 1458 c 128,-1,31
 500 1458 500 1458 452 1453.5 c 128,-1,32
 404 1449 404 1449 351.5 1433.5 c 128,-1,33
 299 1418 299 1418 264 1392 c 0,34,35
 184 1331 184 1331 184 1208 c 0,36,37
 184 1088 184 1088 299 1024 c 0,38,39
 379 979 379 979 509.5 942.5 c 128,-1,40
 640 906 640 906 715.5 881.5 c 128,-1,41
 791 857 791 857 859 819.5 c 128,-1,42
 927 782 927 782 980 732 c 0,43,44
 1095 624 1095 624 1095 426 c 0,45,46
 1095 144 1095 144 862 27 c 0,47,48
 726 -41 726 -41 532 -41 c 0,49,50
 415 -41 415 -41 286 -12 c 128,-1,51
 157 17 157 17 70 72 c 1,0,-1
EndSplineSet
EndChar

StartChar: T
Encoding: 84 84 55
Width: 1341
GlyphClass: 2
Flags: HW
LayerCount: 2
Fore
SplineSet
1224 1436 m 1,0,-1
 766 1436 l 1,1,-1
 766 0 l 1,2,-1
 576 0 l 1,3,-1
 576 1436 l 1,4,-1
 116 1436 l 1,5,-1
 116 1579 l 1,6,-1
 1224 1579 l 1,7,-1
 1224 1436 l 1,0,-1
EndSplineSet
PairPos2: "'kern' Horizontal Kerning lookup 1 per glyph data 0" oe dx=0 dy=0 dh=-58 dv=0 dx=0 dy=0 dh=0 dv=0
PairPos2: "'kern' Horizontal Kerning lookup 1 per glyph data 0" OE dx=0 dy=0 dh=-21 dv=0 dx=0 dy=0 dh=0 dv=0
PairPos2: "'kern' Horizontal Kerning lookup 1 per glyph data 0" oslash dx=0 dy=0 dh=-58 dv=0 dx=0 dy=0 dh=0 dv=0
PairPos2: "'kern' Horizontal Kerning lookup 1 per glyph data 0" odieresis dx=0 dy=0 dh=-58 dv=0 dx=0 dy=0 dh=0 dv=0
PairPos2: "'kern' Horizontal Kerning lookup 1 per glyph data 0" otilde dx=0 dy=0 dh=-58 dv=0 dx=0 dy=0 dh=0 dv=0
PairPos2: "'kern' Horizontal Kerning lookup 1 per glyph data 0" ocircumflex dx=0 dy=0 dh=-58 dv=0 dx=0 dy=0 dh=0 dv=0
PairPos2: "'kern' Horizontal Kerning lookup 1 per glyph data 0" oacute dx=0 dy=0 dh=-58 dv=0 dx=0 dy=0 dh=0 dv=0
PairPos2: "'kern' Horizontal Kerning lookup 1 per glyph data 0" ograve dx=0 dy=0 dh=-58 dv=0 dx=0 dy=0 dh=0 dv=0
PairPos2: "'kern' Horizontal Kerning lookup 1 per glyph data 0" edieresis dx=0 dy=0 dh=-58 dv=0 dx=0 dy=0 dh=0 dv=0
PairPos2: "'kern' Horizontal Kerning lookup 1 per glyph data 0" ecircumflex dx=0 dy=0 dh=-58 dv=0 dx=0 dy=0 dh=0 dv=0
PairPos2: "'kern' Horizontal Kerning lookup 1 per glyph data 0" eacute dx=0 dy=0 dh=-58 dv=0 dx=0 dy=0 dh=0 dv=0
PairPos2: "'kern' Horizontal Kerning lookup 1 per glyph data 0" egrave dx=0 dy=0 dh=-58 dv=0 dx=0 dy=0 dh=0 dv=0
PairPos2: "'kern' Horizontal Kerning lookup 1 per glyph data 0" ae dx=0 dy=0 dh=-58 dv=0 dx=0 dy=0 dh=0 dv=0
PairPos2: "'kern' Horizontal Kerning lookup 1 per glyph data 0" Oslash dx=0 dy=0 dh=-21 dv=0 dx=0 dy=0 dh=0 dv=0
PairPos2: "'kern' Horizontal Kerning lookup 1 per glyph data 0" Odieresis dx=0 dy=0 dh=-21 dv=0 dx=0 dy=0 dh=0 dv=0
PairPos2: "'kern' Horizontal Kerning lookup 1 per glyph data 0" Otilde dx=0 dy=0 dh=-21 dv=0 dx=0 dy=0 dh=0 dv=0
PairPos2: "'kern' Horizontal Kerning lookup 1 per glyph data 0" Ocircumflex dx=0 dy=0 dh=-21 dv=0 dx=0 dy=0 dh=0 dv=0
PairPos2: "'kern' Horizontal Kerning lookup 1 per glyph data 0" Oacute dx=0 dy=0 dh=-21 dv=0 dx=0 dy=0 dh=0 dv=0
PairPos2: "'kern' Horizontal Kerning lookup 1 per glyph data 0" Ograve dx=0 dy=0 dh=-21 dv=0 dx=0 dy=0 dh=0 dv=0
PairPos2: "'kern' Horizontal Kerning lookup 1 per glyph data 0" Ccedilla dx=0 dy=0 dh=-21 dv=0 dx=0 dy=0 dh=0 dv=0
PairPos2: "'kern' Horizontal Kerning lookup 1 per glyph data 0" y dx=0 dy=0 dh=-58 dv=0 dx=0 dy=0 dh=0 dv=0
PairPos2: "'kern' Horizontal Kerning lookup 1 per glyph data 0" w dx=0 dy=0 dh=-69 dv=0 dx=0 dy=0 dh=0 dv=0
PairPos2: "'kern' Horizontal Kerning lookup 1 per glyph data 0" w dx=0 dy=0 dh=-44 dv=0 dx=0 dy=0 dh=0 dv=0
PairPos2: "'kern' Horizontal Kerning lookup 1 per glyph data 0" v dx=0 dy=0 dh=-33 dv=0 dx=0 dy=0 dh=0 dv=0
PairPos2: "'kern' Horizontal Kerning lookup 1 per glyph data 0" q dx=0 dy=0 dh=-58 dv=0 dx=0 dy=0 dh=0 dv=0
PairPos2: "'kern' Horizontal Kerning lookup 1 per glyph data 0" o dx=0 dy=0 dh=-58 dv=0 dx=0 dy=0 dh=0 dv=0
PairPos2: "'kern' Horizontal Kerning lookup 1 per glyph data 0" e dx=0 dy=0 dh=-81 dv=0 dx=0 dy=0 dh=0 dv=0
PairPos2: "'kern' Horizontal Kerning lookup 1 per glyph data 0" d dx=0 dy=0 dh=-58 dv=0 dx=0 dy=0 dh=0 dv=0
PairPos2: "'kern' Horizontal Kerning lookup 1 per glyph data 0" c dx=0 dy=0 dh=-58 dv=0 dx=0 dy=0 dh=0 dv=0
PairPos2: "'kern' Horizontal Kerning lookup 1 per glyph data 0" a dx=0 dy=0 dh=-23 dv=0 dx=0 dy=0 dh=0 dv=0
PairPos2: "'kern' Horizontal Kerning lookup 1 per glyph data 0" Q dx=0 dy=0 dh=-21 dv=0 dx=0 dy=0 dh=0 dv=0
PairPos2: "'kern' Horizontal Kerning lookup 1 per glyph data 0" O dx=0 dy=0 dh=-21 dv=0 dx=0 dy=0 dh=0 dv=0
PairPos2: "'kern' Horizontal Kerning lookup 1 per glyph data 0" G dx=0 dy=0 dh=-21 dv=0 dx=0 dy=0 dh=0 dv=0
PairPos2: "'kern' Horizontal Kerning lookup 1 per glyph data 0" D dx=0 dy=0 dh=-21 dv=0 dx=0 dy=0 dh=0 dv=0
PairPos2: "'kern' Horizontal Kerning lookup 1 per glyph data 0" C dx=0 dy=0 dh=-21 dv=0 dx=0 dy=0 dh=0 dv=0
PairPos2: "'kern' Horizontal Kerning lookup 1 per glyph data 0" six dx=0 dy=0 dh=-21 dv=0 dx=0 dy=0 dh=0 dv=0
PairPos2: "'kern' Horizontal Kerning lookup 1 per glyph data 0" period dx=0 dy=0 dh=-30 dv=0 dx=0 dy=0 dh=0 dv=0
PairPos2: "'kern' Horizontal Kerning lookup 1 per glyph data 0" .notdef dx=0 dy=0 dh=-58 dv=0 dx=0 dy=0 dh=0 dv=0
EndChar

StartChar: U
Encoding: 85 85 56
Width: 1499
GlyphClass: 2
Flags: HW
LayerCount: 2
Fore
SplineSet
748 -41 m 0,0,1
 604 -41 604 -41 496 -3.5 c 128,-1,2
 388 34 388 34 317.5 99 c 0,3,4
 246 164 246 164 202 261 c 0,5,6
 122 436 122 436 122 715 c 2,7,-1
 122 1579 l 1,8,-1
 314 1579 l 1,9,-1
 314 711 l 2,10,11
 314 449 314 449 362 328 c 0,12,13
 407 214 407 214 492 161 c 0,14,15
 590 100 590 100 748 100 c 0,16,17
 986 100 986 100 1082 236 c 0,18,19
 1143 322 1143 322 1159 416 c 0,20,21
 1182 553 1182 553 1182 711 c 2,22,-1
 1182 1579 l 1,23,-1
 1378 1579 l 1,24,-1
 1378 715 l 2,25,26
 1378 280 1378 280 1182 99 c 0,27,28
 1030 -41 1030 -41 748 -41 c 0,0,1
EndSplineSet
EndChar

StartChar: V
Encoding: 86 86 57
Width: 1406
GlyphClass: 2
Flags: HW
LayerCount: 2
Fore
SplineSet
582 0 m 1,0,-1
 86 1579 l 1,1,-1
 270 1579 l 1,2,-1
 704 180 l 1,3,-1
 1138 1579 l 1,4,-1
 1320 1579 l 1,5,-1
 826 0 l 1,6,-1
 582 0 l 1,0,-1
EndSplineSet
PairPos2: "'kern' Horizontal Kerning lookup 1 per glyph data 0" oe dx=0 dy=0 dh=-46 dv=0 dx=0 dy=0 dh=0 dv=0
PairPos2: "'kern' Horizontal Kerning lookup 1 per glyph data 0" OE dx=0 dy=0 dh=-70 dv=0 dx=0 dy=0 dh=0 dv=0
PairPos2: "'kern' Horizontal Kerning lookup 1 per glyph data 0" oslash dx=0 dy=0 dh=-46 dv=0 dx=0 dy=0 dh=0 dv=0
PairPos2: "'kern' Horizontal Kerning lookup 1 per glyph data 0" odieresis dx=0 dy=0 dh=-46 dv=0 dx=0 dy=0 dh=0 dv=0
PairPos2: "'kern' Horizontal Kerning lookup 1 per glyph data 0" otilde dx=0 dy=0 dh=-46 dv=0 dx=0 dy=0 dh=0 dv=0
PairPos2: "'kern' Horizontal Kerning lookup 1 per glyph data 0" ocircumflex dx=0 dy=0 dh=-46 dv=0 dx=0 dy=0 dh=0 dv=0
PairPos2: "'kern' Horizontal Kerning lookup 1 per glyph data 0" oacute dx=0 dy=0 dh=-46 dv=0 dx=0 dy=0 dh=0 dv=0
PairPos2: "'kern' Horizontal Kerning lookup 1 per glyph data 0" ograve dx=0 dy=0 dh=-46 dv=0 dx=0 dy=0 dh=0 dv=0
PairPos2: "'kern' Horizontal Kerning lookup 1 per glyph data 0" edieresis dx=0 dy=0 dh=-46 dv=0 dx=0 dy=0 dh=0 dv=0
PairPos2: "'kern' Horizontal Kerning lookup 1 per glyph data 0" ecircumflex dx=0 dy=0 dh=-46 dv=0 dx=0 dy=0 dh=0 dv=0
PairPos2: "'kern' Horizontal Kerning lookup 1 per glyph data 0" eacute dx=0 dy=0 dh=-46 dv=0 dx=0 dy=0 dh=0 dv=0
PairPos2: "'kern' Horizontal Kerning lookup 1 per glyph data 0" egrave dx=0 dy=0 dh=-46 dv=0 dx=0 dy=0 dh=0 dv=0
PairPos2: "'kern' Horizontal Kerning lookup 1 per glyph data 0" ae dx=0 dy=0 dh=-46 dv=0 dx=0 dy=0 dh=0 dv=0
PairPos2: "'kern' Horizontal Kerning lookup 1 per glyph data 0" Oslash dx=0 dy=0 dh=-70 dv=0 dx=0 dy=0 dh=0 dv=0
PairPos2: "'kern' Horizontal Kerning lookup 1 per glyph data 0" Odieresis dx=0 dy=0 dh=-70 dv=0 dx=0 dy=0 dh=0 dv=0
PairPos2: "'kern' Horizontal Kerning lookup 1 per glyph data 0" Otilde dx=0 dy=0 dh=-70 dv=0 dx=0 dy=0 dh=0 dv=0
PairPos2: "'kern' Horizontal Kerning lookup 1 per glyph data 0" Ocircumflex dx=0 dy=0 dh=-70 dv=0 dx=0 dy=0 dh=0 dv=0
PairPos2: "'kern' Horizontal Kerning lookup 1 per glyph data 0" Oacute dx=0 dy=0 dh=-70 dv=0 dx=0 dy=0 dh=0 dv=0
PairPos2: "'kern' Horizontal Kerning lookup 1 per glyph data 0" Ograve dx=0 dy=0 dh=-70 dv=0 dx=0 dy=0 dh=0 dv=0
PairPos2: "'kern' Horizontal Kerning lookup 1 per glyph data 0" Ccedilla dx=0 dy=0 dh=-70 dv=0 dx=0 dy=0 dh=0 dv=0
PairPos2: "'kern' Horizontal Kerning lookup 1 per glyph data 0" y dx=0 dy=0 dh=-58 dv=0 dx=0 dy=0 dh=0 dv=0
PairPos2: "'kern' Horizontal Kerning lookup 1 per glyph data 0" w dx=0 dy=0 dh=-58 dv=0 dx=0 dy=0 dh=0 dv=0
PairPos2: "'kern' Horizontal Kerning lookup 1 per glyph data 0" v dx=0 dy=0 dh=-58 dv=0 dx=0 dy=0 dh=0 dv=0
PairPos2: "'kern' Horizontal Kerning lookup 1 per glyph data 0" q dx=0 dy=0 dh=-46 dv=0 dx=0 dy=0 dh=0 dv=0
PairPos2: "'kern' Horizontal Kerning lookup 1 per glyph data 0" o dx=0 dy=0 dh=-46 dv=0 dx=0 dy=0 dh=0 dv=0
PairPos2: "'kern' Horizontal Kerning lookup 1 per glyph data 0" e dx=0 dy=0 dh=-46 dv=0 dx=0 dy=0 dh=0 dv=0
PairPos2: "'kern' Horizontal Kerning lookup 1 per glyph data 0" d dx=0 dy=0 dh=-46 dv=0 dx=0 dy=0 dh=0 dv=0
PairPos2: "'kern' Horizontal Kerning lookup 1 per glyph data 0" c dx=0 dy=0 dh=-46 dv=0 dx=0 dy=0 dh=0 dv=0
PairPos2: "'kern' Horizontal Kerning lookup 1 per glyph data 0" a dx=0 dy=0 dh=-34 dv=0 dx=0 dy=0 dh=0 dv=0
PairPos2: "'kern' Horizontal Kerning lookup 1 per glyph data 0" W dx=0 dy=0 dh=-80 dv=0 dx=0 dy=0 dh=0 dv=0
PairPos2: "'kern' Horizontal Kerning lookup 1 per glyph data 0" Q dx=0 dy=0 dh=-70 dv=0 dx=0 dy=0 dh=0 dv=0
PairPos2: "'kern' Horizontal Kerning lookup 1 per glyph data 0" O dx=0 dy=0 dh=-70 dv=0 dx=0 dy=0 dh=0 dv=0
PairPos2: "'kern' Horizontal Kerning lookup 1 per glyph data 0" G dx=0 dy=0 dh=-70 dv=0 dx=0 dy=0 dh=0 dv=0
PairPos2: "'kern' Horizontal Kerning lookup 1 per glyph data 0" D dx=0 dy=0 dh=-70 dv=0 dx=0 dy=0 dh=0 dv=0
PairPos2: "'kern' Horizontal Kerning lookup 1 per glyph data 0" C dx=0 dy=0 dh=-70 dv=0 dx=0 dy=0 dh=0 dv=0
PairPos2: "'kern' Horizontal Kerning lookup 1 per glyph data 0" semicolon dx=0 dy=0 dh=-80 dv=0 dx=0 dy=0 dh=0 dv=0
PairPos2: "'kern' Horizontal Kerning lookup 1 per glyph data 0" colon dx=0 dy=0 dh=-50 dv=0 dx=0 dy=0 dh=0 dv=0
PairPos2: "'kern' Horizontal Kerning lookup 1 per glyph data 0" six dx=0 dy=0 dh=-70 dv=0 dx=0 dy=0 dh=0 dv=0
PairPos2: "'kern' Horizontal Kerning lookup 1 per glyph data 0" period dx=0 dy=0 dh=-80 dv=0 dx=0 dy=0 dh=0 dv=0
PairPos2: "'kern' Horizontal Kerning lookup 1 per glyph data 0" comma dx=0 dy=0 dh=-80 dv=0 dx=0 dy=0 dh=0 dv=0
PairPos2: "'kern' Horizontal Kerning lookup 1 per glyph data 0" .notdef dx=0 dy=0 dh=-46 dv=0 dx=0 dy=0 dh=0 dv=0
EndChar

StartChar: W
Encoding: 87 87 58
Width: 2020
GlyphClass: 2
Flags: HW
LayerCount: 2
Fore
SplineSet
1147 1489 m 1,0,-1
 1441 175 l 1,1,-1
 1751 1579 l 1,2,-1
 1931 1579 l 1,3,-1
 1575 0 l 1,4,-1
 1309 0 l 1,5,-1
 1010 1333 l 1,6,-1
 711 0 l 1,7,-1
 444 0 l 1,8,-1
 88 1579 l 1,9,-1
 269 1579 l 1,10,-1
 579 175 l 1,11,-1
 873 1489 l 1,12,-1
 1147 1489 l 1,0,-1
EndSplineSet
EndChar

StartChar: X
Encoding: 88 88 59
Width: 1404
GlyphClass: 2
Flags: HW
LayerCount: 2
Fore
SplineSet
314 0 m 1,0,-1
 96 0 l 1,1,-1
 593 800 l 1,2,-1
 98 1579 l 1,3,-1
 294 1579 l 1,4,-1
 702 923 l 1,5,-1
 1110 1579 l 1,6,-1
 1306 1579 l 1,7,-1
 811 800 l 1,8,-1
 1308 0 l 1,9,-1
 1090 0 l 1,10,-1
 702 626 l 1,11,12
 572 418 572 418 314 0 c 1,0,-1
EndSplineSet
EndChar

StartChar: Y
Encoding: 89 89 60
Width: 1383
GlyphClass: 2
Flags: HW
LayerCount: 2
Fore
SplineSet
696 677 m 1,0,-1
 1109 1579 l 1,1,-1
 1300 1579 l 1,2,-1
 786 485 l 1,3,-1
 786 0 l 1,4,-1
 596 0 l 1,5,-1
 596 485 l 1,6,-1
 82 1579 l 1,7,-1
 279 1579 l 1,8,9
 483 1119 483 1119 696 677 c 1,0,-1
EndSplineSet
EndChar

StartChar: Z
Encoding: 90 90 61
Width: 1270
GlyphClass: 2
Flags: HW
LayerCount: 2
Fore
SplineSet
1149 1579 m 1,0,-1
 1149 1419 l 1,1,-1
 316 143 l 1,2,-1
 1151 143 l 1,3,-1
 1151 0 l 1,4,-1
 119 0 l 1,5,-1
 119 180 l 1,6,-1
 948 1447 l 1,7,-1
 119 1447 l 1,8,-1
 119 1579 l 1,9,-1
 1149 1579 l 1,0,-1
EndSplineSet
EndChar

StartChar: bracketleft
Encoding: 91 91 62
Width: 900
GlyphClass: 2
Flags: HW
LayerCount: 2
Fore
SplineSet
121 1579 m 1,0,-1
 785 1579 l 1,1,-1
 785 1436 l 1,2,-1
 314 1436 l 1,3,-1
 314 143 l 1,4,-1
 785 143 l 1,5,-1
 785 0 l 1,6,-1
 121 0 l 1,7,-1
 121 1579 l 1,0,-1
EndSplineSet
EndChar

StartChar: backslash
Encoding: 92 92 63
Width: 714
GlyphClass: 2
Flags: HW
LayerCount: 2
Fore
SplineSet
125 1731 m 1,0,-1
 748 -114 l 1,1,-1
 588 -172 l 1,2,-1
 -33 1679 l 1,3,-1
 125 1731 l 1,0,-1
EndSplineSet
EndChar

StartChar: bracketright
Encoding: 93 93 64
Width: 900
GlyphClass: 2
Flags: HW
LayerCount: 2
Fore
SplineSet
116 1579 m 1,0,-1
 780 1579 l 1,1,-1
 780 0 l 1,2,-1
 116 0 l 1,3,-1
 116 143 l 1,4,-1
 587 143 l 1,5,-1
 587 1436 l 1,6,-1
 116 1436 l 1,7,-1
 116 1579 l 1,0,-1
EndSplineSet
EndChar

StartChar: asciicircum
Encoding: 94 94 65
Width: 877
GlyphClass: 2
Flags: HW
LayerCount: 2
Fore
SplineSet
438 809 m 1,0,-1
 226 432 l 1,1,-1
 98 510 l 1,2,-1
 390 1011 l 1,3,-1
 486 1011 l 1,4,-1
 778 510 l 1,5,-1
 650 432 l 1,6,-1
 438 809 l 1,0,-1
EndSplineSet
EndChar

StartChar: underscore
Encoding: 95 95 66
Width: 1187
GlyphClass: 2
Flags: HW
LayerCount: 2
Fore
SplineSet
1063 -111 m 1,0,-1
 123 -111 l 1,1,-1
 123 33 l 1,2,-1
 1063 33 l 1,3,-1
 1063 -111 l 1,0,-1
EndSplineSet
EndChar

StartChar: grave
Encoding: 96 96 67
Width: 458
GlyphClass: 2
Flags: HW
LayerCount: 2
Fore
SplineSet
424 356 m 1,0,-1
 357 330 l 1,1,-1
 29 885 l 1,2,-1
 271 974 l 1,3,-1
 424 356 l 1,0,-1
EndSplineSet
EndChar

StartChar: a
Encoding: 97 97 68
Width: 1193
GlyphClass: 2
Flags: HW
LayerCount: 2
Fore
SplineSet
549 117 m 0,0,1
 720 117 720 117 885 271 c 1,2,-1
 885 569 l 1,3,4
 754 590 754 590 660 590 c 128,-1,5
 566 590 566 590 522.5 585 c 128,-1,6
 479 580 479 580 435.5 565 c 128,-1,7
 392 550 392 550 364 525 c 0,8,9
 301 469 301 469 301 348.5 c 128,-1,10
 301 228 301 228 361 172.5 c 128,-1,11
 421 117 421 117 549 117 c 0,0,1
885 665 m 1,12,-1
 885 713 l 2,13,14
 884 931 884 931 814 991 c 0,15,16
 748 1047 748 1047 637 1047 c 0,17,18
 426 1047 426 1047 250 935 c 1,19,-1
 183 1057 l 1,20,21
 298 1122 298 1122 396.5 1156 c 128,-1,22
 495 1190 495 1190 618.5 1190 c 128,-1,23
 742 1190 742 1190 833 1162.5 c 128,-1,24
 924 1135 924 1135 978 1071 c 128,-1,25
 1032 1007 1032 1007 1053.5 916 c 128,-1,26
 1075 825 1075 825 1075 686 c 2,27,-1
 1075 0 l 1,28,-1
 935 0 l 1,29,-1
 907 178 l 1,30,31
 762 -20 762 -20 502 -20 c 0,32,33
 318 -20 318 -20 214 71.5 c 128,-1,34
 110 163 110 163 110 343 c 0,35,36
 110 532 110 532 244 627 c 0,37,38
 368 715 368 715 554 715 c 0,39,40
 623 715 623 715 725 700.5 c 128,-1,41
 827 686 827 686 885 665 c 1,12,-1
EndSplineSet
EndChar

StartChar: b
Encoding: 98 98 69
Width: 1252
GlyphClass: 2
Flags: HW
LayerCount: 2
Fore
SplineSet
662 -20 m 1,0,1
 560 -20 560 -20 464.5 35 c 128,-1,2
 369 90 369 90 294 178 c 1,3,-1
 266 0 l 1,4,-1
 126 0 l 1,5,-1
 126 1579 l 1,6,-1
 316 1614 l 1,7,-1
 316 1030 l 1,8,9
 383 1097 383 1097 480 1143.5 c 128,-1,10
 577 1190 577 1190 670.5 1190 c 128,-1,11
 764 1190 764 1190 846 1155 c 128,-1,12
 928 1120 928 1120 981.5 1062 c 0,13,14
 1036 1004 1036 1004 1072 924 c 0,15,16
 1140 775 1140 775 1140 580 c 0,17,18
 1140 270 1140 270 981 104 c 0,19,20
 863 -20 863 -20 662 -20 c 1,0,1
958 584 m 0,21,22
 958 1047 958 1047 671 1047 c 0,23,24
 585 1047 585 1047 482.5 1005 c 128,-1,25
 380 963 380 963 316 902 c 1,26,-1
 316 273 l 1,27,28
 474 117 474 117 671 117 c 0,29,30
 792 118 792 118 856 196 c 0,31,32
 919 274 919 274 934 353 c 0,33,34
 958 481 958 481 958 584 c 0,21,22
EndSplineSet
PairPos2: "'kern' Horizontal Kerning lookup 1 per glyph data 0" z dx=0 dy=0 dh=-49 dv=0 dx=0 dy=0 dh=0 dv=0
PairPos2: "'kern' Horizontal Kerning lookup 1 per glyph data 0" x dx=0 dy=0 dh=-60 dv=0 dx=0 dy=0 dh=0 dv=0
PairPos2: "'kern' Horizontal Kerning lookup 1 per glyph data 0" w dx=0 dy=0 dh=-46 dv=0 dx=0 dy=0 dh=0 dv=0
PairPos2: "'kern' Horizontal Kerning lookup 1 per glyph data 0" v dx=0 dy=0 dh=-17 dv=0 dx=0 dy=0 dh=0 dv=0
PairPos2: "'kern' Horizontal Kerning lookup 1 per glyph data 0" v dx=0 dy=0 dh=-46 dv=0 dx=0 dy=0 dh=0 dv=0
PairPos2: "'kern' Horizontal Kerning lookup 1 per glyph data 0" b dx=0 dy=0 dh=-27 dv=0 dx=0 dy=0 dh=0 dv=0
PairPos2: "'kern' Horizontal Kerning lookup 1 per glyph data 0" period dx=0 dy=0 dh=-90 dv=0 dx=0 dy=0 dh=0 dv=0
EndChar

StartChar: c
Encoding: 99 99 70
Width: 1115
GlyphClass: 2
Flags: HW
LayerCount: 2
Fore
SplineSet
310 717 m 128,-1,1
 301 654 301 654 301 542 c 128,-1,2
 301 430 301 430 341 322 c 0,3,4
 417 117 417 117 624 117 c 0,5,6
 825 117 825 117 953 245 c 1,7,-1
 1010 111 l 1,8,9
 823 -20 823 -20 619 -20 c 0,10,11
 492 -20 492 -20 392.5 28.5 c 0,12,13
 293 76 293 76 233 160 c 0,14,15
 111 330 111 330 111 580 c 0,16,17
 112 832 112 832 234 1006 c 0,18,19
 294 1092 294 1092 394 1141 c 128,-1,20
 494 1190 494 1190 622 1190 c 0,21,22
 823 1190 823 1190 1010 1057 c 1,23,-1
 953 924 l 1,24,25
 819 1040 819 1040 652 1040 c 128,-1,26
 485 1040 485 1040 403 945 c 0,27,28
 366 902 366 902 342.5 841 c 128,-1,0
 319 780 319 780 310 717 c 128,-1,1
EndSplineSet
EndChar

StartChar: d
Encoding: 100 100 71
Width: 1253
GlyphClass: 2
Flags: HW
LayerCount: 2
Fore
SplineSet
129.5 402 m 128,-1,1
 113 488 113 488 113 580.5 c 128,-1,2
 113 673 113 673 129 757 c 128,-1,3
 145 841 145 841 180.5 920.5 c 128,-1,4
 216 1000 216 1000 268 1059 c 0,5,6
 385 1190 385 1190 575 1190 c 0,7,8
 674 1190 674 1190 777.5 1145.5 c 128,-1,9
 881 1101 881 1101 940 1028 c 1,10,-1
 940 1614 l 1,11,-1
 1130 1579 l 1,12,-1
 1130 0 l 1,13,-1
 989 0 l 1,14,-1
 961 179 l 1,15,16
 895 94 895 94 796.5 37 c 128,-1,17
 698 -20 698 -20 596.5 -20 c 128,-1,18
 495 -20 495 -20 412.5 13.5 c 128,-1,19
 330 47 330 47 275 103.5 c 128,-1,20
 220 160 220 160 183 238 c 128,-1,0
 146 316 146 316 129.5 402 c 128,-1,1
587 1047 m 0,21,22
 295 1047 295 1047 295 582 c 128,-1,23
 295 117 295 117 593 117 c 0,24,25
 685 117 685 117 781.5 161 c 128,-1,26
 878 205 878 205 940 275 c 1,27,-1
 940 903 l 1,28,29
 751 1047 751 1047 587 1047 c 0,21,22
EndSplineSet
EndChar

StartChar: e
Encoding: 101 101 72
Width: 1182
GlyphClass: 2
Flags: HW
LayerCount: 2
Fore
SplineSet
903 717 m 2,0,1
 903 860 903 860 843 954 c 0,2,3
 777 1056 777 1056 629 1057 c 1,4,5
 336 1057 336 1057 304 682 c 1,6,-1
 903 682 l 1,7,-1
 903 717 l 2,0,1
300 563 m 1,8,9
 304 223 304 223 510 141 c 0,10,11
 570 117 570 117 649 117 c 0,12,13
 818 117 818 117 955 244 c 1,14,-1
 1017 99 l 1,15,16
 943 47 943 47 835.5 13.5 c 128,-1,17
 728 -20 728 -20 616.5 -20 c 128,-1,18
 505 -20 505 -20 403 26.5 c 0,19,20
 300 73 300 73 238 155 c 0,21,22
 112 320 112 320 113 578 c 0,23,24
 114 829 114 829 238 1003 c 0,25,26
 300 1089 300 1089 400 1139.5 c 128,-1,27
 500 1190 500 1190 619.5 1190 c 128,-1,28
 739 1190 739 1190 825.5 1149.5 c 128,-1,29
 912 1109 912 1109 965 1038 c 0,30,31
 1071 896 1071 896 1071 676 c 0,32,33
 1071 631 1071 631 1060 563 c 1,34,-1
 300 563 l 1,8,9
EndSplineSet
EndChar

StartChar: f
Encoding: 102 102 73
Width: 898
GlyphClass: 2
Flags: HW
LayerCount: 2
Fore
SplineSet
447 1324 m 1,0,-1
 452 1169 l 1,1,-1
 800 1169 l 1,2,-1
 800 1064 l 1,3,-1
 452 1064 l 1,4,-1
 452 0 l 1,5,-1
 262 0 l 1,6,-1
 262 1064 l 1,7,-1
 67 1064 l 1,8,-1
 67 1169 l 1,9,-1
 262 1169 l 1,10,11
 262 1370 262 1370 296 1468 c 0,12,13
 328 1562 328 1562 394 1606 c 0,14,15
 471 1658 471 1658 593 1659 c 0,16,17
 710 1659 710 1659 835 1567 c 1,18,-1
 772 1442 l 1,19,20
 690 1516 690 1516 627 1516 c 128,-1,21
 564 1516 564 1516 529 1501.5 c 128,-1,22
 494 1487 494 1487 476 1459 c 0,23,24
 446 1412 446 1412 447 1324 c 1,0,-1
EndSplineSet
EndChar

StartChar: g
Encoding: 103 103 74
Width: 1225
GlyphClass: 2
Flags: HW
LayerCount: 2
Fore
SplineSet
252.5 -178 m 128,-1,1
 265 -207 265 -207 290.5 -224.5 c 128,-1,2
 316 -242 316 -242 355.5 -259.5 c 128,-1,3
 395 -277 395 -277 539 -277 c 2,4,-1
 605 -277 l 2,5,6
 639 -277 639 -277 710 -274.5 c 0,7,8
 780 -272 780 -272 856 -243 c 0,9,10
 954 -206 954 -206 954 -111 c 0,11,12
 954 -15 954 -15 890 31 c 0,13,14
 827 76 827 76 659 76 c 2,15,-1
 337 76 l 1,16,17
 291 47 291 47 265.5 -3.5 c 128,-1,18
 240 -54 240 -54 240 -101.5 c 128,-1,0
 240 -149 240 -149 252.5 -178 c 128,-1,1
330.5 671.5 m 128,-1,20
 382 587 382 587 462 552 c 1,21,22
 515 552 515 552 651 583 c 0,23,24
 704 596 704 596 752 638 c 0,25,26
 822 699 822 699 822 860 c 0,27,28
 822 956 822 956 770 1004 c 0,29,30
 710 1058 710 1058 555 1058 c 0,31,32
 440 1058 440 1058 364 1014 c 0,33,34
 324 990 324 990 301.5 947 c 128,-1,35
 279 904 279 904 279 830 c 128,-1,19
 279 756 279 756 330.5 671.5 c 128,-1,20
575 217 m 1,36,37
 715 217 715 217 829 196 c 0,38,39
 894 184 894 184 943 161 c 128,-1,40
 992 138 992 138 1032.5 103.5 c 128,-1,41
 1073 69 1073 69 1094.5 15.5 c 128,-1,42
 1116 -38 1116 -38 1116 -110 c 128,-1,43
 1116 -182 1116 -182 1080.5 -241 c 128,-1,44
 1045 -300 1045 -300 991.5 -334 c 128,-1,45
 938 -368 938 -368 865 -390 c 128,-1,46
 792 -412 792 -412 726.5 -419.5 c 128,-1,47
 661 -427 661 -427 573 -427 c 0,48,49
 486 -427 486 -427 398 -416 c 0,50,51
 82 -376 82 -376 82 -125 c 0,52,53
 82 32 82 32 248 107 c 1,54,55
 195 143 195 143 162 200.5 c 128,-1,56
 129 258 129 258 129 327 c 128,-1,57
 129 396 129 396 183.5 452.5 c 128,-1,58
 238 509 238 509 315 521 c 1,59,60
 222 562 222 562 170 654.5 c 128,-1,61
 118 747 118 747 118 868.5 c 128,-1,62
 118 990 118 990 214 1074 c 0,63,64
 347 1190 347 1190 559 1190 c 0,65,66
 741 1190 741 1190 839 1114 c 1,67,68
 906 1149 906 1149 975.5 1159.5 c 128,-1,69
 1045 1170 1045 1170 1144 1171 c 1,70,-1
 1144 1026 l 1,71,-1
 906 1026 l 1,72,73
 989 977 989 977 989 803 c 0,74,75
 988 629 988 629 876 544 c 0,76,77
 826 506 826 506 761 480 c 128,-1,78
 696 454 696 454 628.5 444 c 128,-1,79
 561 434 561 434 496 424 c 128,-1,80
 431 414 431 414 380.5 405.5 c 128,-1,81
 330 397 330 397 299 376 c 128,-1,82
 268 355 268 355 268 317 c 128,-1,83
 268 279 268 279 289 210 c 1,84,-1
 575 217 l 1,36,37
EndSplineSet
EndChar

StartChar: h
Encoding: 104 104 75
Width: 1229
GlyphClass: 2
Flags: HW
LayerCount: 2
Fore
SplineSet
669 1047 m 0,0,1
 594 1047 594 1047 485.5 1001.5 c 128,-1,2
 377 956 377 956 313 888 c 1,3,-1
 313 0 l 1,4,-1
 123 0 l 1,5,-1
 123 1579 l 1,6,-1
 313 1616 l 1,7,-1
 313 1011 l 1,8,9
 405 1095 405 1095 497.5 1142.5 c 128,-1,10
 590 1190 590 1190 702 1190 c 0,11,12
 915 1190 915 1190 1012.5 1071.5 c 128,-1,13
 1110 953 1110 953 1110 727 c 2,14,-1
 1110 0 l 1,15,-1
 920 0 l 1,16,-1
 920 727 l 2,17,18
 920 905 920 905 854 982 c 0,19,20
 798 1047 798 1047 669 1047 c 0,0,1
EndSplineSet
EndChar

StartChar: i
Encoding: 105 105 76
Width: 468
GlyphClass: 2
Flags: HW
LayerCount: 2
Fore
SplineSet
324 0 m 1,0,-1
 142 0 l 1,1,-1
 142 1169 l 1,2,-1
 324 1169 l 1,3,-1
 324 0 l 1,0,-1
157.5 1543 m 128,-1,5
 190 1577 190 1577 237.5 1577 c 128,-1,6
 285 1577 285 1577 315 1543.5 c 128,-1,7
 345 1510 345 1510 345 1462 c 128,-1,8
 345 1414 345 1414 315 1380.5 c 128,-1,9
 285 1347 285 1347 237 1347 c 128,-1,10
 189 1347 189 1347 157 1380.5 c 128,-1,11
 125 1414 125 1414 125 1461.5 c 128,-1,4
 125 1509 125 1509 157.5 1543 c 128,-1,5
EndSplineSet
EndChar

StartChar: j
Encoding: 106 106 77
Width: 606
GlyphClass: 2
Flags: HW
LayerCount: 2
Fore
SplineSet
93 -258 m 1,0,1
 234 -166 234 -166 264 -26 c 0,2,3
 280 53 280 53 281 176 c 2,4,-1
 281 1169 l 1,5,-1
 471 1169 l 1,6,-1
 471 154 l 2,7,8
 471 -22 471 -22 395 -170 c 0,9,10
 357 -244 357 -244 291.5 -298 c 128,-1,11
 226 -352 226 -352 140 -373 c 1,12,-1
 93 -258 l 1,0,1
295.5 1543 m 128,-1,14
 328 1577 328 1577 375.5 1577 c 128,-1,15
 423 1577 423 1577 453 1543.5 c 128,-1,16
 483 1510 483 1510 483 1462 c 128,-1,17
 483 1414 483 1414 453 1380.5 c 128,-1,18
 423 1347 423 1347 375 1347 c 128,-1,19
 327 1347 327 1347 295 1380.5 c 128,-1,20
 263 1414 263 1414 263 1461.5 c 128,-1,13
 263 1509 263 1509 295.5 1543 c 128,-1,14
EndSplineSet
EndChar

StartChar: k
Encoding: 107 107 78
Width: 1213
GlyphClass: 2
Flags: HW
LayerCount: 2
Fore
SplineSet
1099 1169 m 1,0,-1
 546 648 l 1,1,-1
 1132 0 l 1,2,-1
 911 0 l 1,3,-1
 431 555 l 1,4,-1
 315 459 l 1,5,-1
 315 0 l 1,6,-1
 125 0 l 1,7,-1
 125 1579 l 1,8,-1
 315 1614 l 1,9,-1
 315 627 l 1,10,-1
 874 1169 l 1,11,-1
 1099 1169 l 1,0,-1
EndSplineSet
EndChar

StartChar: l
Encoding: 108 108 79
Width: 437
GlyphClass: 2
Flags: HW
LayerCount: 2
Fore
SplineSet
123 0 m 1,0,-1
 123 1579 l 1,1,-1
 313 1614 l 1,2,-1
 313 0 l 1,3,-1
 123 0 l 1,0,-1
EndSplineSet
EndChar

StartChar: m
Encoding: 109 109 80
Width: 1901
GlyphClass: 2
Flags: HW
LayerCount: 2
Fore
SplineSet
1005 967 m 1,0,1
 1074 1068 1074 1068 1188.5 1129 c 128,-1,2
 1303 1190 1303 1190 1409 1190 c 128,-1,3
 1515 1190 1515 1190 1585 1156 c 128,-1,4
 1655 1122 1655 1122 1697 1062 c 0,5,6
 1781 943 1781 943 1781 766 c 2,7,-1
 1781 0 l 1,8,-1
 1591 0 l 1,9,-1
 1591 768 l 2,10,11
 1592 928 1592 928 1540 990 c 0,12,13
 1493 1046 1493 1046 1397 1047 c 1,14,15
 1216 1047 1216 1047 1035 858 c 1,16,-1
 1035 0 l 1,17,-1
 845 0 l 1,18,-1
 845 768 l 2,19,20
 845 931 845 931 795 991 c 0,21,22
 748 1047 748 1047 653 1047 c 0,23,24
 500 1047 500 1047 313 860 c 1,25,-1
 313 0 l 1,26,-1
 123 0 l 1,27,-1
 123 1169 l 1,28,-1
 264 1169 l 1,29,-1
 291 963 l 1,30,31
 355 1065 355 1065 460.5 1127.5 c 128,-1,32
 566 1190 566 1190 682.5 1190 c 128,-1,33
 799 1190 799 1190 884.5 1132 c 128,-1,34
 970 1074 970 1074 1005 967 c 1,0,1
EndSplineSet
EndChar

StartChar: n
Encoding: 110 110 81
Width: 1227
GlyphClass: 2
Flags: HW
LayerCount: 2
Fore
SplineSet
313 880 m 1,0,-1
 313 0 l 1,1,-1
 123 0 l 1,2,-1
 123 1169 l 1,3,-1
 263 1169 l 1,4,-1
 287 982 l 1,5,6
 356 1069 356 1069 488.5 1128.5 c 128,-1,7
 621 1188 621 1188 728.5 1188 c 128,-1,8
 836 1188 836 1188 909.5 1151.5 c 128,-1,9
 983 1115 983 1115 1025 1050 c 0,10,11
 1107 923 1107 923 1107 727 c 2,12,-1
 1107 0 l 1,13,-1
 917 0 l 1,14,-1
 917 727 l 2,15,16
 916 902 916 902 854 980 c 0,17,18
 801 1046 801 1046 707 1046.5 c 128,-1,19
 613 1047 613 1047 495.5 993.5 c 128,-1,20
 378 940 378 940 313 880 c 1,0,-1
EndSplineSet
EndChar

StartChar: o
Encoding: 111 111 82
Width: 1285
GlyphClass: 2
Flags: HW
LayerCount: 2
Fore
SplineSet
294 582 m 128,-1,1
 294 509 294 509 304 445 c 128,-1,2
 314 381 314 381 339 319.5 c 128,-1,3
 364 258 364 258 402 214 c 0,4,5
 487 117 487 117 642 117 c 0,6,7
 866 116 866 116 946 318 c 0,8,9
 990 430 990 430 990 582 c 0,10,11
 990 932 990 932 782 1024 c 0,12,13
 721 1051 721 1051 642 1051 c 128,-1,14
 563 1051 563 1051 502 1024 c 128,-1,15
 441 997 441 997 402.5 952.5 c 128,-1,16
 364 908 364 908 339 846 c 128,-1,17
 314 784 314 784 304 719.5 c 128,-1,0
 294 655 294 655 294 582 c 128,-1,1
112 582 m 128,-1,19
 112 709 112 709 145 817.5 c 128,-1,20
 178 926 178 926 242 1010 c 128,-1,21
 306 1094 306 1094 408.5 1142 c 128,-1,22
 511 1190 511 1190 642 1190 c 128,-1,23
 773 1190 773 1190 876 1142 c 128,-1,24
 979 1094 979 1094 1043 1010.5 c 128,-1,25
 1107 927 1107 927 1140 818 c 128,-1,26
 1173 709 1173 709 1173 582 c 128,-1,27
 1173 455 1173 455 1140 347 c 128,-1,28
 1107 239 1107 239 1043 156.5 c 128,-1,29
 979 74 979 74 876 27 c 128,-1,30
 773 -20 773 -20 642 -20 c 128,-1,31
 511 -20 511 -20 408.5 27 c 128,-1,32
 306 74 306 74 242 156.5 c 128,-1,33
 178 239 178 239 145 347 c 128,-1,18
 112 455 112 455 112 582 c 128,-1,19
EndSplineSet
EndChar

StartChar: p
Encoding: 112 112 83
Width: 1256
GlyphClass: 2
Flags: HW
LayerCount: 2
Fore
SplineSet
674 -20 m 0,0,1
 574 -20 574 -20 479 30.5 c 128,-1,2
 384 81 384 81 316 164 c 1,3,-1
 316 -465 l 1,4,-1
 126 -487 l 1,5,-1
 126 1169 l 1,6,-1
 267 1169 l 1,7,-1
 300 971 l 1,8,9
 371 1066 371 1066 469 1128 c 128,-1,10
 567 1190 567 1190 670.5 1190 c 128,-1,11
 774 1190 774 1190 854.5 1155.5 c 128,-1,12
 935 1121 935 1121 988 1063 c 128,-1,13
 1041 1005 1041 1005 1077 926 c 0,14,15
 1144 779 1144 779 1144 584 c 0,16,17
 1144 281 1144 281 986 108 c 0,18,19
 870 -20 870 -20 674 -20 c 0,0,1
953.5 416.5 m 128,-1,21
 962 475 962 475 962 536.5 c 128,-1,22
 962 598 962 598 958.5 647.5 c 128,-1,23
 955 697 955 697 945 758 c 128,-1,24
 935 819 935 819 914.5 867.5 c 128,-1,25
 894 916 894 916 864 958 c 0,26,27
 799 1047 799 1047 675 1047 c 0,28,29
 592 1047 592 1047 483 999 c 128,-1,30
 374 951 374 951 316 890 c 1,31,-1
 316 285 l 1,32,33
 365 223 365 223 472.5 170 c 128,-1,34
 580 117 580 117 653 117 c 128,-1,35
 726 117 726 117 780.5 141.5 c 128,-1,36
 835 166 835 166 868.5 205.5 c 128,-1,37
 902 245 902 245 923.5 301.5 c 128,-1,20
 945 358 945 358 953.5 416.5 c 128,-1,21
EndSplineSet
EndChar

StartChar: q
Encoding: 113 113 84
Width: 1245
GlyphClass: 2
Flags: HW
LayerCount: 2
Fore
SplineSet
391 1155 m 128,-1,1
 471 1190 471 1190 575 1190 c 128,-1,2
 679 1190 679 1190 784.5 1127.5 c 128,-1,3
 890 1065 890 1065 953 971 c 1,4,-1
 987 1169 l 1,5,-1
 1126 1169 l 1,6,-1
 1126 -479 l 1,7,-1
 936 -502 l 1,8,-1
 936 164 l 1,9,10
 871 81 871 81 776 30.5 c 128,-1,11
 681 -20 681 -20 581 -20 c 128,-1,12
 481 -20 481 -20 400.5 14.5 c 128,-1,13
 320 49 320 49 267 107 c 128,-1,14
 214 165 214 165 177.5 243.5 c 128,-1,15
 141 322 141 322 125 407 c 128,-1,16
 109 492 109 492 109 584 c 128,-1,17
 109 676 109 676 123.5 760.5 c 128,-1,18
 138 845 138 845 173 924 c 128,-1,19
 208 1003 208 1003 259.5 1061.5 c 128,-1,0
 311 1120 311 1120 391 1155 c 128,-1,1
291 584 m 0,20,21
 292 239 292 239 456 147 c 0,22,23
 510 117 510 117 588 117 c 128,-1,24
 666 117 666 117 770.5 161 c 128,-1,25
 875 205 875 205 936 268 c 1,26,-1
 936 891 l 1,27,28
 872 955 872 955 765.5 1001 c 128,-1,29
 659 1047 659 1047 570 1047 c 0,30,31
 291 1047 291 1047 291 584 c 0,20,21
EndSplineSet
EndChar

StartChar: r
Encoding: 114 114 85
Width: 831
GlyphClass: 2
Flags: HW
LayerCount: 2
Fore
SplineSet
618 1190 m 0,0,1
 675 1190 675 1190 718 1178 c 1,2,-1
 718 1026 l 1,3,4
 698 1030 698 1030 638 1030 c 0,5,6
 578 1030 578 1030 473.5 988.5 c 128,-1,7
 369 947 369 947 313 894 c 1,8,-1
 313 0 l 1,9,-1
 123 0 l 1,10,-1
 123 1169 l 1,11,-1
 266 1169 l 1,12,-1
 296 977 l 1,13,14
 460 1190 460 1190 618 1190 c 0,0,1
EndSplineSet
EndChar

StartChar: s
Encoding: 115 115 86
Width: 1007
GlyphClass: 2
Flags: HW
LayerCount: 2
Fore
SplineSet
99 100 m 1,0,-1
 163 245 l 1,1,2
 227 190 227 190 318.5 153.5 c 128,-1,3
 410 117 410 117 473 117 c 128,-1,4
 536 117 536 117 578 126 c 0,5,6
 620 136 620 136 660 156 c 0,7,8
 748 201 748 201 749 314 c 0,9,10
 749 431 749 431 618 485 c 0,11,12
 560 509 560 509 489.5 528.5 c 128,-1,13
 419 548 419 548 348.5 573 c 128,-1,14
 278 598 278 598 220 633.5 c 128,-1,15
 162 669 162 669 125.5 734.5 c 128,-1,16
 89 800 89 800 89 883.5 c 128,-1,17
 89 967 89 967 125 1026.5 c 128,-1,18
 161 1086 161 1086 220 1120 c 0,19,20
 339 1190 339 1190 486 1190 c 0,21,22
 569 1190 569 1190 689.5 1153 c 128,-1,23
 810 1116 810 1116 868 1067 c 1,24,-1
 806 924 l 1,25,26
 660 1042 660 1042 497 1042 c 0,27,28
 249 1042 249 1042 249 880 c 0,29,30
 248 794 248 794 382 745 c 0,31,32
 442 723 442 723 513.5 701.5 c 128,-1,33
 585 680 585 680 656.5 650 c 128,-1,34
 728 620 728 620 787.5 579.5 c 128,-1,35
 847 539 847 539 884 469.5 c 128,-1,36
 921 400 921 400 921 310.5 c 128,-1,37
 921 221 921 221 883 155 c 0,38,39
 844 89 844 89 780 52 c 0,40,41
 654 -20 654 -20 483 -20 c 1,42,43
 397 -20 397 -20 278.5 15.5 c 128,-1,44
 160 51 160 51 99 100 c 1,0,-1
EndSplineSet
EndChar

StartChar: t
Encoding: 116 116 87
Width: 915
GlyphClass: 2
Flags: HW
LayerCount: 2
Fore
SplineSet
815 40 m 1,0,1
 701 -14 701 -14 570 -14 c 0,2,3
 439 -14 439 -14 359 72.5 c 128,-1,4
 279 159 279 159 279 300 c 2,5,-1
 279 1065 l 1,6,-1
 96 1065 l 1,7,-1
 96 1169 l 1,8,-1
 307 1169 l 1,9,-1
 307 1530 l 1,10,-1
 469 1576 l 1,11,-1
 469 1169 l 1,12,-1
 802 1169 l 1,13,-1
 802 1065 l 1,14,-1
 469 1065 l 1,15,-1
 469 298 l 2,16,17
 469 224 469 224 504.5 174.5 c 128,-1,18
 540 125 540 125 614 125 c 0,19,20
 688 125 688 125 779 169 c 1,21,-1
 815 40 l 1,0,1
EndSplineSet
EndChar

StartChar: u
Encoding: 117 117 88
Width: 1210
GlyphClass: 2
Flags: HW
LayerCount: 2
Fore
SplineSet
543 117 m 0,0,1
 737 117 737 117 897 274 c 1,2,-1
 897 1169 l 1,3,-1
 1087 1169 l 1,4,-1
 1087 0 l 1,5,-1
 946 0 l 1,6,-1
 919 176 l 1,7,8
 745 -20 745 -20 532.5 -20 c 128,-1,9
 320 -20 320 -20 220.5 101.5 c 128,-1,10
 121 223 121 223 121 442 c 2,11,-1
 121 1169 l 1,12,-1
 311 1169 l 1,13,-1
 311 442 l 2,14,15
 312 208 312 208 426 144 c 0,16,17
 474 118 474 118 543 117 c 0,0,1
EndSplineSet
EndChar

StartChar: v
Encoding: 118 118 89
Width: 1229
GlyphClass: 2
Flags: HW
LayerCount: 2
Fore
SplineSet
707 0 m 1,0,-1
 521 0 l 1,1,-1
 93 1169 l 1,2,-1
 281 1169 l 1,3,-1
 617 199 l 1,4,-1
 947 1169 l 1,5,-1
 1137 1169 l 1,6,-1
 707 0 l 1,0,-1
EndSplineSet
PairPos2: "'kern' Horizontal Kerning lookup 1 per glyph data 0" oe dx=0 dy=0 dh=-50 dv=0 dx=0 dy=0 dh=0 dv=0
PairPos2: "'kern' Horizontal Kerning lookup 1 per glyph data 0" oslash dx=0 dy=0 dh=-50 dv=0 dx=0 dy=0 dh=0 dv=0
PairPos2: "'kern' Horizontal Kerning lookup 1 per glyph data 0" odieresis dx=0 dy=0 dh=-50 dv=0 dx=0 dy=0 dh=0 dv=0
PairPos2: "'kern' Horizontal Kerning lookup 1 per glyph data 0" otilde dx=0 dy=0 dh=-50 dv=0 dx=0 dy=0 dh=0 dv=0
PairPos2: "'kern' Horizontal Kerning lookup 1 per glyph data 0" ocircumflex dx=0 dy=0 dh=-50 dv=0 dx=0 dy=0 dh=0 dv=0
PairPos2: "'kern' Horizontal Kerning lookup 1 per glyph data 0" oacute dx=0 dy=0 dh=-50 dv=0 dx=0 dy=0 dh=0 dv=0
PairPos2: "'kern' Horizontal Kerning lookup 1 per glyph data 0" ograve dx=0 dy=0 dh=-50 dv=0 dx=0 dy=0 dh=0 dv=0
PairPos2: "'kern' Horizontal Kerning lookup 1 per glyph data 0" edieresis dx=0 dy=0 dh=-50 dv=0 dx=0 dy=0 dh=0 dv=0
PairPos2: "'kern' Horizontal Kerning lookup 1 per glyph data 0" ecircumflex dx=0 dy=0 dh=-50 dv=0 dx=0 dy=0 dh=0 dv=0
PairPos2: "'kern' Horizontal Kerning lookup 1 per glyph data 0" eacute dx=0 dy=0 dh=-50 dv=0 dx=0 dy=0 dh=0 dv=0
PairPos2: "'kern' Horizontal Kerning lookup 1 per glyph data 0" egrave dx=0 dy=0 dh=-50 dv=0 dx=0 dy=0 dh=0 dv=0
PairPos2: "'kern' Horizontal Kerning lookup 1 per glyph data 0" ae dx=0 dy=0 dh=-50 dv=0 dx=0 dy=0 dh=0 dv=0
PairPos2: "'kern' Horizontal Kerning lookup 1 per glyph data 0" q dx=0 dy=0 dh=-50 dv=0 dx=0 dy=0 dh=0 dv=0
PairPos2: "'kern' Horizontal Kerning lookup 1 per glyph data 0" q dx=0 dy=0 dh=-37 dv=0 dx=0 dy=0 dh=0 dv=0
PairPos2: "'kern' Horizontal Kerning lookup 1 per glyph data 0" o dx=0 dy=0 dh=-50 dv=0 dx=0 dy=0 dh=0 dv=0
PairPos2: "'kern' Horizontal Kerning lookup 1 per glyph data 0" e dx=0 dy=0 dh=-50 dv=0 dx=0 dy=0 dh=0 dv=0
PairPos2: "'kern' Horizontal Kerning lookup 1 per glyph data 0" d dx=0 dy=0 dh=-39 dv=0 dx=0 dy=0 dh=0 dv=0
PairPos2: "'kern' Horizontal Kerning lookup 1 per glyph data 0" d dx=0 dy=0 dh=-50 dv=0 dx=0 dy=0 dh=0 dv=0
PairPos2: "'kern' Horizontal Kerning lookup 1 per glyph data 0" c dx=0 dy=0 dh=-50 dv=0 dx=0 dy=0 dh=0 dv=0
PairPos2: "'kern' Horizontal Kerning lookup 1 per glyph data 0" a dx=0 dy=0 dh=-23 dv=0 dx=0 dy=0 dh=0 dv=0
PairPos2: "'kern' Horizontal Kerning lookup 1 per glyph data 0" comma dx=0 dy=0 dh=-120 dv=0 dx=0 dy=0 dh=0 dv=0
PairPos2: "'kern' Horizontal Kerning lookup 1 per glyph data 0" .notdef dx=0 dy=0 dh=-50 dv=0 dx=0 dy=0 dh=0 dv=0
EndChar

StartChar: w
Encoding: 119 119 90
Width: 1751
GlyphClass: 2
Flags: HW
LayerCount: 2
Fore
SplineSet
876 996 m 1,0,-1
 628 0 l 1,1,-1
 422 0 l 1,2,-1
 93 1169 l 1,3,-1
 277 1169 l 1,4,-1
 527 153 l 1,5,-1
 778 1169 l 1,6,-1
 980 1169 l 1,7,-1
 1243 151 l 1,8,-1
 1477 1169 l 1,9,-1
 1656 1169 l 1,10,-1
 1336 0 l 1,11,-1
 1130 0 l 1,12,-1
 876 996 l 1,0,-1
EndSplineSet
PairPos2: "'kern' Horizontal Kerning lookup 1 per glyph data 0" oe dx=0 dy=0 dh=-50 dv=0 dx=0 dy=0 dh=0 dv=0
PairPos2: "'kern' Horizontal Kerning lookup 1 per glyph data 0" oslash dx=0 dy=0 dh=-50 dv=0 dx=0 dy=0 dh=0 dv=0
PairPos2: "'kern' Horizontal Kerning lookup 1 per glyph data 0" odieresis dx=0 dy=0 dh=-50 dv=0 dx=0 dy=0 dh=0 dv=0
PairPos2: "'kern' Horizontal Kerning lookup 1 per glyph data 0" otilde dx=0 dy=0 dh=-50 dv=0 dx=0 dy=0 dh=0 dv=0
PairPos2: "'kern' Horizontal Kerning lookup 1 per glyph data 0" ocircumflex dx=0 dy=0 dh=-50 dv=0 dx=0 dy=0 dh=0 dv=0
PairPos2: "'kern' Horizontal Kerning lookup 1 per glyph data 0" oacute dx=0 dy=0 dh=-50 dv=0 dx=0 dy=0 dh=0 dv=0
PairPos2: "'kern' Horizontal Kerning lookup 1 per glyph data 0" ograve dx=0 dy=0 dh=-50 dv=0 dx=0 dy=0 dh=0 dv=0
PairPos2: "'kern' Horizontal Kerning lookup 1 per glyph data 0" edieresis dx=0 dy=0 dh=-50 dv=0 dx=0 dy=0 dh=0 dv=0
PairPos2: "'kern' Horizontal Kerning lookup 1 per glyph data 0" ecircumflex dx=0 dy=0 dh=-50 dv=0 dx=0 dy=0 dh=0 dv=0
PairPos2: "'kern' Horizontal Kerning lookup 1 per glyph data 0" eacute dx=0 dy=0 dh=-50 dv=0 dx=0 dy=0 dh=0 dv=0
PairPos2: "'kern' Horizontal Kerning lookup 1 per glyph data 0" egrave dx=0 dy=0 dh=-50 dv=0 dx=0 dy=0 dh=0 dv=0
PairPos2: "'kern' Horizontal Kerning lookup 1 per glyph data 0" ae dx=0 dy=0 dh=-50 dv=0 dx=0 dy=0 dh=0 dv=0
PairPos2: "'kern' Horizontal Kerning lookup 1 per glyph data 0" q dx=0 dy=0 dh=-50 dv=0 dx=0 dy=0 dh=0 dv=0
PairPos2: "'kern' Horizontal Kerning lookup 1 per glyph data 0" q dx=0 dy=0 dh=-41 dv=0 dx=0 dy=0 dh=0 dv=0
PairPos2: "'kern' Horizontal Kerning lookup 1 per glyph data 0" o dx=0 dy=0 dh=-50 dv=0 dx=0 dy=0 dh=0 dv=0
PairPos2: "'kern' Horizontal Kerning lookup 1 per glyph data 0" e dx=0 dy=0 dh=-50 dv=0 dx=0 dy=0 dh=0 dv=0
PairPos2: "'kern' Horizontal Kerning lookup 1 per glyph data 0" d dx=0 dy=0 dh=-50 dv=0 dx=0 dy=0 dh=0 dv=0
PairPos2: "'kern' Horizontal Kerning lookup 1 per glyph data 0" d dx=0 dy=0 dh=-55 dv=0 dx=0 dy=0 dh=0 dv=0
PairPos2: "'kern' Horizontal Kerning lookup 1 per glyph data 0" c dx=0 dy=0 dh=-50 dv=0 dx=0 dy=0 dh=0 dv=0
PairPos2: "'kern' Horizontal Kerning lookup 1 per glyph data 0" a dx=0 dy=0 dh=-23 dv=0 dx=0 dy=0 dh=0 dv=0
PairPos2: "'kern' Horizontal Kerning lookup 1 per glyph data 0" period dx=0 dy=0 dh=-70 dv=0 dx=0 dy=0 dh=0 dv=0
PairPos2: "'kern' Horizontal Kerning lookup 1 per glyph data 0" comma dx=0 dy=0 dh=-120 dv=0 dx=0 dy=0 dh=0 dv=0
PairPos2: "'kern' Horizontal Kerning lookup 1 per glyph data 0" .notdef dx=0 dy=0 dh=-50 dv=0 dx=0 dy=0 dh=0 dv=0
EndChar

StartChar: x
Encoding: 120 120 91
Width: 1183
GlyphClass: 2
Flags: HW
LayerCount: 2
Fore
SplineSet
92 1169 m 1,0,-1
 308 1169 l 1,1,-1
 590 702 l 1,2,-1
 880 1169 l 1,3,-1
 1090 1169 l 1,4,-1
 684 584 l 1,5,-1
 1082 0 l 1,6,-1
 878 0 l 1,7,-1
 596 477 l 1,8,-1
 308 0 l 1,9,-1
 96 0 l 1,10,-1
 504 584 l 1,11,-1
 92 1169 l 1,0,-1
EndSplineSet
PairPos2: "'kern' Horizontal Kerning lookup 1 per glyph data 0" oe dx=0 dy=0 dh=-60 dv=0 dx=0 dy=0 dh=0 dv=0
PairPos2: "'kern' Horizontal Kerning lookup 1 per glyph data 0" oslash dx=0 dy=0 dh=-60 dv=0 dx=0 dy=0 dh=0 dv=0
PairPos2: "'kern' Horizontal Kerning lookup 1 per glyph data 0" odieresis dx=0 dy=0 dh=-60 dv=0 dx=0 dy=0 dh=0 dv=0
PairPos2: "'kern' Horizontal Kerning lookup 1 per glyph data 0" otilde dx=0 dy=0 dh=-60 dv=0 dx=0 dy=0 dh=0 dv=0
PairPos2: "'kern' Horizontal Kerning lookup 1 per glyph data 0" ocircumflex dx=0 dy=0 dh=-60 dv=0 dx=0 dy=0 dh=0 dv=0
PairPos2: "'kern' Horizontal Kerning lookup 1 per glyph data 0" oacute dx=0 dy=0 dh=-60 dv=0 dx=0 dy=0 dh=0 dv=0
PairPos2: "'kern' Horizontal Kerning lookup 1 per glyph data 0" ograve dx=0 dy=0 dh=-60 dv=0 dx=0 dy=0 dh=0 dv=0
PairPos2: "'kern' Horizontal Kerning lookup 1 per glyph data 0" edieresis dx=0 dy=0 dh=-60 dv=0 dx=0 dy=0 dh=0 dv=0
PairPos2: "'kern' Horizontal Kerning lookup 1 per glyph data 0" ecircumflex dx=0 dy=0 dh=-60 dv=0 dx=0 dy=0 dh=0 dv=0
PairPos2: "'kern' Horizontal Kerning lookup 1 per glyph data 0" eacute dx=0 dy=0 dh=-60 dv=0 dx=0 dy=0 dh=0 dv=0
PairPos2: "'kern' Horizontal Kerning lookup 1 per glyph data 0" egrave dx=0 dy=0 dh=-60 dv=0 dx=0 dy=0 dh=0 dv=0
PairPos2: "'kern' Horizontal Kerning lookup 1 per glyph data 0" ae dx=0 dy=0 dh=-60 dv=0 dx=0 dy=0 dh=0 dv=0
PairPos2: "'kern' Horizontal Kerning lookup 1 per glyph data 0" q dx=0 dy=0 dh=-60 dv=0 dx=0 dy=0 dh=0 dv=0
PairPos2: "'kern' Horizontal Kerning lookup 1 per glyph data 0" o dx=0 dy=0 dh=-60 dv=0 dx=0 dy=0 dh=0 dv=0
PairPos2: "'kern' Horizontal Kerning lookup 1 per glyph data 0" e dx=0 dy=0 dh=-60 dv=0 dx=0 dy=0 dh=0 dv=0
PairPos2: "'kern' Horizontal Kerning lookup 1 per glyph data 0" d dx=0 dy=0 dh=-60 dv=0 dx=0 dy=0 dh=0 dv=0
PairPos2: "'kern' Horizontal Kerning lookup 1 per glyph data 0" d dx=0 dy=0 dh=-24 dv=0 dx=0 dy=0 dh=0 dv=0
PairPos2: "'kern' Horizontal Kerning lookup 1 per glyph data 0" c dx=0 dy=0 dh=-60 dv=0 dx=0 dy=0 dh=0 dv=0
PairPos2: "'kern' Horizontal Kerning lookup 1 per glyph data 0" .notdef dx=0 dy=0 dh=-60 dv=0 dx=0 dy=0 dh=0 dv=0
EndChar

StartChar: y
Encoding: 121 121 92
Width: 1209
GlyphClass: 2
Flags: HW
LayerCount: 2
Fore
SplineSet
624 249 m 1,0,-1
 925 1169 l 1,1,-1
 1120 1169 l 1,2,-1
 683 -37 l 2,3,4
 666 -83 666 -83 656 -110.5 c 128,-1,5
 646 -138 646 -138 628 -179.5 c 128,-1,6
 610 -221 610 -221 596 -246 c 128,-1,7
 582 -271 582 -271 560.5 -304 c 128,-1,8
 539 -337 539 -337 517.5 -357 c 128,-1,9
 496 -377 496 -377 467 -398.5 c 128,-1,10
 438 -420 438 -420 406 -432 c 0,11,12
 334 -459 334 -459 249 -459 c 1,13,-1
 198 -334 l 1,14,15
 326 -310 326 -310 399 -252 c 0,16,17
 476 -191 476 -191 538 23 c 1,18,-1
 87 1169 l 1,19,-1
 269 1169 l 1,20,-1
 624 249 l 1,0,-1
EndSplineSet
EndChar

StartChar: z
Encoding: 122 122 93
Width: 1034
GlyphClass: 2
Flags: HW
LayerCount: 2
Fore
SplineSet
916 1169 m 1,0,-1
 916 1004 l 1,1,-1
 290 145 l 1,2,-1
 916 145 l 1,3,-1
 916 0 l 1,4,-1
 114 0 l 1,5,-1
 114 166 l 1,6,-1
 752 1029 l 1,7,-1
 144 1029 l 1,8,-1
 144 1169 l 1,9,-1
 916 1169 l 1,0,-1
EndSplineSet
EndChar

StartChar: braceleft
Encoding: 123 123 94
Width: 766
GlyphClass: 2
Flags: HW
LayerCount: 2
Fore
SplineSet
57 571 m 1,0,-1
 57 759 l 1,1,-1
 58 759 l 2,2,3
 200 760 200 760 248 858 c 0,4,5
 270 904 270 904 281 962 c 128,-1,6
 292 1020 292 1020 297.5 1084.5 c 0,7,8
 303 1150 303 1150 311 1214 c 0,9,10
 328 1352 328 1352 406 1440 c 0,11,12
 493 1538 493 1538 703 1539 c 2,13,-1
 704 1539 l 1,14,-1
 705 1370 l 1,15,-1
 702 1370 l 2,16,17
 561 1370 561 1370 512 1294 c 0,18,19
 489 1258 489 1258 478.5 1213 c 128,-1,20
 468 1168 468 1168 466 1115 c 128,-1,21
 464 1062 464 1062 460 972.5 c 128,-1,22
 456 883 456 883 416 802 c 0,23,24
 366 702 366 702 224 665 c 1,25,26
 366 628 366 628 416 528 c 0,27,28
 438 483 438 483 449 427 c 128,-1,29
 460 371 460 371 466 215 c 0,30,31
 470 100 470 100 512 36 c 0,32,33
 561 -40 561 -40 702 -40 c 2,34,-1
 705 -40 l 1,35,-1
 704 -209 l 1,36,-1
 703 -209 l 2,37,38
 493 -208 493 -208 406 -110 c 0,39,40
 366 -64 366 -64 342.5 -6 c 128,-1,41
 319 52 319 52 311 116.5 c 128,-1,42
 303 181 303 181 294 289 c 0,43,44
 285 396 285 396 248 472 c 0,45,46
 200 570 200 570 58 571 c 2,47,-1
 57 571 l 1,0,-1
EndSplineSet
EndChar

StartChar: bar
Encoding: 124 124 95
Width: 436
GlyphClass: 2
Flags: HW
LayerCount: 2
Fore
SplineSet
129 -111 m 1,0,-1
 129 1696 l 1,1,-1
 307 1696 l 1,2,-1
 307 -111 l 1,3,-1
 129 -111 l 1,0,-1
EndSplineSet
EndChar

StartChar: braceright
Encoding: 125 125 96
Width: 766
GlyphClass: 2
Flags: HW
LayerCount: 2
Fore
SplineSet
710 571 m 1,0,-1
 709 571 l 2,1,2
 567 570 567 570 519 472 c 0,3,4
 482 396 482 396 473 288.5 c 128,-1,5
 464 181 464 181 456 116.5 c 128,-1,6
 448 52 448 52 424.5 -6.5 c 0,7,8
 401 -64 401 -64 361 -110 c 0,9,10
 274 -208 274 -208 64 -209 c 2,11,-1
 63 -209 l 1,12,-1
 62 -40 l 1,13,-1
 65 -40 l 2,14,15
 206 -40 206 -40 255 36 c 0,16,17
 297 100 297 100 301 215 c 0,18,19
 307 371 307 371 318 427 c 0,20,21
 330 483 330 483 352 528 c 0,22,23
 402 628 402 628 543 665 c 1,24,25
 402 702 402 702 352 802 c 0,26,27
 311 885 311 885 307 973.5 c 128,-1,28
 303 1062 303 1062 300.5 1115 c 128,-1,29
 298 1168 298 1168 287.5 1213.5 c 0,30,31
 276 1258 276 1258 254 1294 c 0,32,33
 206 1370 206 1370 65 1370 c 2,34,-1
 62 1370 l 1,35,-1
 63 1539 l 1,36,-1
 64 1539 l 2,37,38
 274 1538 274 1538 361 1440 c 0,39,40
 439 1352 439 1352 456 1214 c 0,41,42
 464 1150 464 1150 469.5 1085 c 128,-1,43
 475 1020 475 1020 486 961.5 c 0,44,45
 497 904 497 904 519 858 c 0,46,47
 567 760 567 760 709 759 c 2,48,-1
 710 759 l 1,49,-1
 710 571 l 1,0,-1
EndSplineSet
EndChar

StartChar: asciitilde
Encoding: 126 126 97
Width: 972
GlyphClass: 2
Flags: HW
LayerCount: 2
Fore
SplineSet
410 480 m 0,0,1
 352 510 352 510 327 509.5 c 128,-1,2
 302 509 302 509 288.5 498 c 0,3,4
 274 487 274 487 270 466 c 0,5,6
 262 431 262 431 263 394 c 1,7,-1
 107 394 l 1,8,9
 107 654 107 654 308 654 c 0,10,11
 400 654 400 654 496 591.5 c 128,-1,12
 592 529 592 529 651.5 529 c 128,-1,13
 711 529 711 529 711 640 c 1,14,-1
 867 640 l 1,15,16
 867 539 867 539 818.5 464.5 c 128,-1,17
 770 390 770 390 678.5 390 c 128,-1,18
 587 390 587 390 410 480 c 0,0,1
EndSplineSet
EndChar

StartChar: exclamdown
Encoding: 161 161 99
Width: 410
GlyphClass: 2
Flags: HW
LayerCount: 2
Fore
SplineSet
281 1393 m 1,0,-1
 72 1393 l 1,1,-1
 72 1595 l 1,2,-1
 281 1595 l 1,3,-1
 281 1393 l 1,0,-1
296 1180 m 1,4,-1
 296 0 l 1,5,-1
 122 0 l 1,6,-1
 122 1180 l 1,7,-1
 296 1180 l 1,4,-1
EndSplineSet
EndChar

StartChar: cent
Encoding: 162 162 100
Width: 1014
GlyphClass: 2
Flags: HW
LayerCount: 2
Fore
SplineSet
962 1077 m 1,0,1
 905 944 l 1,2,3
 779 1036 779 1036 640 1038 c 1,4,-1
 640 130 l 1,5,6
 781 130 781 130 905 205 c 1,7,-1
 951 68 l 1,8,9
 783 -17 783 -17 640 -19 c 1,10,-1
 640 -159 l 1,11,-1
 537 -159 l 1,12,-1
 537 -22 l 1,13,14
 416 -15 416 -15 323 36.5 c 128,-1,15
 230 88 230 88 174 172 c 0,16,17
 62 340 62 340 63 580 c 0,18,19
 63 825 63 825 174 990 c 0,20,21
 292 1165 292 1165 537 1189 c 1,22,-1
 537 1329 l 1,23,-1
 640 1329 l 1,24,-1
 640 1186 l 1,25,26
 786 1184 786 1184 962 1077 c 1,0,1
537 129 m 1,27,-1
 537 1037 l 1,28,29
 253 1001 253 1001 253 580 c 0,30,31
 253 444 253 444 287 344 c 0,32,33
 353 148 353 148 537 129 c 1,27,-1
EndSplineSet
EndChar

StartChar: sterling
Encoding: 163 163 101
Width: 1009
GlyphClass: 2
Flags: HW
LayerCount: 2
Fore
SplineSet
116 126 m 1,0,1
 184 202 184 202 221 342 c 128,-1,2
 258 482 258 482 258 603 c 1,3,-1
 61 603 l 1,4,-1
 61 706 l 1,5,-1
 233 706 l 1,6,7
 185 743 185 743 151.5 818 c 128,-1,8
 118 893 118 893 118 975.5 c 128,-1,9
 118 1058 118 1058 173 1143 c 128,-1,10
 228 1228 228 1228 317.5 1275 c 128,-1,11
 407 1322 407 1322 515 1322 c 128,-1,12
 623 1322 623 1322 744.5 1296.5 c 128,-1,13
 866 1271 866 1271 948 1219 c 1,14,-1
 898 1088 l 1,15,16
 709 1180 709 1180 568 1180 c 0,17,18
 300 1180 300 1180 300 959 c 0,19,20
 300 829 300 829 416 706 c 1,21,-1
 844 706 l 1,22,-1
 844 603 l 1,23,-1
 416 603 l 1,24,25
 416 482 416 482 386 347.5 c 128,-1,26
 356 213 356 213 297 132 c 1,27,-1
 913 132 l 1,28,-1
 913 0 l 1,29,-1
 116 0 l 1,30,-1
 116 126 l 1,0,1
EndSplineSet
EndChar

StartChar: currency
Encoding: 164 164 102
Width: 1180
GlyphClass: 2
Flags: HW
LayerCount: 2
Fore
SplineSet
394 1178.5 m 128,-1,1
 306 1091 306 1091 306 978 c 128,-1,2
 306 865 306 865 388.5 782 c 128,-1,3
 471 699 471 699 582.5 699 c 128,-1,4
 694 699 694 699 783 788.5 c 128,-1,5
 872 878 872 878 872 990 c 128,-1,6
 872 1102 872 1102 790 1184 c 128,-1,7
 708 1266 708 1266 595 1266 c 128,-1,0
 482 1266 482 1266 394 1178.5 c 128,-1,1
231 742 m 1,8,9
 163 846 163 846 163 971.5 c 128,-1,10
 163 1097 163 1097 238 1208 c 1,11,-1
 44 1402 l 1,12,-1
 168 1526 l 1,13,-1
 362 1333 l 1,14,15
 474 1409 474 1409 600 1409 c 128,-1,16
 726 1409 726 1409 830 1341 c 1,17,-1
 1016 1526 l 1,18,-1
 1140 1402 l 1,19,-1
 953 1215 l 1,20,21
 1014 1118 1014 1118 1014 993.5 c 128,-1,22
 1014 869 1014 869 938 757 c 1,23,-1
 1140 555 l 1,24,-1
 1016 430 l 1,25,-1
 813 633 l 1,26,27
 704 558 704 558 579 558 c 128,-1,28
 454 558 454 558 357 619 c 1,29,-1
 168 430 l 1,30,-1
 44 555 l 1,31,-1
 231 742 l 1,8,9
EndSplineSet
EndChar

StartChar: yen
Encoding: 165 165 103
Width: 1060
GlyphClass: 2
Flags: HW
LayerCount: 2
Fore
SplineSet
398 688 m 1,0,-1
 -85 1579 l 1,1,-1
 109 1579 l 1,2,-1
 529 788 l 1,3,-1
 949 1579 l 1,4,-1
 1143 1579 l 1,5,-1
 662 688 l 1,6,-1
 925 688 l 1,7,-1
 925 584 l 1,8,-1
 629 584 l 1,9,-1
 629 488 l 1,10,-1
 925 488 l 1,11,-1
 925 389 l 1,12,-1
 629 389 l 1,13,-1
 629 0 l 1,14,-1
 439 0 l 1,15,-1
 439 389 l 1,16,-1
 137 389 l 1,17,-1
 137 488 l 1,18,-1
 439 488 l 1,19,-1
 439 584 l 1,20,-1
 137 584 l 1,21,-1
 137 688 l 1,22,-1
 398 688 l 1,0,-1
EndSplineSet
EndChar

StartChar: brokenbar
Encoding: 166 166 104
Width: 430
GlyphClass: 2
Flags: HW
LayerCount: 2
Fore
SplineSet
122 889 m 1,0,-1
 122 1579 l 1,1,-1
 310 1579 l 1,2,-1
 310 889 l 1,3,-1
 122 889 l 1,0,-1
122 0 m 1,4,-1
 122 690 l 1,5,-1
 310 690 l 1,6,-1
 310 0 l 1,7,-1
 122 0 l 1,4,-1
EndSplineSet
EndChar

StartChar: section
Encoding: 167 167 105
Width: 924
GlyphClass: 2
Flags: HW
LayerCount: 2
Fore
SplineSet
89 20 m 1,0,-1
 150 158 l 1,1,2
 204 110 204 110 285.5 80 c 128,-1,3
 367 50 367 50 428 50 c 128,-1,4
 489 50 489 50 530.5 57.5 c 128,-1,5
 572 65 572 65 612 83 c 0,6,7
 700 122 700 122 700 223 c 0,8,9
 700 313 700 313 622 361 c 0,10,11
 565 396 565 396 477 421.5 c 128,-1,12
 389 447 389 447 338 464 c 128,-1,13
 287 481 287 481 240 506 c 0,14,15
 193 530 193 530 157 564 c 0,16,17
 79 637 79 637 79 771 c 0,18,19
 79 838 79 838 118 888 c 0,20,21
 188 978 188 978 334 995 c 1,22,23
 214 1041 214 1041 164.5 1085.5 c 128,-1,24
 115 1130 115 1130 97 1176.5 c 128,-1,25
 79 1223 79 1223 79 1290 c 128,-1,26
 79 1357 79 1357 113 1414 c 0,27,28
 147 1472 147 1472 203 1504 c 0,29,30
 316 1570 316 1570 456 1569 c 0,31,32
 533 1569 533 1569 649.5 1533.5 c 128,-1,33
 766 1498 766 1498 818 1452 c 1,34,-1
 760 1316 l 1,35,36
 620 1424 620 1424 466 1424 c 0,37,38
 235 1424 235 1424 235 1275 c 0,39,40
 236 1200 236 1200 334 1160 c 0,41,42
 439 1116 439 1116 524.5 1090.5 c 128,-1,43
 610 1065 610 1065 667 1035 c 0,44,45
 724 1006 724 1006 768 970 c 0,46,47
 866 891 866 891 867 746 c 0,48,49
 867 650 867 650 792.5 589.5 c 128,-1,50
 718 529 718 529 618 522 c 1,51,52
 740 480 740 480 804.5 409 c 128,-1,53
 869 338 869 338 869 236.5 c 128,-1,54
 869 135 869 135 833 71.5 c 128,-1,55
 797 8 797 8 735.5 -27 c 128,-1,56
 674 -62 674 -62 603.5 -79 c 128,-1,57
 533 -96 533 -96 453 -96 c 128,-1,58
 373 -96 373 -96 259.5 -61.5 c 128,-1,59
 146 -27 146 -27 89 20 c 1,0,-1
707 751 m 0,60,61
 706 890 706 890 534 904 c 0,62,63
 504 906 504 906 468 906 c 0,64,65
 233 906 233 906 233 753 c 128,-1,66
 233 600 233 600 470 600 c 128,-1,67
 707 600 707 600 707 751 c 0,60,61
EndSplineSet
EndChar

StartChar: dieresis
Encoding: 168 168 106
Width: 820
GlyphClass: 2
Flags: HW
LayerCount: 2
Fore
SplineSet
93.5 577 m 128,-1,1
 126 611 126 611 173.5 611 c 128,-1,2
 221 611 221 611 251 577.5 c 128,-1,3
 281 544 281 544 281 496 c 128,-1,4
 281 448 281 448 251 414.5 c 128,-1,5
 221 381 221 381 173 381 c 128,-1,6
 125 381 125 381 93 414.5 c 128,-1,7
 61 448 61 448 61 495.5 c 128,-1,0
 61 543 61 543 93.5 577 c 128,-1,1
583.5 577 m 128,-1,9
 616 611 616 611 663.5 611 c 128,-1,10
 711 611 711 611 741 577.5 c 128,-1,11
 771 544 771 544 771 496 c 128,-1,12
 771 448 771 448 741 414.5 c 128,-1,13
 711 381 711 381 663 381 c 128,-1,14
 615 381 615 381 583 414.5 c 128,-1,15
 551 448 551 448 551 495.5 c 128,-1,8
 551 543 551 543 583.5 577 c 128,-1,9
EndSplineSet
EndChar

StartChar: copyright
Encoding: 169 169 107
Width: 1817
GlyphClass: 2
Flags: HW
LayerCount: 2
Fore
SplineSet
947 336 m 0,0,1
 693 336 693 336 559 459 c 128,-1,2
 425 582 425 582 425 831 c 128,-1,3
 425 1080 425 1080 559 1203 c 128,-1,4
 693 1326 693 1326 947 1326 c 0,5,6
 1075 1326 1075 1326 1227 1248 c 1,7,-1
 1227 1122 l 1,8,9
 1077 1198 1077 1198 933 1198 c 0,10,11
 742 1198 742 1198 664.5 1112.5 c 128,-1,12
 587 1027 587 1027 587 831 c 128,-1,13
 587 635 587 635 664.5 549.5 c 128,-1,14
 742 464 742 464 933 464 c 0,15,16
 1077 464 1077 464 1227 540 c 1,17,-1
 1227 414 l 1,18,19
 1075 336 1075 336 947 336 c 0,0,1
105.5 1165 m 128,-1,21
 176 1324 176 1324 294.5 1438 c 128,-1,22
 413 1552 413 1552 574 1619.5 c 128,-1,23
 735 1687 735 1687 910 1687 c 128,-1,24
 1085 1687 1085 1687 1246 1619.5 c 128,-1,25
 1407 1552 1407 1552 1525.5 1438 c 128,-1,26
 1644 1324 1644 1324 1714.5 1165 c 128,-1,27
 1785 1006 1785 1006 1785 830 c 0,28,29
 1785 592 1785 592 1666.5 395.5 c 128,-1,30
 1548 199 1548 199 1347.5 88 c 128,-1,31
 1147 -23 1147 -23 910 -23 c 0,32,33
 732 -23 732 -23 571 42.5 c 128,-1,34
 410 108 410 108 292 220 c 128,-1,35
 174 332 174 332 104.5 491.5 c 128,-1,36
 35 651 35 651 35 828.5 c 128,-1,20
 35 1006 35 1006 105.5 1165 c 128,-1,21
277 455.5 m 128,-1,38
 371 289 371 289 537 195 c 128,-1,39
 703 101 703 101 910 101 c 128,-1,40
 1117 101 1117 101 1283 195 c 128,-1,41
 1449 289 1449 289 1543 455.5 c 128,-1,42
 1637 622 1637 622 1637 829 c 0,43,44
 1637 976 1637 976 1579.5 1111.5 c 128,-1,45
 1522 1247 1522 1247 1425 1346 c 128,-1,46
 1328 1445 1328 1445 1193 1503.5 c 128,-1,47
 1058 1562 1058 1562 885 1562 c 128,-1,48
 712 1562 712 1562 544.5 1463 c 128,-1,49
 377 1364 377 1364 280 1195.5 c 128,-1,50
 183 1027 183 1027 183 824.5 c 128,-1,37
 183 622 183 622 277 455.5 c 128,-1,38
EndSplineSet
EndChar

StartChar: ordfeminine
Encoding: 170 170 108
Width: 913
GlyphClass: 2
Flags: HW
LayerCount: 2
Fore
SplineSet
121 575 m 1,0,-1
 805 575 l 1,1,-1
 805 446 l 1,2,-1
 121 446 l 1,3,-1
 121 575 l 1,0,-1
261.5 823 m 128,-1,5
 305 781 305 781 391.5 781 c 128,-1,6
 478 781 478 781 544.5 815 c 128,-1,7
 611 849 611 849 650 903 c 1,8,-1
 650 1141 l 1,9,10
 540 1158 540 1158 474 1158 c 0,11,12
 218 1158 218 1158 218 971 c 0,13,4
 218 865 218 865 261.5 823 c 128,-1,5
458 1513 m 0,14,15
 296 1513 296 1513 167 1443 c 1,16,-1
 114 1552 l 1,17,18
 183 1592 183 1592 275 1615 c 128,-1,19
 367 1638 367 1638 462 1638 c 128,-1,20
 557 1638 557 1638 627.5 1614 c 128,-1,21
 698 1590 698 1590 738 1538 c 0,22,23
 810 1444 810 1444 811 1235 c 2,24,-1
 811 686 l 1,25,-1
 695 686 l 1,26,-1
 668 828 l 1,27,28
 634 752 634 752 549 710 c 128,-1,29
 464 668 464 668 374 668 c 0,30,31
 230 668 230 668 143.5 743.5 c 128,-1,32
 57 819 57 819 57 960 c 0,33,34
 57 1178 57 1178 280 1240 c 0,35,36
 343 1258 343 1258 437.5 1258 c 128,-1,37
 532 1258 532 1258 650 1218 c 1,38,-1
 650 1276 l 2,39,40
 650 1393 650 1393 624.5 1438 c 128,-1,41
 599 1483 599 1483 559.5 1498 c 128,-1,42
 520 1513 520 1513 458 1513 c 0,14,15
EndSplineSet
EndChar

StartChar: guillemotleft
Encoding: 171 171 109
Width: 1273
GlyphClass: 2
Flags: HW
LayerCount: 2
Fore
SplineSet
1231 842 m 1,0,-1
 794 577 l 1,1,-1
 1231 306 l 1,2,-1
 1231 99 l 1,3,-1
 623 481 l 1,4,-1
 623 666 l 1,5,-1
 1231 1049 l 1,6,-1
 1231 842 l 1,0,-1
623 842 m 1,7,-1
 187 577 l 1,8,-1
 623 306 l 1,9,-1
 623 99 l 1,10,-1
 15 481 l 1,11,-1
 15 666 l 1,12,-1
 623 1049 l 1,13,-1
 623 842 l 1,7,-1
EndSplineSet
EndChar

StartChar: logicalnot
Encoding: 172 172 110
Width: 1452
GlyphClass: 2
Flags: HW
LayerCount: 2
Fore
SplineSet
1355 338 m 1,0,-1
 1179 338 l 1,1,-1
 1179 1023 l 1,2,-1
 1 1023 l 1,3,-1
 1 1174 l 1,4,-1
 1355 1174 l 1,5,-1
 1355 338 l 1,0,-1
EndSplineSet
EndChar

StartChar: uni00AD
Encoding: 173 173 111
Width: 591
GlyphClass: 2
Flags: HW
LayerCount: 2
Fore
SplineSet
536 508 m 1,0,-1
 68 508 l 1,1,-1
 68 639 l 1,2,-1
 536 639 l 1,3,-1
 536 508 l 1,0,-1
EndSplineSet
EndChar

StartChar: registered
Encoding: 174 174 112
Width: 1233
GlyphClass: 2
Flags: HW
LayerCount: 2
Fore
SplineSet
594 1150 m 2,0,1
 704 1150 704 1150 730 1201 c 0,2,3
 742 1223 742 1223 742 1256 c 0,4,5
 742 1326 742 1326 579 1326 c 2,6,-1
 546 1326 l 1,7,-1
 546 1150 l 1,8,-1
 594 1150 l 2,0,1
816 1340 m 0,9,10
 846 1308 846 1308 846 1244 c 128,-1,11
 846 1180 846 1180 806 1143.5 c 128,-1,12
 766 1107 766 1107 680 1086 c 1,13,-1
 860 836 l 1,14,15
 846 831 846 831 760 785 c 1,16,-1
 586 1068 l 1,17,-1
 543 1068 l 1,18,-1
 543 807 l 1,19,-1
 437 807 l 1,20,-1
 437 1408 l 1,21,-1
 557 1408 l 2,22,23
 750 1408 750 1408 816 1340 c 0,9,10
910 614.5 m 128,-1,25
 775 542 775 542 616.5 542 c 128,-1,26
 458 542 458 542 323.5 614.5 c 128,-1,27
 189 687 189 687 108.5 817.5 c 128,-1,28
 28 948 28 948 28 1107.5 c 128,-1,29
 28 1267 28 1267 109 1397.5 c 128,-1,30
 190 1528 190 1528 325 1601 c 128,-1,31
 460 1674 460 1674 617.5 1674 c 128,-1,32
 775 1674 775 1674 910 1601.5 c 128,-1,33
 1045 1529 1045 1529 1126 1398 c 128,-1,34
 1207 1267 1207 1267 1207 1107.5 c 128,-1,35
 1207 948 1207 948 1126 817.5 c 128,-1,24
 1045 687 1045 687 910 614.5 c 128,-1,25
374.5 700 m 128,-1,37
 484 641 484 641 615.5 641 c 128,-1,38
 747 641 747 641 857.5 700.5 c 128,-1,39
 968 760 968 760 1033.5 867 c 128,-1,40
 1099 974 1099 974 1099 1106 c 0,41,42
 1099 1306 1099 1306 958 1439 c 128,-1,43
 817 1572 817 1572 616 1572 c 0,44,45
 484 1572 484 1572 374.5 1512 c 128,-1,46
 265 1452 265 1452 200.5 1344.5 c 128,-1,47
 136 1237 136 1237 136 1104.5 c 128,-1,48
 136 972 136 972 200.5 865.5 c 128,-1,36
 265 759 265 759 374.5 700 c 128,-1,37
EndSplineSet
EndChar

StartChar: glyph113
Encoding: 175 175 113
Width: 836
GlyphClass: 2
Flags: HW
LayerCount: 2
Fore
SplineSet
770 98 m 1,0,-1
 88 98 l 1,1,-1
 88 215 l 1,2,-1
 770 215 l 1,3,-1
 770 98 l 1,0,-1
EndSplineSet
EndChar

StartChar: degree
Encoding: 176 176 114
Width: 565
GlyphClass: 2
Flags: HW
LayerCount: 2
Fore
SplineSet
285 1048 m 128,-1,1
 223 1048 223 1048 181.5 1004.5 c 128,-1,2
 140 961 140 961 140 899.5 c 128,-1,3
 140 838 140 838 182.5 794 c 128,-1,4
 225 750 225 750 286 750 c 128,-1,5
 347 750 347 750 386.5 793 c 128,-1,6
 426 836 426 836 426 899 c 128,-1,7
 426 962 426 962 386.5 1005 c 128,-1,0
 347 1048 347 1048 285 1048 c 128,-1,1
112.5 1071 m 128,-1,9
 182 1139 182 1139 285.5 1139 c 128,-1,10
 389 1139 389 1139 456 1070.5 c 128,-1,11
 523 1002 523 1002 523 899 c 128,-1,12
 523 796 523 796 456.5 728 c 128,-1,13
 390 660 390 660 286.5 660 c 128,-1,14
 183 660 183 660 113 727.5 c 128,-1,15
 43 795 43 795 43 899 c 128,-1,8
 43 1003 43 1003 112.5 1071 c 128,-1,9
EndSplineSet
EndChar

StartChar: plusminus
Encoding: 177 177 115
Width: 852
GlyphClass: 2
Flags: HW
LayerCount: 2
Fore
SplineSet
819 518 m 1,0,-1
 505 518 l 1,1,-1
 505 174 l 1,2,-1
 364 174 l 1,3,-1
 364 518 l 1,4,-1
 51 518 l 1,5,-1
 51 651 l 1,6,-1
 364 651 l 1,7,-1
 364 995 l 1,8,-1
 505 995 l 1,9,-1
 505 651 l 1,10,-1
 819 651 l 1,11,-1
 819 518 l 1,0,-1
786 -55 m 1,12,-1
 85 -55 l 1,13,-1
 85 88 l 1,14,-1
 786 88 l 1,15,-1
 786 -55 l 1,12,-1
EndSplineSet
EndChar

StartChar: uni00B2
Encoding: 178 178 116
Width: 777
GlyphClass: 2
Flags: HW
LayerCount: 2
Fore
SplineSet
283 820 m 1,0,-1
 689 820 l 1,1,-1
 689 668 l 1,2,-1
 51 668 l 1,3,-1
 51 805 l 1,4,5
 68 820 68 820 121.5 863.5 c 128,-1,6
 175 907 175 907 224.5 948 c 128,-1,7
 274 989 274 989 335 1046 c 128,-1,8
 396 1103 396 1103 440 1153 c 0,9,10
 545 1272 545 1272 545 1349.5 c 128,-1,11
 545 1427 545 1427 489.5 1461 c 128,-1,12
 434 1495 434 1495 346.5 1495 c 128,-1,13
 259 1495 259 1495 68 1443 c 1,14,-1
 68 1588 l 1,15,16
 199 1638 199 1638 374 1638 c 0,17,18
 512 1638 512 1638 611 1570 c 0,19,20
 717 1498 717 1498 717 1357 c 0,21,22
 718 1210 718 1210 556 1050 c 0,23,24
 502 997 502 997 404.5 918.5 c 128,-1,25
 307 840 307 840 283 820 c 1,0,-1
EndSplineSet
EndChar

StartChar: uni00B3
Encoding: 179 179 117
Width: 797
GlyphClass: 2
Flags: HW
LayerCount: 2
Fore
SplineSet
559 1383 m 0,0,1
 559 1541 559 1541 335 1541 c 0,2,3
 215 1541 215 1541 101 1484 c 1,4,-1
 54 1611 l 1,5,6
 188 1677 188 1677 340 1677 c 0,7,8
 484 1677 484 1677 592 1614 c 0,9,10
 647 1582 647 1582 680 1525 c 128,-1,11
 713 1468 713 1468 713 1381.5 c 128,-1,12
 713 1295 713 1295 640.5 1219 c 128,-1,13
 568 1143 568 1143 468 1142 c 1,14,15
 592 1118 592 1118 668 1038.5 c 128,-1,16
 744 959 744 959 744 835 c 0,17,18
 744 761 744 761 708.5 702.5 c 0,19,20
 674 644 674 644 616 610 c 0,21,22
 500 540 500 540 355 540 c 0,23,24
 273 540 273 540 179 560 c 128,-1,25
 85 580 85 580 27 618 c 1,26,-1
 78 745 l 1,27,28
 222 672 222 672 334 672 c 128,-1,29
 446 672 446 672 512 720 c 128,-1,30
 578 768 578 768 578 853 c 0,31,32
 578 1042 578 1042 316 1072 c 1,33,-1
 316 1207 l 1,34,35
 450 1208 450 1208 520 1282 c 0,36,37
 560 1324 560 1324 559 1383 c 0,0,1
EndSplineSet
EndChar

StartChar: acute
Encoding: 180 180 118
Width: 430
GlyphClass: 2
Flags: HW
LayerCount: 2
Fore
SplineSet
96 328 m 1,0,-1
 39 354 l 1,1,-1
 198 965 l 1,2,-1
 430 874 l 1,3,-1
 96 328 l 1,0,-1
EndSplineSet
EndChar

StartChar: uni00B5
Encoding: 181 181 119
Width: 1320
GlyphClass: 2
Flags: HW
LayerCount: 2
Fore
SplineSet
611 123 m 0,0,1
 717 123 717 123 811 166.5 c 128,-1,2
 905 210 905 210 958 274 c 1,3,-1
 958 1169 l 1,4,-1
 1166 1169 l 1,5,-1
 1166 16 l 1,6,-1
 1020 16 l 1,7,-1
 996 170 l 1,8,9
 825 -20 825 -20 599 -20 c 0,10,11
 462 -20 462 -20 359 113 c 1,12,-1
 359 -291 l 1,13,-1
 185 -291 l 1,14,-1
 185 1169 l 1,15,-1
 359 1169 l 1,16,-1
 359 442 l 2,17,18
 359 123 359 123 611 123 c 0,0,1
EndSplineSet
EndChar

StartChar: paragraph
Encoding: 182 182 120
Width: 1086
GlyphClass: 2
Flags: HW
LayerCount: 2
Fore
SplineSet
501 1578 m 2,0,1
 967 1578 l 1,2,-1
 967 0 l 1,3,-1
 781 0 l 1,4,-1
 781 1428 l 1,5,-1
 646 1428 l 1,6,-1
 646 0 l 1,7,-1
 456 0 l 1,8,-1
 456 905 l 1,9,10
 302 904 302 904 185 946 c 0,11,12
 119 970 119 970 72.5 1007.5 c 128,-1,13
 26 1045 26 1045 -3.5 1107 c 128,-1,14
 -33 1169 -33 1169 -33 1269.5 c 0,15,16
 -32 1370 -32 1370 32 1447 c 0,17,18
 142 1578 142 1578 501 1578 c 2,0,1
EndSplineSet
EndChar

StartChar: periodcentered
Encoding: 183 183 121
Width: 329
GlyphClass: 2
Flags: HW
LayerCount: 2
Fore
SplineSet
93.5 731 m 128,-1,1
 126 765 126 765 173.5 765 c 128,-1,2
 221 765 221 765 251 731.5 c 128,-1,3
 281 698 281 698 281 650 c 128,-1,4
 281 602 281 602 251 568.5 c 128,-1,5
 221 535 221 535 173 535 c 128,-1,6
 125 535 125 535 93 568.5 c 128,-1,7
 61 602 61 602 61 649.5 c 128,-1,0
 61 697 61 697 93.5 731 c 128,-1,1
EndSplineSet
EndChar

StartChar: cedilla
Encoding: 184 184 122
Width: 502
GlyphClass: 2
Flags: HW
LayerCount: 2
Fore
SplineSet
67 -540 m 1,0,-1
 67 -423 l 1,1,2
 184 -464 184 -464 246.5 -464 c 128,-1,3
 309 -464 309 -464 339.5 -436 c 128,-1,4
 370 -408 370 -408 370 -351.5 c 128,-1,5
 370 -295 370 -295 359.5 -269.5 c 128,-1,6
 349 -244 349 -244 327 -229 c 128,-1,7
 305 -214 305 -214 283.5 -205 c 128,-1,8
 262 -196 262 -196 228 -192 c 0,9,10
 178 -186 178 -186 117 -186 c 1,11,-1
 117 76 l 1,12,-1
 238 76 l 1,13,-1
 238 -98 l 1,14,15
 368 -98 368 -98 435.5 -156 c 128,-1,16
 503 -214 503 -214 503 -342 c 0,17,18
 503 -578 503 -578 251 -578 c 0,19,20
 179 -578 179 -578 67 -540 c 1,0,-1
EndSplineSet
EndChar

StartChar: uni00B9
Encoding: 185 185 123
Width: 454
GlyphClass: 2
Flags: HW
LayerCount: 2
Fore
SplineSet
179 478 m 1,0,-1
 179 1304 l 1,1,-1
 8 1232 l 1,2,-1
 -29 1345 l 1,3,-1
 208 1440 l 1,4,-1
 348 1414 l 1,5,-1
 348 478 l 1,6,-1
 179 478 l 1,0,-1
EndSplineSet
EndChar

StartChar: ordmasculine
Encoding: 186 186 124
Width: 956
GlyphClass: 2
Flags: HW
LayerCount: 2
Fore
SplineSet
141 575 m 1,0,-1
 825 575 l 1,1,-1
 825 446 l 1,2,-1
 141 446 l 1,3,-1
 141 575 l 1,0,-1
219.5 1259.5 m 128,-1,5
 212 1210 212 1210 212 1146.5 c 128,-1,6
 212 1083 212 1083 225 1023 c 128,-1,7
 238 963 238 963 267 910 c 0,8,9
 329 797 329 797 479 797 c 0,10,11
 649 797 649 797 712 952 c 0,12,13
 746 1036 746 1036 746 1123 c 128,-1,14
 746 1210 746 1210 738.5 1259 c 128,-1,15
 731 1308 731 1308 711.5 1355.5 c 128,-1,16
 692 1403 692 1403 662.5 1437 c 128,-1,17
 633 1471 633 1471 586 1491.5 c 128,-1,18
 539 1512 539 1512 479 1512 c 128,-1,19
 419 1512 419 1512 371.5 1491.5 c 128,-1,20
 324 1471 324 1471 294.5 1437.5 c 128,-1,21
 265 1404 265 1404 246 1356.5 c 128,-1,4
 227 1309 227 1309 219.5 1259.5 c 128,-1,5
100 908.5 m 128,-1,23
 55 1015 55 1015 55 1134 c 128,-1,24
 55 1253 55 1253 81.5 1340 c 128,-1,25
 108 1427 108 1427 159 1494 c 0,26,27
 269 1638 269 1638 479 1638 c 0,28,29
 690 1638 690 1638 800 1494 c 0,30,31
 904 1358 904 1358 904 1152 c 0,32,33
 904 946 904 946 800 811 c 0,34,35
 691 670 691 670 479 670 c 0,36,37
 340 670 340 670 242.5 736 c 128,-1,22
 145 802 145 802 100 908.5 c 128,-1,23
EndSplineSet
EndChar

StartChar: guillemotright
Encoding: 187 187 125
Width: 1280
GlyphClass: 2
Flags: HW
LayerCount: 2
Fore
SplineSet
59 842 m 1,0,-1
 59 1049 l 1,1,-1
 668 666 l 1,2,-1
 668 481 l 1,3,-1
 59 99 l 1,4,-1
 59 306 l 1,5,-1
 506 577 l 1,6,-1
 59 842 l 1,0,-1
666 842 m 1,7,-1
 666 1049 l 1,8,-1
 1275 666 l 1,9,-1
 1275 481 l 1,10,-1
 666 99 l 1,11,-1
 666 306 l 1,12,-1
 1113 577 l 1,13,-1
 666 842 l 1,7,-1
EndSplineSet
EndChar

StartChar: onequarter
Encoding: 188 188 126
Width: 1442
GlyphClass: 2
Flags: HW
LayerCount: 2
Fore
SplineSet
1189 946 m 1,0,-1
 1317 915 l 1,1,-1
 1317 145 l 1,2,-1
 1468 145 l 1,3,-1
 1468 34 l 1,4,-1
 1317 34 l 1,5,-1
 1317 -227 l 1,6,-1
 1172 -250 l 1,7,-1
 1172 34 l 1,8,-1
 647 34 l 1,9,-1
 625 144 l 1,10,-1
 1189 946 l 1,0,-1
784 144 m 1,11,-1
 1172 144 l 1,12,-1
 1172 703 l 1,13,14
 989 421 989 421 784 144 c 1,11,-1
158 568 m 1,15,-1
 158 1413 l 1,16,-1
 -12 1341 l 1,17,-1
 -50 1434 l 1,18,-1
 188 1529 l 1,19,-1
 318 1503 l 1,20,-1
 318 568 l 1,21,-1
 158 568 l 1,15,-1
20 -30 m 1,22,-1
 1059 1365 l 1,23,-1
 1181 1272 l 1,24,-1
 140 -123 l 1,25,-1
 20 -30 l 1,22,-1
EndSplineSet
EndChar

StartChar: onehalf
Encoding: 189 189 127
Width: 1638
GlyphClass: 2
Flags: HW
LayerCount: 2
Fore
SplineSet
1192 -20 m 1,0,-1
 1598 -20 l 1,1,-1
 1598 -172 l 1,2,-1
 960 -172 l 1,3,-1
 960 -35 l 1,4,5
 977 -20 977 -20 1030.5 23.5 c 128,-1,6
 1084 67 1084 67 1133.5 108 c 128,-1,7
 1183 149 1183 149 1244 206 c 128,-1,8
 1305 263 1305 263 1349 313 c 0,9,10
 1454 432 1454 432 1454 509.5 c 128,-1,11
 1454 587 1454 587 1398.5 621 c 128,-1,12
 1343 655 1343 655 1255.5 655 c 128,-1,13
 1168 655 1168 655 977 603 c 1,14,-1
 977 748 l 1,15,16
 1108 798 1108 798 1283 798 c 0,17,18
 1421 798 1421 798 1520 730 c 0,19,20
 1626 658 1626 658 1626 517 c 0,21,22
 1626 370 1626 370 1464 210 c 0,23,24
 1410 157 1410 157 1313 78.5 c 128,-1,25
 1216 0 1216 0 1192 -20 c 1,0,-1
20 -30 m 1,26,-1
 1059 1365 l 1,27,-1
 1181 1272 l 1,28,-1
 140 -123 l 1,29,-1
 20 -30 l 1,26,-1
158 568 m 1,30,-1
 158 1413 l 1,31,-1
 -12 1341 l 1,32,-1
 -50 1434 l 1,33,-1
 188 1529 l 1,34,-1
 318 1503 l 1,35,-1
 318 568 l 1,36,-1
 158 568 l 1,30,-1
EndSplineSet
EndChar

StartChar: threequarters
Encoding: 190 190 128
Width: 1758
GlyphClass: 2
Flags: HW
LayerCount: 2
Fore
SplineSet
1506 946 m 1,0,-1
 1634 915 l 1,1,-1
 1634 145 l 1,2,-1
 1785 145 l 1,3,-1
 1785 34 l 1,4,-1
 1634 34 l 1,5,-1
 1634 -227 l 1,6,-1
 1489 -250 l 1,7,-1
 1489 34 l 1,8,-1
 964 34 l 1,9,-1
 942 144 l 1,10,-1
 1506 946 l 1,0,-1
521 1383 m 0,11,12
 521 1541 521 1541 297 1541 c 0,13,14
 177 1541 177 1541 63 1484 c 1,15,-1
 16 1611 l 1,16,17
 150 1677 150 1677 302 1677 c 0,18,19
 446 1677 446 1677 554 1614 c 0,20,21
 609 1582 609 1582 642 1525 c 128,-1,22
 675 1468 675 1468 675 1381.5 c 128,-1,23
 675 1295 675 1295 602.5 1219 c 128,-1,24
 530 1143 530 1143 430 1142 c 1,25,26
 554 1118 554 1118 630 1038.5 c 128,-1,27
 706 959 706 959 706 835 c 0,28,29
 706 761 706 761 670.5 702.5 c 0,30,31
 636 644 636 644 578 610 c 0,32,33
 462 540 462 540 301 540 c 128,-1,34
 140 540 140 540 -11 618 c 1,35,-1
 40 745 l 1,36,37
 184 672 184 672 296 672 c 128,-1,38
 408 672 408 672 474 720 c 128,-1,39
 540 768 540 768 540 853 c 0,40,41
 540 1042 540 1042 278 1072 c 1,42,-1
 278 1207 l 1,43,44
 412 1208 412 1208 482 1282 c 0,45,46
 522 1324 522 1324 521 1383 c 0,11,12
337 -30 m 1,47,-1
 1367 1365 l 1,48,-1
 1498 1272 l 1,49,-1
 457 -123 l 1,50,-1
 337 -30 l 1,47,-1
1101 144 m 1,51,-1
 1489 144 l 1,52,-1
 1489 703 l 1,53,54
 1392 541 1392 541 1294.5 407.5 c 128,-1,55
 1197 274 1197 274 1101 144 c 1,51,-1
EndSplineSet
EndChar

StartChar: questiondown
Encoding: 191 191 129
Width: 862
GlyphClass: 2
Flags: HW
LayerCount: 2
Fore
SplineSet
551 790 m 1,0,-1
 551 1173 l 1,1,-1
 731 1173 l 1,2,-1
 731 688 l 1,3,4
 543 623 543 623 464 583 c 0,5,6
 208 455 208 455 208 268 c 0,7,8
 208 110 208 110 339 68 c 0,9,10
 407 46 407 46 504 47 c 1,11,12
 710 47 710 47 847 133 c 1,13,-1
 906 -10 l 1,14,15
 827 -58 827 -58 713 -86 c 128,-1,16
 599 -114 599 -114 511.5 -114 c 128,-1,17
 424 -114 424 -114 357 -103.5 c 128,-1,18
 290 -93 290 -93 226 -67 c 128,-1,19
 162 -41 162 -41 117 -1 c 0,20,21
 17 88 17 88 17 249 c 0,22,23
 18 442 18 442 146 568 c 0,24,25
 226 646 226 646 308 687 c 0,26,27
 420 743 420 743 551 790 c 1,0,-1
576 1474.5 m 128,-1,29
 607 1505 607 1505 650.5 1505 c 128,-1,30
 694 1505 694 1505 724 1472 c 128,-1,31
 754 1439 754 1439 754 1396.5 c 128,-1,32
 754 1354 754 1354 721 1325 c 128,-1,33
 688 1296 688 1296 646.5 1296 c 128,-1,34
 605 1296 605 1296 575 1327.5 c 128,-1,35
 545 1359 545 1359 545 1401.5 c 128,-1,28
 545 1444 545 1444 576 1474.5 c 128,-1,29
EndSplineSet
EndChar

StartChar: AE
Encoding: 198 198 136
Width: 1805
GlyphClass: 2
Flags: HW
LayerCount: 2
Fore
SplineSet
1769 0 m 1,0,-1
 930 0 l 1,1,-1
 930 371 l 1,2,-1
 378 371 l 1,3,-1
 186 0 l 1,4,-1
 -23 0 l 1,5,-1
 803 1579 l 1,6,-1
 1741 1579 l 1,7,-1
 1741 1436 l 1,8,-1
 1093 1436 l 1,9,-1
 1093 891 l 1,10,-1
 1698 891 l 1,11,-1
 1698 764 l 1,12,-1
 1095 764 l 1,13,-1
 1095 143 l 1,14,-1
 1769 143 l 1,15,-1
 1769 0 l 1,0,-1
928 1459 m 1,16,-1
 438 493 l 1,17,-1
 928 493 l 1,18,-1
 928 1459 l 1,16,-1
EndSplineSet
EndChar

StartChar: Eth
Encoding: 208 208 146
Width: 1448
GlyphClass: 2
Flags: HW
LayerCount: 2
Fore
SplineSet
725 1579 m 2,0,1
 1140 1580 1140 1580 1294 1258 c 0,2,3
 1384 1069 1384 1069 1384 788 c 0,4,5
 1384 0 1384 0 725 0 c 2,6,-1
 172 0 l 1,7,-1
 172 764 l 1,8,-1
 10 764 l 1,9,-1
 10 895 l 1,10,-1
 172 895 l 1,11,-1
 172 1579 l 1,12,-1
 725 1579 l 2,0,1
600 764 m 1,13,-1
 366 764 l 1,14,-1
 366 143 l 1,15,-1
 725 143 l 2,16,17
 839 143 839 143 923 180 c 128,-1,18
 1007 217 1007 217 1056 276 c 0,19,20
 1104 335 1104 335 1134 423 c 0,21,22
 1182 568 1182 568 1183 789 c 0,23,24
 1183 1228 1183 1228 986 1364 c 0,25,26
 883 1436 883 1436 725 1436 c 2,27,-1
 366 1436 l 1,28,-1
 366 895 l 1,29,-1
 600 895 l 1,30,-1
 600 764 l 1,13,-1
EndSplineSet
EndChar

StartChar: multiply
Encoding: 215 215 153
Width: 901
GlyphClass: 2
Flags: HW
LayerCount: 2
Fore
SplineSet
24 863 m 1,0,-1
 126 965 l 1,1,-1
 443 648 l 1,2,-1
 760 965 l 1,3,-1
 862 863 l 1,4,-1
 545 546 l 1,5,-1
 862 229 l 1,6,-1
 760 127 l 1,7,-1
 443 444 l 1,8,-1
 126 127 l 1,9,-1
 24 229 l 1,10,-1
 341 546 l 1,11,-1
 24 863 l 1,0,-1
EndSplineSet
EndChar

StartChar: Oslash
Encoding: 216 216 154
Width: 1431
GlyphClass: 2
Flags: HW
LayerCount: 2
Fore
SplineSet
1365 784 m 0,0,1
 1365 156 1365 156 969 3 c 0,2,3
 855 -41 855 -41 710 -41 c 128,-1,4
 565 -41 565 -41 453 0 c 1,5,-1
 381 -159 l 1,6,-1
 280 -113 l 1,7,-1
 353 49 l 1,8,9
 174 170 174 170 110 376 c 0,10,11
 54 557 54 557 54 737.5 c 128,-1,12
 54 918 54 918 73.5 1035.5 c 128,-1,13
 93 1153 93 1153 140.5 1260 c 128,-1,14
 188 1367 188 1367 259.5 1443.5 c 128,-1,15
 331 1520 331 1520 442.5 1565 c 128,-1,16
 554 1610 554 1610 722.5 1610 c 128,-1,17
 891 1610 891 1610 1027 1538 c 1,18,-1
 1105 1710 l 1,19,-1
 1206 1668 l 1,20,-1
 1120 1477 l 1,21,22
 1365 1280 1365 1280 1365 784 c 0,0,1
710 1458 m 0,23,24
 298 1458 298 1458 260 922 c 0,25,26
 256 858 256 858 255 784 c 0,27,28
 255 369 255 369 426 209 c 1,29,-1
 960 1390 l 1,30,31
 859 1458 859 1458 710 1458 c 0,23,24
1164 784 m 0,32,33
 1164 1143 1164 1143 1043 1307 c 1,34,-1
 519 147 l 1,35,-1
 521 147 l 1,36,37
 604 111 604 111 704 111 c 128,-1,38
 804 111 804 111 878.5 138.5 c 128,-1,39
 953 166 953 166 1001.5 216.5 c 128,-1,40
 1050 267 1050 267 1083 329 c 128,-1,41
 1116 391 1116 391 1133 471 c 0,42,43
 1164 617 1164 617 1164 784 c 0,32,33
EndSplineSet
EndChar

StartChar: Thorn
Encoding: 222 222 160
Width: 1254
GlyphClass: 2
Flags: HW
LayerCount: 2
Fore
SplineSet
317 1444 m 1,0,-1
 500 1445 l 1,1,2
 720 1445 720 1445 803 1427.5 c 128,-1,3
 886 1410 886 1410 938.5 1392.5 c 128,-1,4
 991 1375 991 1375 1029.5 1350.5 c 128,-1,5
 1068 1326 1068 1326 1104 1290 c 128,-1,6
 1140 1254 1140 1254 1162 1209 c 0,7,8
 1212 1110 1212 1110 1212 973 c 0,9,10
 1212 758 1212 758 1082 652 c 0,11,12
 996 582 996 582 911.5 558.5 c 128,-1,13
 827 535 827 535 775.5 525.5 c 128,-1,14
 724 516 724 516 654 511 c 0,15,16
 555 504 555 504 412 504 c 2,17,-1
 317 504 l 1,18,-1
 317 0 l 1,19,-1
 123 0 l 1,20,-1
 123 1579 l 1,21,-1
 317 1579 l 1,22,-1
 317 1444 l 1,0,-1
479 649 m 2,23,24
 650 649 650 649 705 658 c 128,-1,25
 760 667 760 667 804 678 c 128,-1,26
 848 689 848 689 877.5 704.5 c 128,-1,27
 907 720 907 720 938.5 743.5 c 128,-1,28
 970 767 970 767 988 797 c 0,29,30
 1030 867 1030 867 1030 940 c 128,-1,31
 1030 1013 1030 1013 1021.5 1057.5 c 128,-1,32
 1013 1102 1013 1102 999.5 1135 c 128,-1,33
 986 1168 986 1168 961.5 1194 c 128,-1,34
 937 1220 937 1220 913 1237 c 128,-1,35
 889 1254 889 1254 851 1266 c 128,-1,36
 813 1278 813 1278 782 1284.5 c 0,37,38
 750 1290 750 1290 702 1294 c 0,39,40
 626 1300 626 1300 526 1300 c 2,41,-1
 317 1300 l 1,42,-1
 317 649 l 1,43,-1
 479 649 l 2,23,24
EndSplineSet
EndChar

StartChar: germandbls
Encoding: 223 223 161
Width: 1303
GlyphClass: 2
Flags: HW
LayerCount: 2
Fore
SplineSet
881.5 1073 m 128,-1,1
 901 1127 901 1127 901 1192.5 c 128,-1,2
 901 1258 901 1258 883.5 1301 c 128,-1,3
 866 1344 866 1344 837 1369.5 c 128,-1,4
 808 1395 808 1395 765 1410 c 0,5,6
 690 1436 690 1436 601.5 1436 c 128,-1,7
 513 1436 513 1436 464.5 1422 c 128,-1,8
 416 1408 416 1408 386.5 1375 c 128,-1,9
 357 1342 357 1342 339.5 1312 c 128,-1,10
 322 1282 322 1282 315 1224 c 0,11,12
 305 1140 305 1140 305 1018 c 2,13,-1
 305 16 l 1,14,-1
 111 -6 l 1,15,-1
 110 1046 l 2,16,17
 110 1450 110 1450 356 1544 c 0,18,19
 448 1580 448 1580 580 1579 c 0,20,21
 1073 1579 1073 1579 1073 1176 c 0,22,23
 1073 996 1073 996 968 904 c 0,24,25
 911 854 911 854 827 844 c 1,26,27
 1028 844 1028 844 1141.5 721 c 128,-1,28
 1255 598 1255 598 1255 395 c 0,29,30
 1255 270 1255 270 1207 175 c 128,-1,31
 1159 80 1159 80 1084 23.5 c 0,32,33
 1010 -32 1010 -32 904 -68 c 0,34,35
 724 -128 724 -128 481 -129 c 1,36,-1
 481 27 l 1,37,38
 730 27 730 27 848 70 c 0,39,40
 960 111 960 111 1012 190 c 0,41,42
 1074 284 1074 284 1073 432 c 0,43,44
 1072 626 1072 626 902 704 c 0,45,46
 766 766 766 766 560 772 c 0,47,48
 512 774 512 774 449 774 c 1,49,-1
 449 905 l 1,50,51
 507 903 507 903 554 903 c 128,-1,52
 601 903 601 903 651.5 909.5 c 128,-1,53
 702 916 702 916 750.5 935.5 c 128,-1,54
 799 955 799 955 830.5 987 c 128,-1,0
 862 1019 862 1019 881.5 1073 c 128,-1,1
EndSplineSet
EndChar

StartChar: ae
Encoding: 230 230 168
Width: 1802
GlyphClass: 2
Flags: HW
LayerCount: 2
Fore
SplineSet
1310 -23 m 0,0,1
 1009 -23 1009 -23 877 207 c 1,2,3
 798 102 798 102 678.5 39.5 c 128,-1,4
 559 -23 559 -23 430 -23 c 0,5,6
 246 -23 246 -23 142 69 c 128,-1,7
 38 161 38 161 38 343 c 0,8,9
 38 532 38 532 172 627 c 0,10,11
 296 715 296 715 482 715 c 0,12,13
 553 715 553 715 641.5 701.5 c 128,-1,14
 730 688 730 688 786 665 c 1,15,-1
 786 713 l 2,16,17
 786 881 786 881 769.5 919 c 128,-1,18
 753 957 753 957 734.5 981.5 c 128,-1,19
 716 1006 716 1006 690 1018 c 0,20,21
 630 1046 630 1046 539.5 1046.5 c 128,-1,22
 449 1047 449 1047 343 1015 c 128,-1,23
 237 983 237 983 171 935 c 1,24,-1
 104 1057 l 1,25,26
 170 1113 170 1113 299.5 1151.5 c 128,-1,27
 429 1190 429 1190 512 1190 c 128,-1,28
 595 1190 595 1190 650 1181 c 128,-1,29
 705 1172 705 1172 758 1150 c 0,30,31
 866 1104 866 1104 906 970 c 1,32,33
 958 1078 958 1078 1065.5 1134 c 128,-1,34
 1173 1190 1173 1190 1293 1190 c 128,-1,35
 1413 1190 1413 1190 1499.5 1149.5 c 128,-1,36
 1586 1109 1586 1109 1638 1038 c 0,37,38
 1744 895 1744 895 1744 676 c 0,39,40
 1744 625 1744 625 1736 567 c 1,41,-1
 976 567 l 1,42,43
 976 314 976 314 1079 211 c 0,44,45
 1163 127 1163 127 1327.5 127 c 128,-1,46
 1492 127 1492 127 1628 244 c 1,47,-1
 1690 99 l 1,48,49
 1620 48 1620 48 1509 12.5 c 128,-1,50
 1398 -23 1398 -23 1310 -23 c 0,0,1
288.5 174 m 128,-1,52
 348 119 348 119 485 119 c 128,-1,53
 622 119 622 119 786 271 c 1,54,-1
 786 569 l 1,55,56
 660 590 660 590 577 590 c 128,-1,57
 494 590 494 590 450.5 585 c 128,-1,58
 407 580 407 580 363.5 565 c 128,-1,59
 320 550 320 550 292 525 c 0,60,61
 229 469 229 469 229 349 c 128,-1,51
 229 229 229 229 288.5 174 c 128,-1,52
1576 717 m 2,62,63
 1576 960 1576 960 1430 1030 c 0,64,65
 1376 1056 1376 1056 1302 1057 c 0,66,67
 1139 1057 1139 1057 1057.5 954.5 c 128,-1,68
 976 852 976 852 976 682 c 1,69,-1
 1576 682 l 1,70,-1
 1576 717 l 2,62,63
EndSplineSet
EndChar

StartChar: eth
Encoding: 240 240 177
Width: 1131
GlyphClass: 2
Flags: HW
LayerCount: 2
Fore
SplineSet
441 1743 m 1,0,1
 569 1671 569 1671 737 1508 c 1,2,-1
 1023 1593 l 1,3,-1
 1065 1503 l 1,4,-1
 805 1426 l 1,5,6
 931 1255 931 1255 991 1077.5 c 128,-1,7
 1051 900 1051 900 1051 690 c 0,8,9
 1051 -20 1051 -20 518 -20 c 0,10,11
 226 -20 226 -20 104 238 c 0,12,13
 34 386 34 386 34 584 c 0,14,15
 34 768 34 768 102 920 c 0,16,17
 177 1088 177 1088 321 1154 c 0,18,19
 400 1190 400 1190 497 1190 c 128,-1,20
 594 1190 594 1190 698 1145.5 c 128,-1,21
 802 1101 802 1101 861 1028 c 1,22,23
 802 1206 802 1206 652 1380 c 1,24,-1
 417 1311 l 1,25,-1
 375 1401 l 1,26,-1
 578 1461 l 1,27,28
 468 1571 468 1571 357 1641 c 1,29,-1
 441 1743 l 1,0,1
832 855 m 128,-1,31
 797 940 797 940 721 993.5 c 128,-1,32
 645 1047 645 1047 552.5 1047 c 128,-1,33
 460 1047 460 1047 401 1021 c 128,-1,34
 342 995 342 995 307 953.5 c 128,-1,35
 272 912 272 912 251 850 c 0,36,37
 216 746 216 746 216 587 c 0,38,39
 216 123 216 123 514 123 c 0,40,41
 802 123 802 123 852 448 c 0,42,43
 867 545 867 545 867 657.5 c 128,-1,30
 867 770 867 770 832 855 c 128,-1,31
EndSplineSet
EndChar

StartChar: divide
Encoding: 247 247 184
Width: 724
GlyphClass: 2
Flags: HW
LayerCount: 2
Fore
SplineSet
691 508 m 1,0,-1
 9 508 l 1,1,-1
 9 639 l 1,2,-1
 691 639 l 1,3,-1
 691 508 l 1,0,-1
268.5 896 m 128,-1,5
 301 930 301 930 348.5 930 c 128,-1,6
 396 930 396 930 426 896.5 c 128,-1,7
 456 863 456 863 456 815 c 128,-1,8
 456 767 456 767 426 733.5 c 128,-1,9
 396 700 396 700 348 700 c 128,-1,10
 300 700 300 700 268 733.5 c 128,-1,11
 236 767 236 767 236 814.5 c 128,-1,4
 236 862 236 862 268.5 896 c 128,-1,5
266.5 411 m 128,-1,13
 299 445 299 445 346.5 445 c 128,-1,14
 394 445 394 445 424 411.5 c 128,-1,15
 454 378 454 378 454 330 c 128,-1,16
 454 282 454 282 424 248.5 c 128,-1,17
 394 215 394 215 346 215 c 128,-1,18
 298 215 298 215 266 248.5 c 128,-1,19
 234 282 234 282 234 329.5 c 128,-1,12
 234 377 234 377 266.5 411 c 128,-1,13
EndSplineSet
EndChar

StartChar: oslash
Encoding: 248 248 185
Width: 1161
GlyphClass: 2
Flags: HW
LayerCount: 2
Fore
SplineSet
261 -168 m 1,0,-1
 328 28 l 1,1,2
 176 101 176 101 105.5 249 c 128,-1,3
 35 397 35 397 35 553 c 128,-1,4
 35 709 35 709 68 817.5 c 128,-1,5
 101 926 101 926 164.5 1010 c 128,-1,6
 228 1094 228 1094 331 1142 c 128,-1,7
 434 1190 434 1190 542 1190 c 128,-1,8
 650 1190 650 1190 723 1170 c 1,9,-1
 790 1365 l 1,10,-1
 871 1335 l 1,11,-1
 804 1140 l 1,12,13
 955 1063 955 1063 1025.5 914.5 c 128,-1,14
 1096 766 1096 766 1096 582 c 0,15,16
 1096 262 1096 262 908 96 c 0,17,18
 777 -20 777 -20 565 -20 c 1,19,20
 483 -20 483 -20 415 -2 c 1,21,-1
 349 -198 l 1,22,-1
 261 -168 l 1,0,-1
217 582 m 0,23,24
 217 279 217 279 377 169 c 1,25,-1
 676 1035 l 1,26,27
 628 1051 628 1051 557 1051 c 128,-1,28
 486 1051 486 1051 425 1024 c 128,-1,29
 364 997 364 997 325.5 952.5 c 128,-1,30
 287 908 287 908 262 846 c 0,31,32
 217 734 217 734 217 582 c 0,23,24
460 130 m 1,33,34
 504 117 504 117 574 117 c 128,-1,35
 644 117 644 117 705.5 143.5 c 128,-1,36
 767 170 767 170 805.5 213.5 c 0,37,38
 844 256 844 256 868 318 c 0,39,40
 912 430 912 430 913 582 c 0,41,42
 913 885 913 885 755 996 c 1,43,-1
 460 130 l 1,33,34
EndSplineSet
EndChar

StartChar: thorn
Encoding: 254 254 191
Width: 1361
GlyphClass: 2
Flags: HW
LayerCount: 2
Fore
SplineSet
1115.5 818.5 m 128,-1,1
 1143 711 1143 711 1143 584.5 c 128,-1,2
 1143 458 1143 458 1115 351 c 128,-1,3
 1087 244 1087 244 1031.5 160 c 128,-1,4
 976 76 976 76 884.5 28 c 128,-1,5
 793 -20 793 -20 674 -20 c 0,6,7
 425 -20 425 -20 315 117 c 1,8,-1
 315 -465 l 1,9,-1
 129 -487 l 1,10,-1
 129 1565 l 1,11,-1
 313 1565 l 1,12,-1
 313 1004 l 1,13,14
 377 1083 377 1083 470 1136.5 c 128,-1,15
 563 1190 563 1190 678.5 1190 c 128,-1,16
 794 1190 794 1190 886 1142.5 c 128,-1,17
 978 1095 978 1095 1033 1010.5 c 128,-1,0
 1088 926 1088 926 1115.5 818.5 c 128,-1,1
945.5 391 m 128,-1,19
 961 463 961 463 961 536 c 128,-1,20
 961 609 961 609 956.5 665.5 c 128,-1,21
 952 722 952 722 940.5 781.5 c 128,-1,22
 929 841 929 841 908 887 c 0,23,24
 886 933 886 933 856 970 c 0,25,26
 793 1047 793 1047 674 1047 c 0,27,28
 495 1047 495 1047 338 890 c 1,29,-1
 322 244 l 1,30,31
 381 194 381 194 482 158.5 c 128,-1,32
 583 123 583 123 669.5 123 c 128,-1,33
 756 123 756 123 811.5 159.5 c 128,-1,34
 867 196 867 196 898.5 257.5 c 128,-1,18
 930 319 930 319 945.5 391 c 128,-1,19
EndSplineSet
EndChar

StartChar: OE
Encoding: 338 338 193
Width: 2269
GlyphClass: 2
Flags: HW
LayerCount: 2
Fore
SplineSet
2215 0 m 1,0,-1
 1232 0 l 1,1,-1
 1232 169 l 1,2,3
 1078 -41 1078 -41 778 -41 c 0,4,5
 371 -41 371 -41 217 285 c 0,6,7
 124 482 124 482 124 784 c 0,8,9
 124 1422 124 1422 519 1570 c 0,10,11
 627 1610 627 1610 764 1610 c 0,12,13
 1076 1610 1076 1610 1232 1397 c 1,14,-1
 1232 1579 l 1,15,-1
 2202 1579 l 1,16,-1
 2202 1436 l 1,17,-1
 1426 1436 l 1,18,-1
 1426 891 l 1,19,-1
 2104 891 l 1,20,-1
 2104 776 l 1,21,-1
 1426 776 l 1,22,-1
 1426 143 l 1,23,-1
 2215 143 l 1,24,-1
 2215 0 l 1,0,-1
1232 878 m 1,25,26
 1216 1214 1216 1214 1080 1350 c 0,27,28
 972 1458 972 1458 780 1458 c 0,29,30
 476 1458 476 1458 379 1180 c 0,31,32
 324 1023 324 1023 324 784 c 0,33,34
 324 401 324 401 462 239 c 0,35,36
 572 111 572 111 780 111 c 0,37,38
 1058 112 1058 112 1162 348 c 0,39,40
 1221 481 1221 481 1232 692 c 1,41,-1
 1232 878 l 1,25,26
EndSplineSet
EndChar

StartChar: oe
Encoding: 339 339 194
Width: 2041
GlyphClass: 2
Flags: HW
LayerCount: 2
Fore
SplineSet
1095 961 m 1,0,1
 1230 1190 1230 1190 1519 1190 c 0,2,3
 1734 1190 1734 1190 1848 1049.5 c 128,-1,4
 1962 909 1962 909 1962 676 c 0,5,6
 1962 633 1962 633 1954 567 c 1,7,-1
 1194 567 l 1,8,9
 1194 238 1194 238 1374 158 c 0,10,11
 1442 128 1442 128 1540 127 c 0,12,13
 1710 127 1710 127 1846 244 c 1,14,-1
 1908 99 l 1,15,16
 1844 52 1844 52 1732 14.5 c 128,-1,17
 1620 -23 1620 -23 1528 -23 c 0,18,19
 1230 -23 1230 -23 1094 204 c 1,20,21
 956 -20 956 -20 656 -20 c 0,22,23
 483 -20 483 -20 362 58 c 0,24,25
 126 209 126 209 126 582 c 0,26,27
 126 956 126 956 363 1111 c 0,28,29
 484 1190 484 1190 656 1190 c 0,30,31
 957 1190 957 1190 1095 961 c 1,0,1
656 117 m 0,32,33
 750 117 750 117 819 152.5 c 128,-1,34
 888 188 888 188 928 252 c 0,35,36
 1004 377 1004 377 1004 582 c 0,37,38
 1004 941 1004 941 792 1027 c 0,39,40
 732 1051 732 1051 647 1051 c 128,-1,41
 562 1051 562 1051 493 1015 c 128,-1,42
 424 979 424 979 384 913 c 0,43,44
 308 785 308 785 308 582 c 0,45,46
 308 248 308 248 493 152 c 0,47,48
 562 116 562 116 656 117 c 0,32,33
1794 717 m 2,49,50
 1794 1057 1794 1057 1520 1057 c 0,51,52
 1359 1057 1359 1057 1276.5 957 c 128,-1,53
 1194 857 1194 857 1194 682 c 1,54,-1
 1794 682 l 1,55,-1
 1794 717 l 2,49,50
EndSplineSet
EndChar

StartChar: circumflex
Encoding: 710 710 200
Width: 1428
GlyphClass: 2
Flags: HW
LayerCount: 2
Fore
SplineSet
714 809 m 1,0,-1
 502 432 l 1,1,-1
 374 510 l 1,2,-1
 666 1011 l 1,3,-1
 762 1011 l 1,4,-1
 1054 510 l 1,5,-1
 926 432 l 1,6,-1
 714 809 l 1,0,-1
EndSplineSet
EndChar

StartChar: caron
Encoding: 711 711 201
Width: 1428
GlyphClass: 2
Flags: HW
LayerCount: 2
Fore
SplineSet
714 633 m 1,0,-1
 926 1010 l 1,1,-1
 1054 932 l 1,2,-1
 762 431 l 1,3,-1
 666 431 l 1,4,-1
 374 932 l 1,5,-1
 502 1010 l 1,6,-1
 714 633 l 1,0,-1
EndSplineSet
EndChar

StartChar: ring
Encoding: 730 730 202
Width: 1707
GlyphClass: 2
Flags: HW
LayerCount: 2
Fore
SplineSet
854 1035 m 256,0,1
 746 1035 746 1035 679 1101 c 128,-1,2
 612 1167 612 1167 612 1275 c 128,-1,3
 612 1383 612 1383 679 1449 c 128,-1,4
 746 1515 746 1515 854 1515 c 128,-1,5
 962 1515 962 1515 1029 1449 c 128,-1,6
 1096 1383 1096 1383 1096 1275 c 128,-1,7
 1096 1167 1096 1167 1029 1101 c 128,-1,8
 962 1035 962 1035 854 1035 c 256,0,1
749.5 1168.5 m 128,-1,10
 790 1126 790 1126 853.5 1126 c 128,-1,11
 917 1126 917 1126 958 1168.5 c 128,-1,12
 999 1211 999 1211 999 1275 c 128,-1,13
 999 1339 999 1339 958 1381.5 c 128,-1,14
 917 1424 917 1424 853.5 1424 c 128,-1,15
 790 1424 790 1424 749.5 1381.5 c 128,-1,16
 709 1339 709 1339 709 1275 c 128,-1,9
 709 1211 709 1211 749.5 1168.5 c 128,-1,10
EndSplineSet
EndChar

StartChar: tilde
Encoding: 732 732 203
Width: 1707
GlyphClass: 2
Flags: HW
LayerCount: 2
Fore
SplineSet
1231 1285 m 1,0,1
 1231 1176 1231 1176 1182.5 1105.5 c 128,-1,2
 1134 1035 1134 1035 1039 1035 c 0,3,4
 946 1034 946 1034 852 1094 c 0,5,6
 733 1149 733 1149 686 1154 c 1,7,8
 650 1154 650 1154 638.5 1125 c 128,-1,9
 627 1096 627 1096 627 1039 c 1,10,-1
 471 1039 l 1,11,12
 471 1299 471 1299 672 1299 c 0,13,14
 766 1299 766 1299 851 1236.5 c 128,-1,15
 936 1174 936 1174 1016 1174 c 0,16,17
 1075 1174 1075 1174 1075 1285 c 1,18,-1
 1231 1285 l 1,0,1
EndSplineSet
EndChar

StartChar: acutecomb
Encoding: 769 769 204
Width: 1097
GlyphClass: 2
Flags: HW
LayerCount: 2
Fore
SplineSet
546 1639 m 1,0,-1
 489 1665 l 1,1,-1
 648 2276 l 1,2,-1
 880 2185 l 1,3,-1
 546 1639 l 1,0,-1
EndSplineSet
EndChar

StartChar: uni0306
Encoding: 774 774 205
Width: 780
GlyphClass: 2
Flags: HW
LayerCount: 2
Fore
SplineSet
385 1509 m 256,0,1
 450 1509 450 1509 488 1543 c 128,-1,2
 526 1577 526 1577 526 1638 c 1,3,-1
 643 1638 l 1,4,5
 643 1399 643 1399 385 1399 c 0,6,7
 259 1399 259 1399 191 1459 c 128,-1,8
 123 1519 123 1519 123 1638 c 1,9,-1
 240 1638 l 1,10,11
 240 1577 240 1577 280 1543 c 128,-1,12
 320 1509 320 1509 385 1509 c 256,0,1
EndSplineSet
EndChar

StartChar: uni0E81
Encoding: 3713 3713 206
Width: 1510
GlyphClass: 2
Flags: HW
LayerCount: 2
Fore
SplineSet
292 396 m 1,0,-1
 411 380 l 1,1,-1
 411 827 l 1,2,3
 356 808 356 808 311 808 c 0,4,5
 204 808 204 808 142 855 c 128,-1,6
 80 902 80 902 80 998 c 128,-1,7
 80 1094 80 1094 143 1143 c 128,-1,8
 206 1192 206 1192 307 1192 c 0,9,10
 500 1192 500 1192 559 1028 c 1,11,12
 567 1033 567 1033 605 1059 c 128,-1,13
 643 1085 643 1085 656.5 1093 c 128,-1,14
 670 1101 670 1101 705.5 1122 c 128,-1,15
 741 1143 741 1143 763.5 1151 c 128,-1,16
 786 1159 786 1159 820 1171 c 0,17,18
 880 1192 880 1192 980 1192 c 128,-1,19
 1080 1192 1080 1192 1162.5 1163 c 0,20,21
 1244 1134 1244 1134 1294 1072 c 0,22,23
 1386 958 1386 958 1386 711 c 2,24,-1
 1386 0 l 1,25,-1
 1215 0 l 1,26,-1
 1215 768 l 2,27,28
 1216 934 1216 934 1166 1007 c 0,29,30
 1112 1086 1112 1086 953 1086 c 0,31,32
 805 1086 805 1086 644 962 c 0,33,34
 629 950 629 950 582 916 c 1,35,-1
 582 361 l 2,36,37
 582 0 582 0 314 0 c 0,38,39
 81 0 81 0 81 197 c 0,40,41
 81 286 81 286 140.5 340 c 128,-1,42
 200 394 200 394 292 396 c 1,0,-1
411 936 m 1,43,44
 411 1090 411 1090 315 1090 c 0,45,46
 268 1090 268 1090 240 1068.5 c 128,-1,47
 212 1047 212 1047 212 1005 c 0,48,49
 212 908 212 908 307 908 c 0,50,51
 353 908 353 908 411 936 c 1,43,44
214 197 m 0,52,53
 214 153 214 153 239 127.5 c 128,-1,54
 264 102 264 102 299 102 c 128,-1,55
 334 102 334 102 353 111.5 c 128,-1,56
 372 121 372 121 383 135.5 c 128,-1,57
 394 150 394 150 400 174 c 0,58,59
 410 212 410 212 411 273 c 2,60,-1
 411 306 l 1,61,-1
 332 306 l 2,62,63
 214 306 214 306 214 197 c 0,52,53
EndSplineSet
EndChar

StartChar: uni0E82
Encoding: 3714 3714 207
Width: 1327
GlyphClass: 2
Flags: HW
LayerCount: 2
Fore
SplineSet
263 227 m 0,0,1
 263 133 263 133 358 133 c 0,2,3
 403 133 403 133 442 149.5 c 128,-1,4
 481 166 481 166 520 185 c 128,-1,5
 559 204 559 204 572 210 c 2,6,-1
 820 323 l 2,7,8
 918 368 918 368 1020 373 c 1,9,10
 1210 369 1210 369 1210 152 c 2,11,-1
 1210 0 l 1,12,-1
 1042 0 l 1,13,-1
 1042 151 l 2,14,15
 1042 190 1042 190 1022.5 214 c 128,-1,16
 1003 238 1003 238 959 238 c 128,-1,17
 915 238 915 238 855 207 c 1,18,-1
 519 53 l 2,19,20
 402 0 402 0 313.5 0 c 128,-1,21
 225 0 225 0 159.5 60 c 128,-1,22
 94 120 94 120 94 218 c 0,23,24
 94 305 94 305 138 355 c 0,25,26
 186 410 186 410 233 432 c 0,27,28
 301 465 301 465 342 479 c 128,-1,29
 383 493 383 493 388 495 c 2,30,-1
 629 583 l 2,31,32
 656 593 656 593 711 610 c 128,-1,33
 766 627 766 627 804 639 c 128,-1,34
 842 651 842 651 890 673.5 c 128,-1,35
 938 696 938 696 968 721 c 0,36,37
 1040 782 1040 782 1039 872 c 0,38,39
 1039 966 1039 966 980 1013 c 0,40,41
 920 1061 920 1061 853 1071 c 0,42,43
 749 1088 749 1088 650 1088 c 0,44,45
 417 1088 417 1088 313 1009 c 1,46,47
 337 1012 337 1012 363 1012 c 0,48,49
 464 1012 464 1012 522.5 959 c 128,-1,50
 581 906 581 906 581 809 c 128,-1,51
 581 712 581 712 518 664.5 c 128,-1,52
 455 617 455 617 350 617 c 0,53,54
 109 617 109 617 109 861 c 0,55,56
 110 1134 110 1134 492 1181 c 0,57,58
 566 1190 566 1190 653 1190 c 128,-1,59
 740 1190 740 1190 813.5 1183 c 128,-1,60
 887 1176 887 1176 964 1155 c 128,-1,61
 1041 1134 1041 1134 1093 1100 c 128,-1,62
 1145 1066 1145 1066 1178 1006.5 c 128,-1,63
 1211 947 1211 947 1211 884 c 128,-1,64
 1211 821 1211 821 1197.5 781 c 128,-1,65
 1184 741 1184 741 1157 710.5 c 128,-1,66
 1130 680 1130 680 1101.5 657 c 128,-1,67
 1073 634 1073 634 1030 613 c 0,68,69
 969 583 969 583 916.5 564 c 128,-1,70
 864 545 864 545 857 542 c 2,71,-1
 382 362 l 1,72,73
 291 325 291 325 272 280 c 0,74,75
 263 258 263 258 263 227 c 0,0,1
356 710 m 0,76,77
 450 710 450 710 450 820 c 0,78,79
 450 877 450 877 412 898 c 128,-1,80
 374 919 374 919 304 919 c 2,81,-1
 245 919 l 1,82,83
 235 884 235 884 235 856 c 0,84,85
 235 710 235 710 356 710 c 0,76,77
EndSplineSet
EndChar

StartChar: uni0E84
Encoding: 3716 3716 208
Width: 1282
GlyphClass: 2
Flags: HW
LayerCount: 2
Fore
SplineSet
636 1085 m 0,0,1
 272 1085 272 1085 272 894 c 0,2,3
 272 810 272 810 326 760.5 c 128,-1,4
 380 711 380 711 466 711 c 2,5,-1
 601 711 l 1,6,-1
 601 590 l 1,7,-1
 466 590 l 2,8,9
 376 590 376 590 328 536.5 c 128,-1,10
 280 483 280 483 273 389 c 1,11,-1
 273 380 l 1,12,-1
 339 391 l 2,13,14
 364 395 364 395 393 395 c 0,15,16
 489 395 489 395 545.5 346 c 128,-1,17
 602 297 602 297 602 199.5 c 128,-1,18
 602 102 602 102 540.5 51 c 128,-1,19
 479 0 479 0 360 0 c 128,-1,20
 241 0 241 0 174 93 c 128,-1,21
 107 186 107 186 107 327 c 128,-1,22
 107 468 107 468 181 550 c 128,-1,23
 255 632 255 632 387 650 c 1,24,25
 268 652 268 652 187.5 715.5 c 128,-1,26
 107 779 107 779 107 890 c 0,27,28
 107 1192 107 1192 636 1192 c 0,29,30
 917 1192 917 1192 1048 1090 c 0,31,32
 1186 982 1186 982 1186 711 c 2,33,-1
 1186 0 l 1,34,-1
 1014 0 l 1,35,-1
 1014 706 l 2,36,37
 1014 915 1014 915 929.5 1000 c 128,-1,38
 845 1085 845 1085 636 1085 c 0,0,1
273 284 m 1,39,40
 276 103 276 103 372.5 103 c 128,-1,41
 469 103 469 103 469 207 c 0,42,43
 469 262 469 262 435.5 284 c 128,-1,44
 402 306 402 306 339 306 c 2,45,-1
 273 306 l 1,46,-1
 273 284 l 1,39,40
EndSplineSet
EndChar

StartChar: uni0E87
Encoding: 3719 3719 209
Width: 1072
GlyphClass: 2
Flags: HW
LayerCount: 2
Fore
SplineSet
993 144 m 2,0,1
 994 -315 994 -315 730 -422 c 0,2,3
 632 -462 632 -462 490 -462 c 0,4,5
 286 -462 286 -462 176 -383.5 c 128,-1,6
 66 -305 66 -305 66 -129 c 1,7,-1
 196 -129 l 1,8,9
 200 -354 200 -354 486 -354 c 0,10,11
 638 -354 638 -354 708 -292 c 0,12,13
 783 -225 783 -225 804 -119 c 0,14,15
 825 -14 825 -14 825 141 c 2,16,-1
 825 646 l 2,17,18
 825 859 825 859 760 969 c 0,19,20
 689 1089 689 1089 490 1089 c 2,21,-1
 457 1089 l 1,22,23
 486 1002 486 1002 486 971 c 0,24,25
 482 795 482 795 269 795 c 0,26,27
 173 795 173 795 108.5 843.5 c 128,-1,28
 44 892 44 892 44 980 c 0,29,30
 44 1192 44 1192 442 1192 c 0,31,32
 712 1192 712 1192 852.5 1054.5 c 128,-1,33
 993 917 993 917 993 651 c 2,34,-1
 993 144 l 2,0,1
178 983 m 0,35,36
 178 887 178 887 278 887 c 0,37,38
 367 887 367 887 367 998 c 2,39,-1
 367 1089 l 1,40,41
 230 1085 230 1085 194 1037 c 0,42,43
 178 1015 178 1015 178 983 c 0,35,36
EndSplineSet
EndChar

StartChar: uni0E88
Encoding: 3720 3720 210
Width: 1369
GlyphClass: 2
Flags: HW
LayerCount: 2
Fore
SplineSet
614 877 m 0,0,1
 864 877 864 877 864 598 c 0,2,3
 864 423 864 423 922.5 277.5 c 128,-1,4
 981 132 981 132 1087 69 c 1,5,-1
 1087 681 l 2,6,7
 1087 907 1087 907 997.5 996 c 128,-1,8
 908 1085 908 1085 682 1085 c 0,9,10
 194 1085 194 1085 187 754 c 1,11,-1
 187 732 l 1,12,-1
 35 732 l 1,13,14
 34 747 34 747 34 765 c 2,15,-1
 34 780 l 2,16,17
 34 1034 34 1034 310 1136 c 0,18,19
 464 1192 464 1192 642 1192 c 128,-1,20
 820 1192 820 1192 927 1167 c 128,-1,21
 1034 1142 1034 1142 1110 1082 c 0,22,23
 1257 967 1257 967 1257 676 c 2,24,-1
 1257 2 l 1,25,-1
 1100 -70 l 1,26,-1
 1054 -50 l 1,27,28
 913 22 913 22 824 160.5 c 128,-1,29
 735 299 735 299 712 486 c 1,30,-1
 666 478 l 1,31,32
 621 473 621 473 608 473 c 0,33,34
 372 473 372 473 372 670 c 0,35,36
 372 770 372 770 439 823.5 c 128,-1,37
 506 877 506 877 614 877 c 0,0,1
606 782 m 0,38,39
 505 782 505 782 505 672 c 0,40,41
 505 611 505 611 540.5 587 c 128,-1,42
 576 563 576 563 649 563 c 2,43,-1
 704 563 l 1,44,45
 703 567 703 567 703 581 c 2,46,-1
 703 610 l 2,47,48
 703 695 703 695 683 738.5 c 128,-1,49
 663 782 663 782 606 782 c 0,38,39
EndSplineSet
EndChar

StartChar: uni0E8A
Encoding: 3722 3722 211
Width: 1318
GlyphClass: 2
Flags: HW
LayerCount: 2
Fore
SplineSet
250 230 m 0,0,1
 250 140 250 140 340 132 c 1,2,3
 452 136 452 136 598 216 c 0,4,5
 770 311 770 311 843 335 c 128,-1,6
 916 359 916 359 959.5 359 c 128,-1,7
 1003 359 1003 359 1024.5 356.5 c 128,-1,8
 1046 354 1046 354 1063 346 c 128,-1,9
 1080 338 1080 338 1093.5 331.5 c 128,-1,10
 1107 325 1107 325 1118 310 c 128,-1,11
 1129 295 1129 295 1136.5 285.5 c 128,-1,12
 1144 276 1144 276 1151 254 c 128,-1,13
 1158 232 1158 232 1161.5 220 c 128,-1,14
 1165 208 1165 208 1170 180 c 0,15,16
 1178 137 1178 137 1183 93 c 2,17,-1
 1244 -352 l 1,18,-1
 1099 -352 l 1,19,-1
 1042 93 l 2,20,21
 1041 102 1041 102 1039 121.5 c 128,-1,22
 1037 141 1037 141 1035.5 151 c 128,-1,23
 1034 161 1034 161 1031 177.5 c 128,-1,24
 1028 194 1028 194 1023 202.5 c 128,-1,25
 1018 211 1018 211 1011 221 c 0,26,27
 998 239 998 239 953 239 c 128,-1,28
 908 239 908 239 841 214.5 c 128,-1,29
 774 190 774 190 713.5 155 c 128,-1,30
 653 120 653 120 591 84 c 0,31,32
 443 0 443 0 334 0 c 128,-1,33
 225 0 225 0 159.5 60.5 c 128,-1,34
 94 121 94 121 94 220 c 0,35,36
 94 358 94 358 239 433 c 0,37,38
 304 467 304 467 365.5 488.5 c 128,-1,39
 427 510 427 510 438 514 c 2,40,-1
 636 586 l 2,41,42
 660 595 660 595 717 613 c 128,-1,43
 774 631 774 631 813 644.5 c 128,-1,44
 852 658 852 658 904 681.5 c 128,-1,45
 956 705 956 705 988 729 c 0,46,47
 1066 788 1066 788 1065.5 856.5 c 128,-1,48
 1065 925 1065 925 1030.5 970.5 c 128,-1,49
 996 1016 996 1016 936 1040 c 0,50,51
 821 1088 821 1088 661 1088 c 0,52,53
 420 1088 420 1088 312 1008 c 1,54,55
 367 1013 367 1013 370 1013 c 0,56,57
 470 1011 470 1011 527 960 c 128,-1,58
 584 909 584 909 584 812 c 128,-1,59
 584 715 584 715 516.5 660 c 128,-1,60
 449 605 449 605 343 605 c 0,61,62
 106 605 106 605 106 861 c 0,63,64
 106 1066 106 1066 342 1148 c 0,65,66
 470 1192 470 1192 612 1192 c 128,-1,67
 754 1192 754 1192 848 1177 c 128,-1,68
 942 1162 942 1162 1027.5 1127 c 128,-1,69
 1113 1092 1113 1092 1162 1025 c 128,-1,70
 1211 958 1211 958 1211 883.5 c 128,-1,71
 1211 809 1211 809 1193.5 765.5 c 128,-1,72
 1176 722 1176 722 1149.5 693.5 c 128,-1,73
 1123 665 1123 665 1082 640 c 0,74,75
 1023 604 1023 604 883 553 c 1,76,-1
 569 434 l 2,77,78
 501 408 501 408 438 390 c 128,-1,79
 375 372 375 372 342 357.5 c 0,80,81
 310 344 310 344 292 328 c 0,82,83
 250 292 250 292 250 230 c 0,0,1
261 744 m 128,-1,85
 287 707 287 707 347 707 c 128,-1,86
 407 707 407 707 427.5 734.5 c 128,-1,87
 448 762 448 762 450 820 c 1,88,89
 450 919 450 919 309 919 c 2,90,-1
 245 919 l 1,91,92
 235 884 235 884 235 832.5 c 128,-1,84
 235 781 235 781 261 744 c 128,-1,85
EndSplineSet
EndChar

StartChar: uni0E8D
Encoding: 3725 3725 212
Width: 1267
GlyphClass: 2
Flags: HW
LayerCount: 2
Fore
SplineSet
258 300 m 0,0,1
 258 105 258 105 600 105 c 0,2,3
 812 105 812 105 904 180 c 0,4,5
 1000 258 1000 258 1000 465 c 2,6,-1
 1000 1192 l 1,7,-1
 1171 1192 l 1,8,-1
 1171 482 l 2,9,10
 1170 214 1170 214 1032 104 c 0,11,12
 899 0 899 0 622 0 c 0,13,14
 93 0 93 0 93 302 c 0,15,16
 93 410 93 410 174.5 475.5 c 128,-1,17
 256 541 256 541 373 541 c 1,18,19
 237 555 237 555 165 636 c 128,-1,20
 93 717 93 717 93 864.5 c 128,-1,21
 93 1012 93 1012 160.5 1102 c 128,-1,22
 228 1192 228 1192 347 1192 c 0,23,24
 588 1192 588 1192 588 994 c 0,25,26
 588 899 588 899 533.5 849 c 128,-1,27
 479 799 479 799 379 796 c 0,28,29
 372 796 372 796 317 801 c 1,30,-1
 259 812 l 1,31,-1
 259 791 l 2,32,33
 259 708 259 708 309 655.5 c 128,-1,34
 359 603 359 603 442 603 c 2,35,-1
 587 603 l 1,36,-1
 587 481 l 1,37,-1
 442 481 l 2,38,39
 361 481 361 481 309.5 430.5 c 128,-1,40
 258 380 258 380 258 300 c 0,0,1
327 887 m 2,41,42
 394 887 394 887 423.5 908.5 c 128,-1,43
 453 930 453 930 455 986 c 1,44,45
 451 1087 451 1087 368 1089 c 1,46,47
 313 1089 313 1089 286 1048 c 128,-1,48
 259 1007 259 1007 259 940 c 2,49,-1
 259 887 l 1,50,-1
 327 887 l 2,41,42
EndSplineSet
EndChar

StartChar: uni0E94
Encoding: 3732 3732 213
Width: 1296
GlyphClass: 2
Flags: HW
LayerCount: 2
Fore
SplineSet
379 395 m 0,0,1
 482 395 482 395 545 347 c 128,-1,2
 608 299 608 299 608 206 c 0,3,4
 608 0 608 0 363 0 c 0,5,6
 107 0 107 0 107 350 c 2,7,-1
 107 711 l 2,8,9
 107 975 107 975 237 1083.5 c 128,-1,10
 367 1192 367 1192 648 1192 c 0,11,12
 925 1192 925 1192 1059 1088 c 0,13,14
 1198 979 1198 979 1198 711 c 2,15,-1
 1198 0 l 1,16,-1
 1028 0 l 1,17,-1
 1028 706 l 2,18,19
 1028 909 1028 909 940 997 c 128,-1,20
 852 1085 852 1085 649.5 1085 c 128,-1,21
 447 1085 447 1085 362 997 c 128,-1,22
 277 909 277 909 277 706 c 2,23,-1
 277 380 l 1,24,-1
 337 392 l 1,25,26
 368 395 368 395 379 395 c 0,0,1
277 265 m 2,27,28
 277 185 277 185 298 144.5 c 128,-1,29
 319 104 319 104 381 102 c 1,30,31
 473 105 473 105 474 206 c 0,32,33
 474 264 474 264 439 285 c 128,-1,34
 404 306 404 306 331 306 c 2,35,-1
 277 306 l 1,36,-1
 277 265 l 2,27,28
EndSplineSet
EndChar

StartChar: uni0E95
Encoding: 3733 3733 214
Width: 1549
GlyphClass: 2
Flags: HW
LayerCount: 2
Fore
SplineSet
495 1192 m 0,0,1
 743 1192 743 1192 779 955 c 1,2,3
 797 1077 797 1077 867 1134.5 c 128,-1,4
 937 1192 937 1192 1058 1192 c 128,-1,5
 1179 1192 1179 1192 1254 1158.5 c 0,6,7
 1330 1125 1330 1125 1372 1059 c 0,8,9
 1452 936 1452 936 1451 706 c 2,10,-1
 1451 0 l 1,11,-1
 1281 0 l 1,12,-1
 1281 715 l 2,13,14
 1281 900 1281 900 1250 970 c 0,15,16
 1216 1047 1216 1047 1160 1070 c 0,17,18
 1126 1084 1126 1084 1081.5 1084 c 128,-1,19
 1037 1084 1037 1084 1003.5 1072.5 c 128,-1,20
 970 1061 970 1061 947.5 1044 c 128,-1,21
 925 1027 925 1027 909 995 c 128,-1,22
 893 963 893 963 885 934.5 c 0,23,24
 876 906 876 906 872 859 c 0,25,26
 866 791 866 791 866 687 c 2,27,-1
 866 553 l 1,28,-1
 694 553 l 1,29,-1
 694 687 l 2,30,31
 694 894 694 894 669 960 c 0,32,33
 647 1018 647 1018 630 1034 c 128,-1,34
 613 1050 613 1050 595 1062 c 0,35,36
 560 1085 560 1085 502 1085 c 129,-1,37
 444 1085 444 1085 402.5 1068.5 c 128,-1,38
 361 1052 361 1052 336.5 1025 c 128,-1,39
 312 998 312 998 298 952 c 0,40,41
 276 879 276 879 277 745 c 2,42,-1
 277 382 l 1,43,-1
 318 391 l 1,44,45
 362 395 362 395 377 395 c 0,46,47
 483 395 483 395 545.5 348 c 128,-1,48
 608 301 608 301 608 199 c 0,49,50
 608 0 608 0 365 0 c 0,51,52
 233 0 233 0 170 89 c 128,-1,53
 107 178 107 178 107 332 c 2,54,-1
 107 711 l 2,55,56
 106 1076 106 1076 308 1160 c 0,57,58
 384 1192 384 1192 495 1192 c 0,0,1
475 206 m 0,59,60
 475 261 475 261 439 283.5 c 128,-1,61
 403 306 403 306 336 306 c 2,62,-1
 277 306 l 1,63,-1
 277 246 l 2,64,65
 277 102 277 102 385 102 c 0,66,67
 474 102 474 102 475 206 c 0,59,60
EndSplineSet
EndChar

StartChar: uni0E96
Encoding: 3734 3734 215
Width: 1380
GlyphClass: 2
Flags: HW
LayerCount: 2
Fore
SplineSet
850 1192 m 0,0,1
 1076 1192 1076 1192 1176.5 1078 c 128,-1,2
 1277 964 1277 964 1277 729 c 2,3,-1
 1277 -336 l 1,4,-1
 1107 -336 l 1,5,-1
 1107 747 l 2,6,7
 1107 923 1107 923 1050.5 1004 c 128,-1,8
 994 1085 994 1085 839 1085 c 0,9,10
 754 1085 754 1085 693.5 1054.5 c 128,-1,11
 633 1024 633 1024 606.5 1008.5 c 128,-1,12
 580 993 580 993 533 961.5 c 128,-1,13
 486 930 486 930 469 919 c 1,14,-1
 469 381 l 1,15,-1
 503 389 l 2,16,17
 522 393 522 393 568 393 c 0,18,19
 676 393 676 393 737.5 347 c 128,-1,20
 799 301 799 301 799 206 c 1,21,22
 787 0 787 0 557 0 c 0,23,24
 299 0 299 0 299 348 c 2,25,-1
 299 831 l 1,26,27
 231 809 231 809 185 809 c 0,28,29
 77 809 77 809 26.5 855.5 c 128,-1,30
 -24 902 -24 902 -32 1003 c 1,31,32
 -32 1099 -32 1099 31 1145.5 c 128,-1,33
 94 1192 94 1192 205 1192 c 0,34,35
 393 1192 393 1192 447 1035 c 0,36,37
 447 1032 447 1032 448 1031 c 1,38,39
 456 1036 456 1036 487 1057 c 128,-1,40
 518 1078 518 1078 527.5 1084 c 128,-1,41
 537 1090 537 1090 565 1107.5 c 128,-1,42
 593 1125 593 1125 607 1131.5 c 128,-1,43
 621 1138 621 1138 647.5 1151 c 128,-1,44
 674 1164 674 1164 693.5 1169 c 128,-1,45
 713 1174 713 1174 740 1180 c 0,46,47
 788 1192 788 1192 850 1192 c 0,0,1
101 1005 m 1,48,49
 106 914 106 914 196 914 c 0,50,51
 242 914 242 914 299 941 c 1,52,-1
 299 949 l 2,53,54
 299 1022 299 1022 276.5 1056.5 c 128,-1,55
 254 1091 254 1091 195 1091 c 0,56,57
 103 1091 103 1091 101 1005 c 1,48,49
563 102 m 0,58,59
 661 102 661 102 665 192 c 1,60,-1
 665 206 l 2,61,62
 665 263 665 263 630.5 284.5 c 128,-1,63
 596 306 596 306 527 306 c 2,64,-1
 469 306 l 1,65,-1
 469 260 l 2,66,67
 469 185 469 185 489 143.5 c 128,-1,68
 509 102 509 102 563 102 c 0,58,59
EndSplineSet
EndChar

StartChar: uni0E97
Encoding: 3735 3735 216
Width: 1497
GlyphClass: 2
Flags: HW
LayerCount: 2
Fore
SplineSet
515 0 m 1,0,1
 178 0 178 0 178 298 c 0,2,3
 178 436 178 436 254 658 c 0,4,5
 292 771 292 771 303 811 c 1,6,-1
 229 797 l 1,7,8
 129 797 129 797 71.5 848 c 128,-1,9
 14 899 14 899 14 995 c 0,10,11
 14 1192 14 1192 247 1192 c 0,12,13
 361 1192 361 1192 431 1141 c 128,-1,14
 501 1090 501 1090 501 990 c 0,15,16
 501 956 501 956 489 906 c 1,17,18
 350 404 350 404 350 307 c 128,-1,19
 350 210 350 210 387.5 158 c 128,-1,20
 425 106 425 106 512 106 c 0,21,22
 602 106 602 106 642 160 c 0,23,24
 685 217 685 217 694 278 c 0,25,26
 706 368 706 368 706 464 c 2,27,-1
 706 741 l 2,28,29
 706 961 706 961 786 1076.5 c 128,-1,30
 866 1192 866 1192 1051 1192 c 0,31,32
 1248 1192 1248 1192 1324 1066 c 0,33,34
 1394 951 1394 951 1394 738 c 2,35,-1
 1394 0 l 1,36,-1
 1226 0 l 1,37,-1
 1226 808 l 2,38,39
 1226 1085 1226 1085 1058 1085 c 0,40,41
 878 1085 878 1085 878 819 c 2,42,-1
 878 500 l 2,43,44
 878 308 878 308 845 218.5 c 128,-1,45
 812 129 812 129 772 88 c 0,46,47
 686 0 686 0 515 0 c 1,0,1
323 1063.5 m 128,-1,49
 295 1089 295 1089 247 1089 c 0,50,51
 148 1089 148 1089 148 999 c 2,52,-1
 148 993 l 2,53,54
 148 934 148 934 180 910.5 c 128,-1,55
 212 887 212 887 278 887 c 2,56,-1
 324 887 l 1,57,-1
 333 914 l 2,58,59
 351 968 351 968 351 1003 c 128,-1,48
 351 1038 351 1038 323 1063.5 c 128,-1,49
EndSplineSet
EndChar

StartChar: uni0E99
Encoding: 3737 3737 217
Width: 1423
GlyphClass: 2
Flags: HW
LayerCount: 2
Fore
SplineSet
227 796 m 0,0,1
 130 796 130 796 71 846 c 128,-1,2
 12 896 12 896 10 987 c 1,3,4
 11 1192 11 1192 243 1192 c 0,5,6
 509 1192 509 1192 509 861 c 2,7,-1
 509 435 l 2,8,9
 509 266 509 266 593 186 c 128,-1,10
 677 106 677 106 841.5 106 c 128,-1,11
 1006 106 1006 106 1079 177 c 128,-1,12
 1152 248 1152 248 1152 402 c 2,13,-1
 1152 1192 l 1,14,-1
 1322 1192 l 1,15,-1
 1322 462 l 2,16,17
 1322 228 1322 228 1204 114 c 128,-1,18
 1086 0 1086 0 849 0 c 0,19,20
 680 0 680 0 569 63.5 c 128,-1,21
 458 127 458 127 427 254 c 1,22,23
 398 130 398 130 298.5 65 c 128,-1,24
 199 0 199 0 42 0 c 1,25,-1
 42 107 l 1,26,27
 187 107 187 107 263.5 193 c 128,-1,28
 340 279 340 279 340 432 c 2,29,-1
 340 824 l 1,30,31
 273 796 273 796 227 796 c 0,0,1
320 1047.5 m 128,-1,33
 300 1089 300 1089 246 1089 c 128,-1,34
 192 1089 192 1089 167.5 1064.5 c 128,-1,35
 143 1040 143 1040 143 984 c 128,-1,36
 143 928 143 928 175.5 907.5 c 128,-1,37
 208 887 208 887 278 887 c 2,38,-1
 340 887 l 1,39,-1
 340 927 l 2,40,32
 340 1006 340 1006 320 1047.5 c 128,-1,33
EndSplineSet
EndChar

StartChar: uni0E9A
Encoding: 3738 3738 218
Width: 1318
GlyphClass: 2
Flags: HW
LayerCount: 2
Fore
SplineSet
473 834 m 2,0,-1
 363 403 l 1,1,2
 350 346 350 346 350 291 c 128,-1,3
 350 236 350 236 380 198.5 c 0,4,5
 410 162 410 162 462 142 c 0,6,7
 558 106 558 106 691 106 c 1,8,9
 884 106 884 106 964.5 190 c 128,-1,10
 1045 274 1045 274 1045 471 c 2,11,-1
 1045 1192 l 1,12,-1
 1215 1192 l 1,13,-1
 1215 500 l 2,14,15
 1215 235 1215 235 1090.5 117.5 c 128,-1,16
 966 0 966 0 697 0 c 0,17,18
 313 0 313 0 210 188 c 0,19,20
 180 243 180 243 180 307.5 c 128,-1,21
 180 372 180 372 194 415 c 1,22,-1
 307 809 l 1,23,24
 258 795 258 795 227 795 c 0,25,26
 133 795 133 795 74 849 c 128,-1,27
 15 903 15 903 15 995 c 0,28,29
 15 1190 15 1190 269 1192 c 0,30,31
 368 1192 368 1192 435 1135 c 128,-1,32
 502 1078 502 1078 502 985 c 0,33,34
 502 950 502 950 473 834 c 2,0,-1
242 1089 m 0,35,36
 151 1089 151 1089 149 995 c 1,37,38
 149 932 149 932 182.5 909.5 c 128,-1,39
 216 887 216 887 288 887 c 2,40,-1
 327 887 l 1,41,-1
 347 955 l 2,42,43
 352 975 352 975 352 986 c 0,44,45
 352 1035 352 1035 323 1062 c 128,-1,46
 294 1089 294 1089 242 1089 c 0,35,36
EndSplineSet
EndChar

StartChar: uni0E9B
Encoding: 3739 3739 219
Width: 1318
GlyphClass: 2
Flags: HW
LayerCount: 2
Fore
SplineSet
222 795 m 0,0,1
 132 795 132 795 74 850.5 c 128,-1,2
 16 906 16 906 16 995 c 0,3,4
 16 1184 16 1184 265 1192 c 1,5,6
 368 1192 368 1192 435.5 1143.5 c 128,-1,7
 503 1095 503 1095 503 1013.5 c 128,-1,8
 503 932 503 932 482 866 c 1,9,-1
 365 406 l 1,10,11
 351 357 351 357 351 306 c 128,-1,12
 351 255 351 255 372.5 220 c 128,-1,13
 394 185 394 185 428 164 c 0,14,15
 462 144 462 144 510 130 c 0,16,17
 593 106 593 106 704 106 c 1,18,19
 892 106 892 106 970 195 c 128,-1,20
 1048 284 1048 284 1048 480 c 2,21,-1
 1048 1541 l 1,22,-1
 1217 1541 l 1,23,-1
 1217 522 l 2,24,25
 1217 245 1217 245 1096.5 122.5 c 128,-1,26
 976 0 976 0 701 0 c 0,27,28
 313 0 313 0 211 187 c 0,29,30
 181 242 181 242 181 308.5 c 128,-1,31
 181 375 181 375 195 420 c 2,32,-1
 307 808 l 1,33,34
 259 795 259 795 222 795 c 0,0,1
353 998 m 0,35,36
 353 1089 353 1089 253 1089 c 1,37,38
 155 1080 155 1080 150 997 c 1,39,40
 150 932 150 932 181.5 909.5 c 128,-1,41
 213 887 213 887 286 887 c 2,42,-1
 328 887 l 1,43,-1
 348 955 l 1,44,45
 353 990 353 990 353 998 c 0,35,36
EndSplineSet
EndChar

StartChar: uni0E9C
Encoding: 3740 3740 220
Width: 1679
GlyphClass: 2
Flags: HW
LayerCount: 2
Fore
SplineSet
1178 796 m 0,0,1
 941 796 941 796 941 990 c 0,2,3
 941 1095 941 1095 1004 1142 c 128,-1,4
 1067 1189 1067 1189 1187 1192 c 1,5,6
 1390 1190 1390 1190 1427 969 c 1,7,8
 1467 1028 1467 1028 1467 1137 c 2,9,-1
 1467 1337 l 1,10,-1
 1594 1337 l 1,11,-1
 1594 1137 l 2,12,13
 1594 1038 1594 1038 1554 972.5 c 128,-1,14
 1514 907 1514 907 1440 858 c 1,15,16
 1441 839 1441 839 1441 810 c 2,17,-1
 1441 521 l 2,18,19
 1441 138 1441 138 1247 38 c 0,20,21
 1174 0 1174 0 1059.5 0 c 128,-1,22
 945 0 945 0 868.5 64 c 128,-1,23
 792 128 792 128 774 244 c 1,24,25
 758 126 758 126 683.5 63 c 128,-1,26
 609 0 609 0 488.5 0 c 128,-1,27
 368 0 368 0 293.5 34 c 128,-1,28
 219 68 219 68 179 137 c 0,29,30
 107 261 107 261 107 502 c 2,31,-1
 107 868 l 2,32,33
 107 1192 107 1192 370 1192 c 0,34,35
 608 1192 608 1192 608 987 c 0,36,37
 608 898 608 898 548 847 c 128,-1,38
 488 796 488 796 392 796 c 0,39,40
 341 796 341 796 276 819 c 1,41,-1
 276 443 l 2,42,43
 276 236 276 236 329 169 c 0,44,45
 379 106 379 106 481 106 c 0,46,47
 604 106 604 106 649 206 c 0,48,49
 688 294 688 294 688 450 c 2,50,-1
 688 511 l 1,51,-1
 859 511 l 1,52,-1
 859 449 l 2,53,54
 859 106 859 106 1068 106 c 0,55,56
 1192 106 1192 106 1234 201 c 0,57,58
 1272 286 1272 286 1272 435 c 2,59,-1
 1272 802 l 1,60,61
 1230 796 1230 796 1178 796 c 0,0,1
1171 1089 m 0,62,63
 1075 1089 1075 1089 1075 993 c 0,64,65
 1075 928 1075 928 1112 907 c 128,-1,66
 1149 886 1149 886 1199.5 886 c 128,-1,67
 1250 886 1250 886 1272 889 c 1,68,-1
 1272 927 l 2,69,70
 1272 1007 1272 1007 1251 1048 c 128,-1,71
 1230 1089 1230 1089 1171 1089 c 0,62,63
473 986 m 0,72,73
 473 1088 473 1088 379 1089 c 0,74,75
 320 1089 320 1089 298 1046.5 c 128,-1,76
 276 1004 276 1004 276 927 c 2,77,-1
 276 887 l 1,78,-1
 332 887 l 2,79,80
 403 887 403 887 438 907 c 128,-1,81
 473 927 473 927 473 986 c 0,72,73
EndSplineSet
EndChar

StartChar: uni0E9D
Encoding: 3741 3741 221
Width: 1547
GlyphClass: 2
Flags: HW
LayerCount: 2
Fore
SplineSet
275 437 m 2,0,1
 275 236 275 236 333 168 c 0,2,3
 384 108 384 108 487 106 c 1,4,5
 608 106 608 106 653 202 c 0,6,7
 692 286 692 286 692 437 c 2,8,-1
 692 513 l 1,9,-1
 862 513 l 1,10,-1
 862 437 l 2,11,12
 862 106 862 106 1062 106 c 0,13,14
 1217 106 1217 106 1256 238 c 0,15,16
 1278 313 1278 313 1278 437 c 2,17,-1
 1278 1541 l 1,18,-1
 1450 1541 l 1,19,-1
 1450 521 l 2,20,21
 1450 322 1450 322 1416.5 229 c 0,22,23
 1382 136 1382 136 1342 93 c 0,24,25
 1254 0 1254 0 1081 0 c 1,26,27
 826 3 826 3 777 244 c 1,28,29
 750 122 750 122 682 62 c 128,-1,30
 614 2 614 2 504 2 c 0,31,32
 502 2 502 2 499 1 c 0,33,34
 392 0 392 0 326 24 c 128,-1,35
 260 48 260 48 218 89 c 128,-1,36
 176 130 176 130 150 195 c 0,37,38
 106 308 106 308 106 508 c 2,39,-1
 106 839 l 2,40,41
 106 1010 106 1010 166 1098 c 128,-1,42
 226 1186 226 1186 369 1192 c 1,43,44
 607 1189 607 1189 607 998 c 0,45,46
 607 901 607 901 548.5 848.5 c 128,-1,47
 490 796 490 796 388 796 c 0,48,49
 342 796 342 796 275 824 c 1,50,-1
 275 437 l 2,0,1
473 987 m 0,51,52
 473 1089 473 1089 384 1089 c 0,53,54
 320 1089 320 1089 297.5 1049 c 128,-1,55
 275 1009 275 1009 275 927 c 2,56,-1
 275 887 l 1,57,-1
 332 887 l 2,58,59
 403 887 403 887 438 907.5 c 128,-1,60
 473 928 473 928 473 987 c 0,51,52
EndSplineSet
EndChar

StartChar: uni0E9E
Encoding: 3742 3742 222
Width: 1563
GlyphClass: 2
Flags: HW
LayerCount: 2
Fore
SplineSet
13 1000 m 0,0,1
 13 1192 13 1192 267 1192 c 0,2,3
 367 1192 367 1192 433.5 1135 c 128,-1,4
 500 1078 500 1078 500 983 c 0,5,6
 500 946 500 946 485 887 c 2,7,-1
 372 442 l 2,8,9
 347 345 347 345 347 267 c 128,-1,10
 347 189 347 189 388 147.5 c 128,-1,11
 429 106 429 106 492.5 106 c 128,-1,12
 556 106 556 106 592 122.5 c 128,-1,13
 628 139 628 139 650.5 166.5 c 0,14,15
 672 194 672 194 686 236 c 0,16,17
 710 309 710 309 710 429 c 2,18,-1
 710 1192 l 1,19,-1
 880 1192 l 1,20,-1
 880 429 l 2,21,22
 880 106 880 106 1097 106 c 0,23,24
 1268 106 1268 106 1290 328 c 0,25,26
 1294 374 1294 374 1294 434 c 2,27,-1
 1294 1192 l 1,28,-1
 1463 1192 l 1,29,-1
 1463 522 l 2,30,31
 1463 321 1463 321 1430.5 229 c 128,-1,32
 1398 137 1398 137 1358 94 c 0,33,34
 1271 0 1271 0 1097 0 c 1,35,36
 964 0 964 0 894.5 63.5 c 128,-1,37
 825 127 825 127 795 249 c 1,38,39
 773 120 773 120 699.5 60 c 128,-1,40
 626 0 626 0 478.5 0 c 128,-1,41
 331 0 331 0 252.5 75 c 128,-1,42
 174 150 174 150 174 297 c 0,43,44
 174 352 174 352 192 415 c 2,45,-1
 303 808 l 1,46,47
 255 795 255 795 225 795 c 0,48,49
 126 795 126 795 69.5 849 c 128,-1,50
 13 903 13 903 13 1000 c 0,0,1
241 1089 m 0,51,52
 149 1089 149 1089 147 997 c 1,53,54
 147 933 147 933 178.5 910 c 128,-1,55
 210 887 210 887 281 887 c 2,56,-1
 325 887 l 1,57,-1
 342 946 l 2,58,59
 344 954 344 954 346 971 c 128,-1,60
 348 988 348 988 350 996 c 1,61,62
 350 1039 350 1039 320 1064 c 128,-1,63
 290 1089 290 1089 241 1089 c 0,51,52
EndSplineSet
EndChar

StartChar: uni0E9F
Encoding: 3743 3743 223
Width: 1654
GlyphClass: 2
Flags: HW
LayerCount: 2
Fore
SplineSet
13 996 m 0,0,1
 13 1192 13 1192 255 1192 c 0,2,3
 362 1192 362 1192 431 1140.5 c 128,-1,4
 500 1089 500 1089 500 993 c 0,5,6
 500 960 500 960 482 888 c 2,7,-1
 375 460 l 1,8,9
 345 365 345 365 345 283 c 128,-1,10
 345 201 345 201 384.5 153.5 c 128,-1,11
 424 106 424 106 489.5 106 c 128,-1,12
 555 106 555 106 594 122 c 128,-1,13
 633 138 633 138 655 164.5 c 0,14,15
 678 190 678 190 690 234 c 0,16,17
 710 305 710 305 710 429 c 2,18,-1
 710 1192 l 1,19,-1
 880 1192 l 1,20,-1
 880 429 l 2,21,22
 880 188 880 188 992 130 c 0,23,24
 1037 106 1037 106 1095 106 c 128,-1,25
 1153 106 1153 106 1188.5 124 c 128,-1,26
 1224 142 1224 142 1243.5 170 c 0,27,28
 1262 198 1262 198 1274 244 c 0,29,30
 1292 313 1292 313 1292 433 c 2,31,-1
 1292 1542 l 1,32,-1
 1461 1542 l 1,33,-1
 1461 522 l 2,34,35
 1461 321 1461 321 1428.5 229 c 128,-1,36
 1396 137 1396 137 1356 94 c 0,37,38
 1267 0 1267 0 1113 0 c 128,-1,39
 959 0 959 0 890 62 c 128,-1,40
 821 124 821 124 795 249 c 1,41,42
 774 122 774 122 701 61 c 128,-1,43
 628 0 628 0 489 0 c 2,44,-1
 477 0 l 1,45,46
 340 2 340 2 256.5 81 c 128,-1,47
 173 160 173 160 173 296 c 0,48,49
 173 354 173 354 191 418 c 2,50,-1
 305 814 l 1,51,52
 248 800 248 800 211 800 c 0,53,54
 121 800 121 800 67 853 c 128,-1,55
 13 906 13 906 13 996 c 0,0,1
350 1001 m 0,56,57
 350 1040 350 1040 317.5 1065.5 c 128,-1,58
 285 1091 285 1091 240 1091 c 0,59,60
 148 1091 148 1091 146 989 c 1,61,62
 146 931 146 931 181 909.5 c 128,-1,63
 216 888 216 888 286 888 c 2,64,-1
 324 888 l 1,65,-1
 336 931 l 2,66,67
 338 940 338 940 342 954 c 0,68,69
 350 988 350 988 350 1001 c 0,56,57
EndSplineSet
EndChar

StartChar: uni0EA1
Encoding: 3745 3745 224
Width: 1617
GlyphClass: 2
Flags: HW
LayerCount: 2
Fore
SplineSet
703 448 m 2,0,1
 703 274 703 274 785 191 c 128,-1,2
 867 108 867 108 1027 107 c 0,3,4
 1029 107 1029 107 1031 107 c 0,5,6
 1345 107 1345 107 1345 404 c 2,7,-1
 1345 1192 l 1,8,-1
 1515 1192 l 1,9,-1
 1515 504 l 2,10,11
 1515 0 1515 0 1040 0 c 0,12,13
 694 0 694 0 619 255 c 1,14,15
 554 0 554 0 233 0 c 0,16,17
 123 0 123 0 52.5 50.5 c 128,-1,18
 -18 101 -18 101 -18 196.5 c 128,-1,19
 -18 292 -18 292 39 344 c 128,-1,20
 96 396 96 396 194 396 c 0,21,22
 413 396 413 396 413 222 c 0,23,24
 413 190 413 190 388 118 c 1,25,26
 534 172 534 172 534 447 c 2,27,-1
 534 1192 l 1,28,-1
 703 1192 l 1,29,-1
 703 448 l 2,0,1
294 206 m 2,30,31
 294 306 294 306 205 306 c 128,-1,32
 116 306 116 306 116 197 c 0,33,34
 116 138 116 138 148.5 120 c 128,-1,35
 181 102 181 102 254 102 c 1,36,-1
 294 103 l 1,37,-1
 294 206 l 2,30,31
EndSplineSet
EndChar

StartChar: uni0EA2
Encoding: 3746 3746 225
Width: 1323
GlyphClass: 2
Flags: HW
LayerCount: 2
Fore
SplineSet
395 541 m 1,0,1
 114 570 114 570 114 864 c 0,2,3
 114 1012 114 1012 182 1102 c 128,-1,4
 250 1192 250 1192 368.5 1192 c 128,-1,5
 487 1192 487 1192 548.5 1141 c 128,-1,6
 610 1090 610 1090 610 994.5 c 128,-1,7
 610 899 610 899 554.5 848.5 c 128,-1,8
 499 798 499 798 400 796 c 0,9,10
 394 796 394 796 339 801 c 1,11,-1
 280 812 l 1,12,-1
 280 791 l 2,13,14
 280 709 280 709 331 656 c 128,-1,15
 382 603 382 603 464 603 c 2,16,-1
 609 603 l 1,17,-1
 609 481 l 1,18,-1
 464 481 l 2,19,20
 383 481 383 481 331 430 c 128,-1,21
 279 379 279 379 279 311.5 c 128,-1,22
 279 244 279 244 307 205 c 128,-1,23
 335 166 335 166 385 145 c 0,24,25
 480 105 480 105 622 105 c 1,26,-1
 643 106 l 1,27,28
 846 106 846 106 933.5 186.5 c 128,-1,29
 1021 267 1021 267 1021 465 c 2,30,-1
 1021 1159 l 2,31,32
 1021 1379 1021 1379 1084 1528 c 1,33,-1
 1247 1528 l 1,34,35
 1193 1323 1193 1323 1193 1134 c 2,36,-1
 1193 482 l 2,37,38
 1193 214 1193 214 1054 106 c 0,39,40
 920 2 920 2 643 1 c 1,41,42
 114 1 114 1 114 302 c 0,43,44
 114 410 114 410 195.5 475.5 c 128,-1,45
 277 541 277 541 395 541 c 1,0,1
349 887 m 2,46,47
 417 887 417 887 446 908 c 128,-1,48
 475 929 475 929 477 986 c 1,49,50
 474 1087 474 1087 390 1089 c 1,51,52
 335 1089 335 1089 307.5 1048 c 128,-1,53
 280 1007 280 1007 280 940 c 2,54,-1
 280 887 l 1,55,-1
 349 887 l 2,46,47
EndSplineSet
EndChar

StartChar: uni0EA3
Encoding: 3747 3747 226
Width: 1355
GlyphClass: 2
Flags: HW
LayerCount: 2
Fore
SplineSet
339 578 m 1,0,1
 570 578 570 578 570 381 c 0,2,3
 570 295 570 295 516 242.5 c 128,-1,4
 462 190 462 190 377 188 c 1,5,-1
 282 204 l 1,6,7
 399 104 399 104 657 104 c 0,8,9
 860 104 860 104 954 143 c 0,10,11
 1088 199 1088 199 1089 320 c 0,12,13
 1088 432 1088 432 1008 478 c 0,14,15
 943 516 943 516 884 531 c 1,16,-1
 428 688 l 2,17,18
 415 693 415 693 375.5 706 c 128,-1,19
 336 719 336 719 319.5 725 c 128,-1,20
 303 731 303 731 269 746 c 128,-1,21
 235 761 235 761 219 772 c 128,-1,22
 203 783 203 783 179 802.5 c 128,-1,23
 155 822 155 822 144 842 c 0,24,25
 115 893 115 893 115 948 c 0,26,27
 116 1000 116 1000 136 1039 c 0,28,29
 156 1079 156 1079 195 1105 c 128,-1,30
 234 1131 234 1131 281.5 1149 c 128,-1,31
 329 1167 329 1167 392 1176 c 0,32,33
 504 1192 504 1192 611 1192 c 128,-1,34
 718 1192 718 1192 776.5 1189 c 128,-1,35
 835 1186 835 1186 899.5 1177.5 c 128,-1,36
 964 1169 964 1169 1011.5 1154 c 128,-1,37
 1059 1139 1059 1139 1104.5 1113 c 128,-1,38
 1150 1087 1150 1087 1178 1051 c 0,39,40
 1240 971 1240 971 1240 848 c 2,41,-1
 1240 825 l 1,42,-1
 1103 825 l 1,43,-1
 1103 852 l 2,44,45
 1104 984 1104 984 996 1036 c 0,46,47
 905 1080 905 1080 746 1084 c 0,48,49
 706 1085 706 1085 648 1085 c 2,50,-1
 634 1085 l 2,51,52
 494 1085 494 1085 451.5 1077.5 c 128,-1,53
 409 1070 409 1070 378 1060 c 128,-1,54
 347 1050 347 1050 329.5 1036.5 c 128,-1,55
 312 1023 312 1023 299.5 1001.5 c 128,-1,56
 287 980 287 980 287 953 c 128,-1,57
 287 926 287 926 302.5 902.5 c 128,-1,58
 318 879 318 879 338.5 863.5 c 128,-1,59
 359 848 359 848 394.5 832.5 c 128,-1,60
 430 817 430 817 455 809 c 128,-1,61
 480 801 480 801 520 789.5 c 128,-1,62
 560 778 560 778 575 773 c 2,63,-1
 712 728 l 1,64,65
 793 703 793 703 862 684.5 c 128,-1,66
 931 666 931 666 982 647.5 c 128,-1,67
 1033 629 1033 629 1069.5 611 c 128,-1,68
 1106 593 1106 593 1144.5 565.5 c 0,69,70
 1182 538 1182 538 1206 506 c 0,71,72
 1260 434 1260 434 1261 344 c 0,73,74
 1261 258 1261 258 1227 199 c 0,75,76
 1193 139 1193 139 1137 102 c 0,77,78
 1081 66 1081 66 1000 42 c 0,79,80
 857 0 857 0 653 0 c 1,81,82
 368 0 368 0 214 105 c 0,83,84
 94 187 94 187 93 332 c 0,85,86
 93 576 93 576 339 578 c 1,0,1
353 483 m 0,87,88
 220 483 220 483 220 337 c 0,89,90
 220 306 220 306 232 273 c 1,91,-1
 271 273 l 2,92,93
 361 273 361 273 398 292 c 128,-1,94
 435 311 435 311 437 380 c 1,95,96
 437 483 437 483 353 483 c 0,87,88
EndSplineSet
EndChar

StartChar: uni0EA5
Encoding: 3749 3749 227
Width: 1403
GlyphClass: 2
Flags: HW
LayerCount: 2
Fore
SplineSet
141.5 81 m 128,-1,1
 75 162 75 162 75 304 c 128,-1,2
 75 446 75 446 167.5 553.5 c 128,-1,3
 260 661 260 661 410 661 c 0,4,5
 546 661 546 661 640 562 c 0,6,7
 720 477 720 477 769 386 c 0,8,9
 862 210 862 210 913.5 161 c 128,-1,10
 965 112 965 112 1001 112 c 128,-1,11
 1037 112 1037 112 1059 123 c 128,-1,12
 1081 134 1081 134 1094 155.5 c 128,-1,13
 1107 177 1107 177 1115.5 200.5 c 128,-1,14
 1124 224 1124 224 1128 258 c 0,15,16
 1134 309 1134 309 1134 379 c 2,17,-1
 1134 673 l 2,18,19
 1134 862 1134 862 1080 956 c 0,20,21
 1005 1085 1005 1085 715 1085 c 2,22,-1
 710 1085 l 2,23,24
 384 1086 384 1086 288 918 c 0,25,26
 252 856 252 856 251 770 c 1,27,-1
 104 770 l 1,28,29
 104 1192 104 1192 735 1192 c 0,30,31
 1026 1192 1026 1192 1162 1082 c 0,32,33
 1304 968 1304 968 1304 687 c 2,34,-1
 1304 446 l 2,35,36
 1304 186 1304 186 1214 83 c 0,37,38
 1141 0 1141 0 999 0 c 1,39,40
 878 0 878 0 788 101 c 0,41,42
 709 189 709 189 660 279 c 0,43,44
 566 452 566 452 514.5 500.5 c 128,-1,45
 463 549 463 549 413 549 c 0,46,47
 269 549 269 549 246 366 c 1,48,49
 260 370 260 370 282 380 c 0,50,51
 331 400 331 400 355 400 c 0,52,53
 455 400 455 400 513 346 c 128,-1,54
 571 292 571 292 571 195 c 0,55,56
 571 0 571 0 325 0 c 0,57,0
 208 0 208 0 141.5 81 c 128,-1,1
288 116 m 0,58,59
 310 102 310 102 350 102 c 0,60,61
 432 102 432 102 438 207 c 1,62,63
 438 260 438 260 407 280.5 c 128,-1,64
 376 301 376 301 313 306 c 1,65,-1
 241 306 l 1,66,-1
 241 285 l 2,67,68
 242 145 242 145 288 116 c 0,58,59
EndSplineSet
EndChar

StartChar: uni0EA7
Encoding: 3751 3751 228
Width: 1406
GlyphClass: 2
Flags: HW
LayerCount: 2
Fore
SplineSet
394 578 m 0,0,1
 626 578 626 578 626 383 c 128,-1,2
 626 188 626 188 436 188 c 1,3,-1
 325 207 l 1,4,5
 422 104 422 104 689 104 c 0,6,7
 1138 104 1138 104 1138 501 c 2,8,-1
 1138 673 l 2,9,10
 1138 864 1138 864 1078 958 c 0,11,12
 998 1084 998 1084 701 1085 c 0,13,14
 268 1085 268 1085 260 770 c 1,15,-1
 112 770 l 1,16,17
 112 883 112 883 159.5 967 c 128,-1,18
 207 1051 207 1051 291 1099 c 0,19,20
 454 1192 454 1192 709 1192 c 0,21,22
 1076 1192 1076 1192 1206 1053 c 0,23,24
 1308 943 1308 943 1308 731 c 2,25,-1
 1308 486 l 2,26,27
 1308 120 1308 120 940 28 c 0,28,29
 830 0 830 0 708 0 c 128,-1,30
 586 0 586 0 490.5 16.5 c 128,-1,31
 395 33 395 33 308 68.5 c 128,-1,32
 221 104 221 104 169.5 170.5 c 128,-1,33
 118 237 118 237 118 342.5 c 128,-1,34
 118 448 118 448 192.5 513 c 128,-1,35
 267 578 267 578 394 578 c 0,0,1
391 482 m 0,36,37
 277 482 277 482 277 337 c 0,38,39
 277 313 277 313 286 273 c 1,40,-1
 304 273 l 2,41,42
 428 273 428 273 458 297 c 0,43,44
 492 324 492 324 491.5 378.5 c 128,-1,45
 491 433 491 433 467 457.5 c 128,-1,46
 443 482 443 482 391 482 c 0,36,37
EndSplineSet
EndChar

StartChar: uni0EAA
Encoding: 3754 3754 229
Width: 1493
GlyphClass: 2
Flags: HW
LayerCount: 2
Fore
SplineSet
1289 963 m 1,0,1
 1351 893 1351 893 1351 701 c 2,2,-1
 1351 433 l 2,3,4
 1351 225 1351 225 1279.5 113 c 128,-1,5
 1208 1 1208 1 1039 1 c 0,6,7
 897 1 897 1 816 87 c 0,8,9
 743 164 743 164 703 243 c 0,10,11
 624 399 624 399 565.5 450 c 128,-1,12
 507 501 507 501 433.5 501 c 128,-1,13
 360 501 360 501 320.5 468 c 128,-1,14
 281 435 281 435 268 366 c 1,15,-1
 388 396 l 1,16,17
 482 396 482 396 537 345.5 c 128,-1,18
 592 295 592 295 592 204 c 0,19,20
 592 0 592 0 351 0 c 0,21,22
 233 0 233 0 175 79 c 128,-1,23
 117 158 117 158 117 299 c 128,-1,24
 117 440 117 440 198.5 521.5 c 128,-1,25
 280 603 280 603 427 603 c 0,26,27
 569 602 569 602 649 530 c 0,28,29
 711 473 711 473 753 396.5 c 0,30,31
 794 320 794 320 820 278 c 0,32,33
 880 177 880 177 965 132 c 0,34,35
 1001 113 1001 113 1037 113 c 128,-1,36
 1073 113 1073 113 1096.5 123.5 c 128,-1,37
 1120 134 1120 134 1134.5 155 c 128,-1,38
 1149 176 1149 176 1158.5 199 c 128,-1,39
 1168 222 1168 222 1172 256 c 0,40,41
 1179 316 1179 316 1179 383 c 2,42,-1
 1179 819 l 1,43,44
 1158 766 1158 766 1079 730 c 0,45,46
 942 668 942 668 733 669 c 0,47,48
 502 669 502 669 416.5 687.5 c 128,-1,49
 331 706 331 706 284 724.5 c 128,-1,50
 237 743 237 743 206 768 c 0,51,52
 138 823 138 823 138 912 c 0,53,54
 138 1028 138 1028 238 1090 c 0,55,56
 336 1152 336 1152 438 1167 c 0,57,58
 597 1192 597 1192 733 1192 c 0,59,60
 1033 1192 1033 1192 1196 1074 c 1,61,62
 1246 1169 1246 1169 1246 1327 c 1,63,-1
 1382 1327 l 1,64,65
 1382 1156 1382 1156 1289 963 c 1,0,1
305 912 m 0,66,67
 305 848 305 848 377 820 c 0,68,69
 454 790 454 790 526 786 c 0,70,71
 631 779 631 779 766 779 c 0,72,73
 1081 779 1081 779 1144 956 c 1,74,75
 1037 1085 1037 1085 733 1085 c 0,76,77
 305 1085 305 1085 305 912 c 0,66,67
459 208 m 0,78,79
 459 267 459 267 421.5 286.5 c 128,-1,80
 384 306 384 306 305 306 c 2,81,-1
 262 306 l 1,82,83
 261 303 261 303 261 296 c 2,84,-1
 261 273 l 2,85,86
 261 193 261 193 281 149.5 c 128,-1,87
 301 106 301 106 359 102 c 1,88,89
 459 103 459 103 459 208 c 0,78,79
EndSplineSet
EndChar

StartChar: uni0EAB
Encoding: 3755 3755 230
Width: 2014
GlyphClass: 2
Flags: HW
LayerCount: 2
Fore
SplineSet
17 997 m 0,0,1
 17 1192 17 1192 247 1192 c 0,2,3
 356 1192 356 1192 429 1142 c 128,-1,4
 502 1092 502 1092 502 997 c 0,5,6
 502 954 502 954 477 851 c 1,7,-1
 373 441 l 1,8,9
 357 385 357 385 357 336 c 0,10,11
 357 105 357 105 660 105 c 0,12,13
 842 105 842 105 908 196 c 0,14,15
 970 282 970 282 969 473 c 2,16,-1
 969 809 l 1,17,18
 927 795 927 795 883 795 c 0,19,20
 636 795 636 795 636 997 c 0,21,22
 636 1097 636 1097 707 1143.5 c 128,-1,23
 778 1190 778 1190 892 1190 c 0,24,25
 1093 1190 1093 1190 1134 1005 c 1,26,27
 1153 1017 1153 1017 1212 1060 c 128,-1,28
 1271 1103 1271 1103 1306.5 1125.5 c 128,-1,29
 1342 1148 1342 1148 1401.5 1170 c 128,-1,30
 1461 1192 1461 1192 1538.5 1192 c 128,-1,31
 1616 1192 1616 1192 1684.5 1157.5 c 0,32,33
 1753 1122 1753 1122 1790 1056 c 0,34,35
 1857 936 1857 936 1857 715 c 2,36,-1
 1857 0 l 1,37,-1
 1688 0 l 1,38,-1
 1688 749 l 2,39,40
 1688 897 1688 897 1677 938.5 c 128,-1,41
 1666 980 1666 980 1653 1007.5 c 128,-1,42
 1640 1035 1640 1035 1622 1050 c 0,43,44
 1579 1085 1579 1085 1519.5 1085 c 128,-1,45
 1460 1085 1460 1085 1404 1061.5 c 128,-1,46
 1348 1038 1348 1038 1308.5 1010 c 128,-1,47
 1269 982 1269 982 1218 943.5 c 128,-1,48
 1167 905 1167 905 1138 888 c 1,49,-1
 1138 500 l 2,50,51
 1138 235 1138 235 1032 117.5 c 128,-1,52
 926 0 926 0 669 0 c 0,53,54
 468 0 468 0 335 72 c 0,55,56
 188 152 188 152 188 330 c 0,57,58
 188 386 188 386 204 443 c 2,59,-1
 307 815 l 1,60,61
 235 796 235 796 227 796 c 0,62,63
 131 796 131 796 74 849.5 c 128,-1,64
 17 903 17 903 17 997 c 0,0,1
969 989 m 2,65,66
 969 1091 969 1091 880 1091 c 0,67,68
 769 1091 769 1091 769 1005 c 1,69,70
 773 895 773 895 892 890 c 1,71,72
 930 892 930 892 969 909 c 1,73,-1
 969 989 l 2,65,66
323.5 1063.5 m 128,-1,75
 296 1089 296 1089 251.5 1089 c 0,76,77
 207 1088 207 1088 179 1064 c 0,78,79
 150 1039 150 1039 150 983 c 0,80,81
 150 932 150 932 184 910 c 0,82,83
 220 888 220 888 295 887 c 2,84,-1
 326 887 l 1,85,86
 351 973 351 973 351 1005.5 c 128,-1,74
 351 1038 351 1038 323.5 1063.5 c 128,-1,75
EndSplineSet
EndChar

StartChar: uni0EAD
Encoding: 3757 3757 231
Width: 1406
GlyphClass: 2
Flags: HW
LayerCount: 2
Fore
SplineSet
691 1192 m 0,0,1
 1053 1192 1053 1192 1198 1053 c 0,2,3
 1309 946 1309 946 1309 752 c 2,4,-1
 1309 546 l 2,5,6
 1309 260 1309 260 1153 130 c 128,-1,7
 997 0 997 0 688 0 c 0,8,9
 408 0 408 0 244 105 c 0,10,11
 188 141 188 141 152.5 198.5 c 128,-1,12
 117 256 117 256 117 327 c 0,13,14
 117 447 117 447 191 512.5 c 128,-1,15
 265 578 265 578 383 578 c 0,16,17
 625 578 625 578 625 384 c 0,18,19
 625 299 625 299 575.5 244.5 c 128,-1,20
 526 190 526 190 444 188 c 0,21,22
 406 188 406 188 325 203 c 1,23,24
 418 104 418 104 685 104 c 0,25,26
 894 104 894 104 988 176 c 0,27,28
 1058 230 1058 230 1081 287.5 c 128,-1,29
 1104 345 1104 345 1114.5 387.5 c 0,30,31
 1124 430 1124 430 1130 490 c 0,32,33
 1140 594 1140 594 1140 739 c 2,34,-1
 1140 748 l 1,35,36
 1085 693 1085 693 969 674.5 c 128,-1,37
 853 656 853 656 734.5 656 c 128,-1,38
 616 656 616 656 553 659.5 c 128,-1,39
 490 663 490 663 421 672.5 c 128,-1,40
 352 682 352 682 300 701 c 128,-1,41
 248 720 248 720 205 747 c 0,42,43
 116 803 116 803 116 912 c 0,44,45
 116 1192 116 1192 691 1192 c 0,0,1
797.5 1081 m 128,-1,47
 746 1085 746 1085 677.5 1085 c 128,-1,48
 609 1085 609 1085 546 1079 c 128,-1,49
 483 1073 483 1073 419 1056 c 0,50,51
 285 1020 285 1020 285 912 c 0,52,53
 284 826 284 826 386 796 c 0,54,55
 471 770 471 770 556 769 c 128,-1,56
 641 768 641 768 691 768 c 0,57,58
 1106 768 1106 768 1116 912 c 1,59,60
 1115 954 1115 954 1085.5 986 c 128,-1,61
 1056 1018 1056 1018 1012 1036 c 128,-1,62
 968 1054 968 1054 908.5 1065.5 c 128,-1,46
 849 1077 849 1077 797.5 1081 c 128,-1,47
491 381 m 0,63,64
 491 480 491 480 387 482 c 1,65,66
 277 481 277 481 277 337 c 0,67,68
 277 304 277 304 286 273 c 1,69,-1
 337 273 l 2,70,71
 417 273 417 273 454 294.5 c 128,-1,72
 491 316 491 316 491 381 c 0,63,64
EndSplineSet
EndChar

StartChar: uni0EAE
Encoding: 3758 3758 232
Width: 1343
GlyphClass: 2
Flags: HW
LayerCount: 2
Fore
SplineSet
391 578 m 0,0,1
 628 578 628 578 628 378 c 0,2,3
 628 293 628 293 573 241 c 128,-1,4
 518 189 518 189 432 189 c 1,5,-1
 318 208 l 1,6,7
 406 104 406 104 688 104 c 0,8,9
 901 104 901 104 988 170 c 0,10,11
 1058 224 1058 224 1058 312.5 c 128,-1,12
 1058 401 1058 401 1005.5 459 c 128,-1,13
 953 517 953 517 869.5 554 c 128,-1,14
 786 591 786 591 685 623 c 128,-1,15
 584 655 584 655 483 686.5 c 128,-1,16
 382 718 382 718 298.5 754.5 c 128,-1,17
 215 791 215 791 162.5 847.5 c 128,-1,18
 110 904 110 904 110 992 c 128,-1,19
 110 1080 110 1080 173.5 1136 c 128,-1,20
 237 1192 237 1192 344 1192 c 0,21,22
 460 1192 460 1192 608 1116 c 0,23,24
 670 1084 670 1084 733 1050 c 0,25,26
 883 970 883 970 994 961 c 1,27,-1
 1000 961 l 2,28,29
 1107 961 1107 961 1107 1104 c 2,30,-1
 1107 1192 l 1,31,-1
 1227 1192 l 1,32,-1
 1227 1105 l 2,33,34
 1227 991 1227 991 1170.5 920 c 128,-1,35
 1114 849 1114 849 1009 849 c 0,36,37
 934 850 934 850 612 984 c 0,38,39
 480 1040 480 1040 433 1055 c 128,-1,40
 386 1070 386 1070 356 1070 c 0,41,42
 262 1070 262 1070 262 972 c 0,43,44
 262 876 262 876 412 820 c 0,45,46
 435 812 435 812 473 799.5 c 128,-1,47
 511 787 511 787 528 781 c 2,48,-1
 836 665 l 2,49,50
 852 659 852 659 891.5 645 c 128,-1,51
 931 631 931 631 951.5 623 c 128,-1,52
 972 615 972 615 1008.5 600 c 128,-1,53
 1045 585 1045 585 1066 572 c 128,-1,54
 1087 559 1087 559 1116.5 540 c 128,-1,55
 1146 521 1146 521 1162.5 500.5 c 0,56,57
 1180 480 1180 480 1196 454 c 0,58,59
 1228 405 1228 405 1227.5 330.5 c 128,-1,60
 1227 256 1227 256 1195.5 197.5 c 128,-1,61
 1164 139 1164 139 1112.5 102.5 c 128,-1,62
 1061 66 1061 66 988 42 c 0,63,64
 860 0 860 0 726 0 c 128,-1,65
 592 0 592 0 515.5 9 c 128,-1,66
 439 18 439 18 364.5 41 c 128,-1,67
 290 64 290 64 238 100 c 0,68,69
 120 182 120 182 120 332 c 0,70,71
 120 450 120 450 193.5 514 c 128,-1,72
 267 578 267 578 391 578 c 0,0,1
495 373 m 0,73,74
 495 482 495 482 400 482 c 0,75,76
 279 482 279 482 279 330 c 0,77,78
 279 297 279 297 287 273 c 1,79,-1
 353 273 l 2,80,81
 427 273 427 273 461 294 c 128,-1,82
 495 315 495 315 495 373 c 0,73,74
EndSplineSet
EndChar

StartChar: uni0EAF
Encoding: 3759 3759 233
Width: 1402
GlyphClass: 2
Flags: HW
LayerCount: 2
Fore
SplineSet
224 774 m 0,0,1
 224 549 224 549 479 549 c 0,2,3
 640 549 640 549 769 649 c 0,4,5
 876 732 876 732 974 861 c 2,6,-1
 1178 1131 l 1,7,-1
 1360 1040 l 1,8,-1
 736 -418 l 1,9,-1
 595 -359 l 1,10,-1
 1113 856 l 1,11,-1
 1071 793 l 1,12,13
 827 423 827 423 497 423 c 0,14,15
 183 424 183 424 89 604 c 0,16,17
 55 670 55 670 55 758 c 0,18,19
 55 949 55 949 162 1070.5 c 128,-1,20
 269 1192 269 1192 451 1192 c 0,21,22
 577 1192 577 1192 657 1132 c 128,-1,23
 737 1072 737 1072 737 962 c 128,-1,24
 737 852 737 852 679.5 791 c 128,-1,25
 622 730 622 730 530.5 730 c 128,-1,26
 439 730 439 730 384.5 773 c 128,-1,27
 330 816 330 816 330 889 c 0,28,29
 330 927 330 927 368 1041 c 1,30,31
 302 1015 302 1015 263 941.5 c 128,-1,32
 224 868 224 868 224 774 c 0,0,1
439 922 m 2,33,34
 439 883 439 883 458.5 859 c 128,-1,35
 478 835 478 835 515 835 c 0,36,37
 596 835 596 835 596 936 c 0,38,39
 596 1000 596 1000 555.5 1026 c 128,-1,40
 515 1052 515 1052 439 1054 c 1,41,-1
 439 922 l 2,33,34
EndSplineSet
EndChar

StartChar: uni0EB0
Encoding: 3760 3760 234
Width: 1277
GlyphClass: 2
Flags: HW
LayerCount: 2
Fore
SplineSet
153 1137.5 m 128,-1,1
 213 1192 213 1192 309.5 1192 c 128,-1,2
 406 1192 406 1192 461.5 1147 c 128,-1,3
 517 1102 517 1102 517 1014 c 0,4,5
 517 980 517 980 504 942 c 2,6,-1
 482 874 l 1,7,-1
 729 874 l 2,8,9
 904 874 904 874 981 947 c 128,-1,10
 1058 1020 1058 1020 1060 1192 c 1,11,-1
 1180 1192 l 1,12,13
 1178 952 1178 952 1073.5 846.5 c 128,-1,14
 969 741 969 741 729 741 c 2,15,-1
 491 741 l 2,16,17
 254 740 254 740 168 808 c 0,18,19
 92 868 92 868 92.5 975.5 c 128,-1,0
 93 1083 93 1083 153 1137.5 c 128,-1,1
424 945 m 2,20,21
 424 1014 424 1014 399.5 1046.5 c 128,-1,22
 375 1079 375 1079 315 1079 c 0,23,24
 214 1079 214 1079 214 991 c 0,25,26
 214 933 214 933 257 903.5 c 128,-1,27
 300 874 300 874 370 874 c 2,28,-1
 424 874 l 1,29,-1
 424 945 l 2,20,21
153 567.5 m 128,-1,31
 213 622 213 622 307 622 c 128,-1,32
 401 622 401 622 459.5 573.5 c 128,-1,33
 518 525 518 525 518 449 c 0,34,35
 518 416 518 416 507 387 c 2,36,-1
 477 302 l 1,37,-1
 729 302 l 2,38,39
 905 302 905 302 982 375 c 128,-1,40
 1059 448 1059 448 1061 621 c 1,41,-1
 1179 621 l 1,42,43
 1179 387 1179 387 1083 280 c 128,-1,44
 987 173 987 173 762 173 c 2,45,-1
 522 173 l 2,46,47
 274 173 274 173 180 236 c 0,48,49
 94 294 94 294 93.5 403.5 c 128,-1,30
 93 513 93 513 153 567.5 c 128,-1,31
424 393 m 2,50,51
 424 508 424 508 316 508 c 0,52,53
 214 508 214 508 214 413 c 0,54,55
 214 359 214 359 254.5 330.5 c 128,-1,56
 295 302 295 302 360 302 c 2,57,-1
 424 302 l 1,58,-1
 424 393 l 2,50,51
EndSplineSet
EndChar

StartChar: uni0EB1
Encoding: 3761 3761 235
Width: 4
GlyphClass: 2
Flags: HW
LayerCount: 2
Fore
SplineSet
-1009.5 1764 m 128,-1,1
 -949 1818 -949 1818 -854 1818 c 128,-1,2
 -759 1818 -759 1818 -703 1772 c 128,-1,3
 -647 1726 -647 1726 -647 1647 c 0,4,5
 -647 1610 -647 1610 -659 1576 c 2,6,-1
 -685 1499 l 1,7,-1
 -481 1499 l 2,8,9
 -310 1499 -310 1499 -234.5 1568.5 c 128,-1,10
 -159 1638 -159 1638 -159 1804 c 1,11,-1
 -40 1804 l 1,12,13
 -40 1555 -40 1555 -156 1462 c 0,14,15
 -269 1372 -269 1372 -524 1372 c 2,16,-1
 -642 1372 l 2,17,18
 -855 1372 -855 1372 -940 1411 c 0,19,20
 -1028 1452 -1028 1452 -1054 1519 c 0,21,22
 -1070 1559 -1070 1559 -1070 1611 c 0,23,0
 -1070 1710 -1070 1710 -1009.5 1764 c 128,-1,1
-739 1594 m 2,24,25
 -739 1703 -739 1703 -847 1703 c 0,26,27
 -949 1703 -949 1703 -949 1611 c 0,28,29
 -949 1499 -949 1499 -801 1499 c 2,30,-1
 -739 1499 l 1,31,-1
 -739 1594 l 2,24,25
EndSplineSet
EndChar

StartChar: uni0EB2
Encoding: 3762 3762 236
Width: 1020
GlyphClass: 2
Flags: HW
LayerCount: 2
Fore
SplineSet
571 939 m 1,0,1
 571 730 571 730 364 730 c 0,2,3
 248 730 248 730 177.5 790.5 c 128,-1,4
 107 851 107 851 107 962 c 0,5,6
 106 1038 106 1038 164 1092 c 0,7,8
 270 1192 270 1192 471 1192 c 0,9,10
 923 1192 923 1192 923 783 c 2,11,-1
 923 0 l 1,12,-1
 754 0 l 1,13,-1
 754 791 l 2,14,15
 754 922 754 922 706 995 c 128,-1,16
 658 1068 658 1068 553 1084 c 1,17,18
 566 1005 566 1005 571 939 c 1,0,1
258 1030 m 0,19,20
 238 1004 238 1004 239 953 c 0,21,22
 240 905 240 905 272 869 c 0,23,24
 306 832 306 832 370.5 832 c 128,-1,25
 435 832 435 832 455 866 c 128,-1,26
 475 900 475 900 475 984 c 2,27,-1
 475 1089 l 1,28,29
 300 1086 300 1086 258 1030 c 0,19,20
EndSplineSet
EndChar

StartChar: uni0EB3
Encoding: 3763 3763 237
Width: 1773
GlyphClass: 2
Flags: HW
LayerCount: 2
Fore
SplineSet
519.5 1676 m 128,-1,1
 588 1611 588 1611 588 1509.5 c 128,-1,2
 588 1408 588 1408 519.5 1345 c 0,3,4
 452 1282 452 1282 348 1281 c 0,5,6
 346 1281 346 1281 344 1281 c 0,7,8
 244 1281 244 1281 176 1345 c 0,9,10
 108 1410 108 1410 107.5 1510 c 128,-1,11
 107 1610 107 1610 176.5 1675.5 c 128,-1,12
 246 1741 246 1741 348.5 1741 c 128,-1,0
 451 1741 451 1741 519.5 1676 c 128,-1,1
252 1412.5 m 128,-1,14
 293 1374 293 1374 352.5 1374 c 128,-1,15
 412 1374 412 1374 450 1411 c 0,16,17
 489 1449 489 1449 489 1510 c 0,18,19
 488 1568 488 1568 450 1606 c 0,20,21
 410 1645 410 1645 351 1645 c 128,-1,22
 292 1645 292 1645 251.5 1606 c 128,-1,23
 211 1567 211 1567 211 1509 c 128,-1,13
 211 1451 211 1451 252 1412.5 c 128,-1,14
1306 1085 m 1,24,-1
 1326 939 l 1,25,26
 1326 732 1326 732 1117 732 c 0,27,28
 1000 732 1000 732 930 791.5 c 128,-1,29
 860 851 860 851 860 962 c 0,30,31
 860 1038 860 1038 918 1092 c 0,32,33
 1024 1192 1024 1192 1236 1192 c 0,34,35
 1677 1192 1677 1192 1677 785 c 2,36,-1
 1677 0 l 1,37,-1
 1507 0 l 1,38,-1
 1507 791 l 2,39,40
 1507 1053 1507 1053 1306 1085 c 1,24,-1
1012 1030 m 0,41,42
 992 1004 992 1004 993 953 c 0,43,44
 994 906 994 906 1026 870 c 0,45,46
 1060 834 1060 834 1124.5 833.5 c 128,-1,47
 1189 833 1189 833 1209 867.5 c 128,-1,48
 1229 902 1229 902 1229 986 c 2,49,-1
 1229 1091 l 1,50,51
 1055 1088 1055 1088 1012 1030 c 0,41,42
EndSplineSet
MultipleSubs2: "'ccmp' Glyph Composition/Decomposition in Lao lookup 2 subtable" uni0ECD uni0EB2
Substitution2: "'liga' Standard Ligatures lookup 0 subtable" uni0ECD_uni0EB2
EndChar

StartChar: uni0EB4
Encoding: 3764 3764 238
Width: 4
GlyphClass: 2
Flags: HW
LayerCount: 2
Fore
SplineSet
-503 1482 m 2,0,1
 -344 1482 -344 1482 -304 1542 c 0,2,3
 -286 1568 -286 1568 -286 1608 c 0,4,5
 -286 1768 -286 1768 -679.5 1768 c 128,-1,6
 -1073 1768 -1073 1768 -1073 1607 c 0,7,8
 -1072 1528 -1072 1528 -1004 1502 c 0,9,10
 -949 1482 -949 1482 -855 1482 c 2,11,-1
 -807 1482 l 1,12,-1
 -807 1377 l 1,13,-1
 -875 1377 l 2,14,15
 -1210 1377 -1210 1377 -1210 1614 c 0,16,17
 -1210 1879 -1210 1879 -678.5 1879 c 128,-1,18
 -147 1879 -147 1879 -147 1593 c 0,19,20
 -147 1377 -147 1377 -507 1377 c 2,21,-1
 -550 1377 l 1,22,-1
 -550 1482 l 1,23,-1
 -503 1482 l 2,0,1
EndSplineSet
EndChar

StartChar: uni0EB5
Encoding: 3765 3765 239
Width: 5
GlyphClass: 2
Flags: HW
LayerCount: 2
Fore
SplineSet
-313 1607 m 0,0,1
 -313 1534 -313 1534 -395 1482 c 1,2,-1
 -150 1482 l 1,3,-1
 -150 1377 l 1,4,-1
 -719 1377 l 1,5,-1
 -719 1482 l 1,6,-1
 -669 1482 l 2,7,8
 -510 1482 -510 1482 -470 1542 c 0,9,10
 -452 1568 -452 1568 -452 1608 c 0,11,12
 -452 1768 -452 1768 -845.5 1768 c 128,-1,13
 -1239 1768 -1239 1768 -1239 1607 c 0,14,15
 -1238 1528 -1238 1528 -1170 1502 c 0,16,17
 -1115 1482 -1115 1482 -1021 1482 c 2,18,-1
 -973 1482 l 1,19,-1
 -973 1377 l 1,20,-1
 -1041 1377 l 2,21,22
 -1376 1377 -1376 1377 -1376 1614 c 0,23,24
 -1376 1879 -1376 1879 -844.5 1879 c 128,-1,25
 -313 1879 -313 1879 -313 1607 c 0,0,1
EndSplineSet
EndChar

StartChar: uni0EB6
Encoding: 3766 3766 240
Width: 4
GlyphClass: 2
Flags: HW
LayerCount: 2
Fore
SplineSet
-503 1482 m 2,0,1
 -370 1482 -370 1482 -326 1516 c 0,2,3
 -286 1546 -286 1546 -286 1608 c 0,4,5
 -286 1766 -286 1766 -680 1767 c 0,6,7
 -682 1767 -682 1767 -685 1767 c 0,8,9
 -1074 1767 -1074 1767 -1074 1607 c 0,10,11
 -1074 1495 -1074 1495 -924 1484 c 0,12,13
 -896 1482 -896 1482 -855 1482 c 2,14,-1
 -807 1482 l 1,15,-1
 -807 1377 l 1,16,-1
 -875 1377 l 2,17,18
 -1210 1377 -1210 1377 -1210 1614 c 0,19,20
 -1210 1879 -1210 1879 -679 1879 c 0,21,22
 -326 1879 -326 1879 -210 1766 c 0,23,24
 -148 1705 -148 1705 -147.5 1623 c 128,-1,25
 -147 1541 -147 1541 -174.5 1495 c 128,-1,26
 -202 1449 -202 1449 -253 1424 c 0,27,28
 -349 1377 -349 1377 -507 1377 c 2,29,-1
 -550 1377 l 1,30,-1
 -550 1482 l 1,31,-1
 -503 1482 l 2,0,1
-674 1661 m 128,-1,33
 -635 1661 -635 1661 -606.5 1641 c 128,-1,34
 -578 1621 -578 1621 -578 1585.5 c 128,-1,35
 -578 1550 -578 1550 -605 1528 c 128,-1,36
 -632 1506 -632 1506 -673 1506 c 128,-1,37
 -714 1506 -714 1506 -742.5 1528 c 128,-1,38
 -771 1550 -771 1550 -771 1585 c 128,-1,39
 -771 1620 -771 1620 -742 1640.5 c 128,-1,32
 -713 1661 -713 1661 -674 1661 c 128,-1,33
EndSplineSet
EndChar

StartChar: uni0EB7
Encoding: 3767 3767 241
Width: 5
GlyphClass: 2
Flags: HW
LayerCount: 2
Fore
SplineSet
-395 1482 m 1,0,-1
 -150 1482 l 1,1,-1
 -150 1377 l 1,2,-1
 -719 1377 l 1,3,-1
 -719 1482 l 1,4,-1
 -669 1482 l 2,5,6
 -536 1482 -536 1482 -492 1516 c 0,7,8
 -452 1546 -452 1546 -452 1608 c 0,9,10
 -452 1768 -452 1768 -846 1768 c 128,-1,11
 -1240 1768 -1240 1768 -1240 1607 c 0,12,13
 -1240 1495 -1240 1495 -1090 1484 c 0,14,15
 -1062 1482 -1062 1482 -1021 1482 c 2,16,-1
 -973 1482 l 1,17,-1
 -973 1377 l 1,18,-1
 -1041 1377 l 2,19,20
 -1376 1377 -1376 1377 -1376 1614 c 0,21,22
 -1376 1731 -1376 1731 -1291 1789 c 0,23,24
 -1206 1847 -1206 1847 -1115 1859 c 0,25,26
 -973 1879 -973 1879 -880 1879 c 128,-1,27
 -787 1879 -787 1879 -738 1876.5 c 128,-1,28
 -689 1874 -689 1874 -633 1867 c 128,-1,29
 -577 1860 -577 1860 -532.5 1848 c 128,-1,30
 -488 1836 -488 1836 -446 1815 c 128,-1,31
 -404 1794 -404 1794 -376 1766 c 0,32,33
 -314 1705 -314 1705 -313.5 1618.5 c 128,-1,34
 -313 1532 -313 1532 -395 1482 c 1,0,-1
-919 1640.5 m 128,-1,36
 -891 1661 -891 1661 -851.5 1661 c 128,-1,37
 -812 1661 -812 1661 -783 1641 c 0,38,39
 -754 1621 -754 1621 -754 1587 c 0,40,41
 -754 1551 -754 1551 -782 1528 c 0,42,43
 -809 1506 -809 1506 -850 1506 c 128,-1,44
 -891 1506 -891 1506 -919 1528 c 128,-1,45
 -947 1550 -947 1550 -947 1585 c 128,-1,35
 -947 1620 -947 1620 -919 1640.5 c 128,-1,36
EndSplineSet
EndChar

StartChar: uni0EB8
Encoding: 3768 3768 242
Width: 4
GlyphClass: 2
Flags: HW
LayerCount: 2
Fore
SplineSet
-298 -467 m 1,0,1
 -397 -489 -397 -489 -415 -489 c 0,2,3
 -478 -489 -478 -489 -519 -445 c 128,-1,4
 -560 -401 -560 -401 -560 -326.5 c 128,-1,5
 -560 -252 -560 -252 -503 -209 c 0,6,7
 -447 -167 -447 -167 -353 -167 c 0,8,9
 -351 -167 -351 -167 -349 -167 c 0,10,11
 -252 -168 -252 -168 -185.5 -208 c 128,-1,12
 -119 -248 -119 -248 -119 -314.5 c 128,-1,13
 -119 -381 -119 -381 -144 -441 c 128,-1,14
 -169 -501 -169 -501 -210 -553 c 0,15,16
 -286 -649 -286 -649 -372 -719 c 1,17,-1
 -443 -654 l 1,18,19
 -334 -529 -334 -529 -298 -467 c 1,0,1
-268 -410 m 1,20,21
 -248 -363 -248 -363 -246 -328 c 1,22,23
 -254 -249 -254 -249 -350 -249 c 0,24,25
 -350 -249 -350 -249 -352 -249 c 0,26,27
 -450 -250 -450 -250 -453 -333 c 1,28,29
 -450 -410 -450 -410 -349 -410 c 2,30,-1
 -268 -410 l 1,20,21
EndSplineSet
EndChar

StartChar: uni0EB9
Encoding: 3769 3769 243
Width: 4
GlyphClass: 2
Flags: HW
LayerCount: 2
Fore
SplineSet
-344 -659 m 0,0,1
 -275 -659 -275 -659 -259 -621 c 0,2,3
 -246 -589 -246 -589 -246 -515 c 2,4,-1
 -246 -216 l 1,5,-1
 -121 -216 l 1,6,-1
 -121 -490 l 2,7,8
 -121 -630 -121 -630 -169.5 -698 c 128,-1,9
 -218 -766 -218 -766 -342 -766 c 0,10,11
 -564 -766 -564 -766 -564 -611 c 0,12,13
 -564 -594 -564 -594 -560 -575 c 1,14,-1
 -556 -549 l 1,15,16
 -590 -570 -590 -570 -660.5 -570 c 128,-1,17
 -731 -570 -731 -570 -786.5 -524.5 c 128,-1,18
 -842 -479 -842 -479 -842 -396 c 128,-1,19
 -842 -313 -842 -313 -785 -264.5 c 128,-1,20
 -728 -216 -728 -216 -635 -216 c 128,-1,21
 -542 -216 -542 -216 -481.5 -267 c 128,-1,22
 -421 -318 -421 -318 -421 -408 c 0,23,24
 -421 -435 -421 -435 -437.5 -489.5 c 128,-1,25
 -454 -544 -454 -544 -454 -573 c 0,26,27
 -454 -659 -454 -659 -344 -659 c 0,0,1
-638 -314 m 0,28,29
 -740 -314 -740 -314 -740 -394 c 0,30,31
 -740 -445 -740 -445 -706.5 -465 c 128,-1,32
 -673 -485 -673 -485 -629 -485 c 128,-1,33
 -585 -485 -585 -485 -544 -476 c 1,34,-1
 -544 -415 l 1,35,36
 -546 -314 -546 -314 -638 -314 c 0,28,29
EndSplineSet
EndChar

StartChar: uni0EBB
Encoding: 3771 3771 244
Width: 5
GlyphClass: 2
Flags: HW
LayerCount: 2
Fore
SplineSet
-818 1370 m 128,-1,1
 -875 1323 -875 1323 -969.5 1323 c 128,-1,2
 -1064 1323 -1064 1323 -1125 1378 c 128,-1,3
 -1186 1433 -1186 1433 -1186 1534 c 0,4,5
 -1186 1664 -1186 1664 -1084 1716.5 c 128,-1,6
 -982 1769 -982 1769 -751 1769 c 2,7,-1
 -599 1769 l 2,8,9
 -347 1769 -347 1769 -247.5 1671.5 c 128,-1,10
 -148 1574 -148 1574 -148 1323 c 1,11,-1
 -266 1323 l 1,12,13
 -266 1500 -266 1500 -336 1572 c 128,-1,14
 -406 1644 -406 1644 -581 1644 c 2,15,-1
 -802 1644 l 1,16,-1
 -776 1572 l 2,17,18
 -761 1530 -761 1530 -761 1496 c 0,19,0
 -761 1417 -761 1417 -818 1370 c 128,-1,1
-910 1644 m 2,20,21
 -1062 1644 -1062 1644 -1066 1533 c 1,22,23
 -1064 1439 -1064 1439 -964 1438 c 0,24,25
 -963 1438 -963 1438 -962 1438 c 0,26,27
 -864 1438 -864 1438 -856 1540 c 1,28,-1
 -856 1644 l 1,29,-1
 -910 1644 l 2,20,21
EndSplineSet
EndChar

StartChar: uni0EBC
Encoding: 3772 3772 245
Width: 5
GlyphClass: 2
Flags: HW
LayerCount: 2
Fore
SplineSet
-291 -191 m 2,0,-1
 -292 -95 l 1,1,-1
 -169 -95 l 1,2,3
 -168 -296 -168 -296 -198 -362 c 0,4,5
 -232 -440 -232 -440 -291 -462 c 0,6,7
 -326 -476 -326 -476 -384 -475 c 0,8,9
 -487 -475 -487 -475 -615 -366 c 1,10,-1
 -710 -284 l 1,11,12
 -759 -235 -759 -235 -803 -215 c 1,13,-1
 -795 -251 l 2,14,15
 -786 -291 -786 -291 -786 -320 c 0,16,17
 -786 -388 -786 -388 -829.5 -430.5 c 128,-1,18
 -873 -473 -873 -473 -952 -473 c 128,-1,19
 -1031 -473 -1031 -473 -1082 -423 c 128,-1,20
 -1133 -373 -1133 -373 -1133 -296 c 128,-1,21
 -1133 -219 -1133 -219 -1091 -175 c 0,22,23
 -1015 -95 -1015 -95 -854 -95 c 129,-1,24
 -693 -95 -693 -95 -561 -220 c 2,25,-1
 -493 -284 l 2,26,27
 -486 -290 -486 -290 -465 -312 c 128,-1,28
 -444 -334 -444 -334 -434 -342 c 0,29,30
 -403 -368 -403 -368 -375 -368.5 c 128,-1,31
 -347 -369 -347 -369 -330 -354.5 c 128,-1,32
 -313 -340 -313 -340 -305 -312 c 0,33,34
 -291 -264 -291 -264 -291 -191 c 2,0,-1
-853 -205 m 1,35,36
 -1017 -208 -1017 -208 -1017 -287.5 c 128,-1,37
 -1017 -367 -1017 -367 -951 -367 c 0,38,39
 -894 -367 -894 -367 -873.5 -339 c 128,-1,40
 -853 -311 -853 -311 -853 -247 c 2,41,-1
 -853 -205 l 1,35,36
EndSplineSet
EndChar

StartChar: uni0EBD
Encoding: 3773 3773 246
Width: 1227
GlyphClass: 2
Flags: HW
LayerCount: 2
Fore
SplineSet
342.5 -229.5 m 128,-1,1
 408 -301 408 -301 578 -301 c 128,-1,2
 748 -301 748 -301 821 -216.5 c 128,-1,3
 894 -132 894 -132 894 63 c 2,4,-1
 894 377 l 2,5,6
 894 632 894 632 711 739 c 1,7,-1
 380 900 l 1,8,9
 288 946 288 946 249 983 c 0,10,11
 182 1046 182 1046 182 1161 c 128,-1,12
 182 1276 182 1276 255.5 1342 c 128,-1,13
 329 1408 329 1408 453 1408 c 0,14,15
 486 1408 486 1408 592.5 1358 c 128,-1,16
 699 1308 699 1308 814 1257.5 c 128,-1,17
 929 1207 929 1207 982 1207 c 0,18,19
 1021 1207 1021 1207 1042 1280 c 2,20,-1
 1082 1419 l 1,21,-1
 1195 1419 l 1,22,-1
 1144 1244 l 2,23,24
 1108 1124 1108 1124 1066 1100 c 0,25,26
 1045 1088 1045 1088 991.5 1088 c 128,-1,27
 938 1088 938 1088 849 1121 c 128,-1,28
 760 1154 760 1154 660 1204 c 0,29,30
 502 1282 502 1282 453 1282 c 0,31,32
 336 1282 336 1282 336 1155 c 0,33,34
 336 1097 336 1097 368 1065 c 128,-1,35
 400 1033 400 1033 462 1004 c 2,36,-1
 786 847 l 2,37,38
 883 799 883 799 941 744 c 0,39,40
 1065 626 1065 626 1065 376 c 2,41,-1
 1065 92 l 2,42,43
 1065 -171 1065 -171 945.5 -289.5 c 128,-1,44
 826 -408 826 -408 561 -408 c 0,45,46
 107 -408 107 -408 107 2 c 0,47,48
 108 294 108 294 242 366 c 0,49,50
 294 394 294 394 370 394 c 0,51,52
 602 394 602 394 602 199.5 c 128,-1,53
 602 5 602 5 371 5 c 0,54,55
 360 5 360 5 277 14 c 1,56,-1
 277 0 l 2,57,0
 277 -158 277 -158 342.5 -229.5 c 128,-1,1
471 198 m 0,58,59
 471 306 471 306 380 307 c 0,60,61
 318 307 318 307 297.5 259.5 c 128,-1,62
 277 212 277 212 277 121 c 2,63,-1
 277 85 l 1,64,-1
 327 85 l 2,65,66
 403 85 403 85 437 108.5 c 128,-1,67
 471 132 471 132 471 198 c 0,58,59
EndSplineSet
EndChar

StartChar: uni0EC0
Encoding: 3776 3776 247
Width: 704
GlyphClass: 2
Flags: HW
LayerCount: 2
Fore
SplineSet
399 0 m 0,0,1
 131 0 131 0 131 332 c 2,2,-1
 131 664 l 2,3,4
 131 888 131 888 163 989 c 0,5,6
 196 1092 196 1092 252 1136 c 0,7,8
 323 1192 323 1192 424 1192 c 128,-1,9
 525 1192 525 1192 591 1170 c 1,10,-1
 591 1066 l 1,11,12
 498 1083 498 1083 463 1083 c 128,-1,13
 428 1083 428 1083 403 1072 c 128,-1,14
 378 1061 378 1061 361.5 1045.5 c 128,-1,15
 345 1030 345 1030 333.5 1001.5 c 128,-1,16
 322 973 322 973 316 949 c 0,17,18
 310 924 310 924 307 884 c 0,19,20
 303 830 303 830 303 748 c 2,21,-1
 303 365 l 1,22,23
 387 391 387 391 458 391 c 128,-1,24
 529 391 529 391 580 338.5 c 128,-1,25
 631 286 631 286 631 203 c 0,26,27
 631 0 631 0 399 0 c 0,0,1
497 202 m 0,28,29
 497 261 497 261 465 280.5 c 128,-1,30
 433 300 433 300 359 300 c 2,31,-1
 303 300 l 1,32,-1
 303 251 l 2,33,34
 303 100 303 100 403 100 c 0,35,36
 496 100 496 100 497 202 c 0,28,29
EndSplineSet
EndChar

StartChar: uni0EC2
Encoding: 3778 3778 249
Width: 845
GlyphClass: 2
Flags: HW
LayerCount: 2
Fore
SplineSet
493 0 m 0,0,1
 340 0 340 0 282 107 c 0,2,3
 230 205 230 205 229 384 c 2,4,-1
 229 944 l 2,5,6
 229 1113 229 1113 183.5 1203.5 c 128,-1,7
 138 1294 138 1294 29 1378 c 2,8,-1
 -153 1517 l 2,9,10
 -225 1572 -225 1572 -225 1667.5 c 128,-1,11
 -225 1763 -225 1763 -163 1824.5 c 128,-1,12
 -101 1886 -101 1886 -3 1886 c 0,13,14
 73 1886 73 1886 123.5 1859.5 c 128,-1,15
 174 1833 174 1833 184.5 1827 c 128,-1,16
 195 1821 195 1821 225.5 1801 c 128,-1,17
 256 1781 256 1781 261 1778 c 2,18,-1
 700 1501 l 1,19,-1
 627 1385 l 1,20,-1
 186 1665 l 2,21,22
 176 1671 176 1671 149 1689 c 128,-1,23
 122 1707 122 1707 111 1713.5 c 128,-1,24
 100 1720 100 1720 79 1730 c 0,25,26
 42 1748 42 1748 6 1749 c 0,27,28
 -68 1749 -68 1749 -68 1673 c 0,29,30
 -68 1631 -68 1631 -6 1582 c 2,31,-1
 179 1433 l 2,32,33
 241 1383 241 1383 278 1342 c 0,34,35
 314 1300 314 1300 344 1244 c 0,36,37
 398 1140 398 1140 399 941 c 2,38,-1
 399 366 l 1,39,40
 406 368 406 368 427 375.5 c 128,-1,41
 448 383 448 383 458 386 c 0,42,43
 491 396 491 396 517 396 c 0,44,45
 611 396 611 396 674 344.5 c 128,-1,46
 737 293 737 293 737 206 c 0,47,48
 737 0 737 0 493 0 c 0,0,1
502 102 m 0,49,50
 597 102 597 102 597 206 c 0,51,52
 597 261 597 261 562.5 283.5 c 128,-1,53
 528 306 528 306 463 306 c 2,54,-1
 399 306 l 1,55,-1
 399 251 l 2,56,57
 399 179 399 179 422 140.5 c 128,-1,58
 445 102 445 102 502 102 c 0,49,50
EndSplineSet
EndChar

StartChar: uni0EC3
Encoding: 3779 3779 250
Width: 890
GlyphClass: 2
Flags: HW
LayerCount: 2
Fore
SplineSet
387 366 m 1,0,1
 477 396 477 396 502 396 c 0,2,3
 598 396 598 396 662 345 c 128,-1,4
 726 294 726 294 726 206 c 0,5,6
 726 0 726 0 484 0 c 0,7,8
 334 0 334 0 272 101 c 0,9,10
 214 195 214 195 214 366 c 2,11,-1
 214 697 l 2,12,13
 214 864 214 864 255 951.5 c 128,-1,14
 296 1039 296 1039 399 1108 c 2,15,-1
 498 1175 l 2,16,17
 560 1218 560 1218 597 1256 c 0,18,19
 684 1345 684 1345 684 1509 c 0,20,21
 684 1788 684 1788 373 1788 c 0,22,23
 102 1788 102 1788 102 1542 c 0,24,25
 102 1367 102 1367 253 1367 c 0,26,27
 386 1367 386 1367 386 1475 c 0,28,29
 386 1539 386 1539 337 1601 c 1,30,-1
 473 1601 l 1,31,32
 515 1545 515 1545 515 1474 c 0,33,34
 515 1371 515 1371 442 1314.5 c 128,-1,35
 369 1258 369 1258 247.5 1258 c 128,-1,36
 126 1258 126 1258 44.5 1335 c 128,-1,37
 -37 1412 -37 1412 -37 1539 c 0,38,39
 -37 1720 -37 1720 74.5 1817 c 128,-1,40
 186 1914 186 1914 389 1914 c 128,-1,41
 592 1914 592 1914 713.5 1809 c 128,-1,42
 835 1704 835 1704 835 1500 c 0,43,44
 835 1243 835 1243 559 1039 c 0,45,46
 550 1032 550 1032 528 1016 c 128,-1,47
 506 1000 506 1000 498.5 994.5 c 128,-1,48
 491 989 491 989 473.5 974.5 c 128,-1,49
 456 960 456 960 450.5 953 c 128,-1,50
 445 946 445 946 432.5 931 c 128,-1,51
 420 916 420 916 415.5 904.5 c 128,-1,52
 411 893 411 893 403.5 875 c 0,53,54
 396 856 396 856 394 838 c 0,55,56
 387 773 387 773 387 746 c 2,57,-1
 387 366 l 1,0,1
483 102 m 0,58,59
 582 102 582 102 582 213 c 0,60,61
 582 306 582 306 462 306 c 2,62,-1
 387 306 l 1,63,-1
 387 252 l 2,64,65
 387 180 387 180 408 141 c 128,-1,66
 429 102 429 102 483 102 c 0,58,59
EndSplineSet
EndChar

StartChar: uni0EC4
Encoding: 3780 3780 251
Width: 830
GlyphClass: 2
Flags: HW
LayerCount: 2
Fore
SplineSet
345 366 m 1,0,1
 425 396 425 396 456 396 c 0,2,3
 556 396 556 396 620 346.5 c 128,-1,4
 684 297 684 297 684 206 c 0,5,6
 684 0 684 0 442 0 c 1,7,8
 174 2 174 2 174 364 c 2,9,-1
 174 989 l 2,10,11
 174 1206 174 1206 285 1336 c 0,12,13
 344 1405 344 1405 450 1482 c 2,14,-1
 528 1540 l 2,15,16
 538 1547 538 1547 558.5 1561 c 128,-1,17
 579 1575 579 1575 590.5 1584 c 0,18,19
 602 1592 602 1592 616 1606 c 0,20,21
 642 1630 642 1630 647 1672 c 1,22,23
 645 1733 645 1733 574 1740 c 1,24,25
 498 1737 498 1737 360 1634 c 0,26,27
 298 1588 298 1588 288.5 1582 c 128,-1,28
 279 1576 279 1576 254.5 1560.5 c 128,-1,29
 230 1545 230 1545 220 1539 c 128,-1,30
 210 1533 210 1533 188.5 1521 c 128,-1,31
 167 1509 167 1509 152.5 1504 c 128,-1,32
 138 1499 138 1499 118 1492 c 0,33,34
 83 1480 83 1480 34 1480 c 1,35,36
 -65 1480 -65 1480 -121 1526.5 c 128,-1,37
 -177 1573 -177 1573 -177 1665 c 2,38,-1
 -177 1866 l 1,39,-1
 -38 1866 l 1,40,-1
 -38 1662 l 2,41,42
 -38 1635 -38 1635 -20 1619 c 128,-1,43
 -2 1603 -2 1603 17.5 1603 c 128,-1,44
 37 1603 37 1603 46.5 1604 c 128,-1,45
 56 1605 56 1605 67 1608.5 c 128,-1,46
 78 1612 78 1612 86 1614.5 c 128,-1,47
 94 1617 94 1617 106 1623 c 128,-1,48
 118 1629 118 1629 124.5 1632 c 128,-1,49
 131 1635 131 1635 144 1642.5 c 128,-1,50
 157 1650 157 1650 161.5 1653 c 128,-1,51
 166 1656 166 1656 180.5 1665 c 128,-1,52
 195 1674 195 1674 198 1676 c 2,53,-1
 297 1739 l 2,54,55
 335 1763 335 1763 375 1793.5 c 0,56,57
 416 1824 416 1824 434 1836 c 0,58,59
 482 1867 482 1867 580 1867 c 128,-1,60
 678 1867 678 1867 737 1817 c 128,-1,61
 796 1767 796 1767 796 1674 c 0,62,63
 796 1570 796 1570 678 1472 c 0,64,65
 626 1429 626 1429 574 1390 c 0,66,67
 432 1286 432 1286 398 1231 c 0,68,69
 345 1142 345 1142 345 989 c 2,70,-1
 345 366 l 1,0,1
451 103 m 1,71,72
 543 107 543 107 543 206.5 c 128,-1,73
 543 306 543 306 428 306 c 2,74,-1
 345 306 l 1,75,-1
 345 247 l 2,76,77
 345 175 345 175 368.5 140.5 c 128,-1,78
 392 106 392 106 451 103 c 1,71,72
EndSplineSet
EndChar

StartChar: uni0EC6
Encoding: 3782 3782 252
Width: 1406
GlyphClass: 2
Flags: HW
LayerCount: 2
Fore
SplineSet
353 -148 m 1,0,1
 633 -265 633 -265 766 -274 c 1,2,3
 918 -274 918 -274 996 -196 c 0,4,5
 1074 -118 1074 -118 1098 6 c 0,6,7
 1122 128 1122 128 1123 292 c 2,8,-1
 1123 793 l 2,9,10
 1123 1086 1123 1086 970 1086 c 0,11,12
 891 1086 891 1086 836 1019 c 0,13,14
 813 991 813 991 791 963 c 0,15,16
 738 896 738 896 674 896 c 0,17,18
 612 896 612 896 552 963 c 0,19,20
 527 991 527 991 501 1019 c 0,21,22
 439 1086 439 1086 365 1086 c 0,23,24
 244 1086 244 1086 244 842 c 2,25,-1
 244 801 l 1,26,27
 312 833 312 833 351 833 c 0,28,29
 454 833 454 833 517 783.5 c 128,-1,30
 580 734 580 734 580 640 c 0,31,32
 580 437 580 437 344 437 c 0,33,34
 73 437 73 437 73 789 c 0,35,36
 73 1078 73 1078 228 1161 c 0,37,38
 286 1192 286 1192 366 1192 c 0,39,40
 549 1192 549 1192 672 1022 c 1,41,42
 809 1192 809 1192 984 1192 c 0,43,44
 1159 1192 1159 1192 1229 1056 c 0,45,46
 1292 933 1292 933 1292 718 c 2,47,-1
 1292 294 l 2,48,49
 1292 -115 1292 -115 1128 -272 c 0,50,51
 1002 -393 1002 -393 766 -393 c 0,52,53
 462 -393 462 -393 301 -193 c 1,54,-1
 353 -148 l 1,0,1
440 630 m 1,55,-1
 439 637 l 1,56,57
 439 701 439 701 404.5 721 c 128,-1,58
 370 741 370 741 294 741 c 2,59,-1
 244 741 l 1,60,-1
 244 689 l 2,61,62
 244 615 244 615 266 577.5 c 128,-1,63
 288 540 288 540 340 540 c 0,64,65
 341 540 341 540 342 539 c 0,66,67
 440 539 440 539 440 630 c 1,55,-1
EndSplineSet
EndChar

StartChar: uni0EC8
Encoding: 3784 3784 253
Width: 17
GlyphClass: 2
Flags: HW
LayerCount: 2
Fore
SplineSet
-600 1461 m 1,0,-1
 -600 1904 l 1,1,-1
 -451 1904 l 1,2,-1
 -451 1461 l 1,3,-1
 -600 1461 l 1,0,-1
EndSplineSet
EndChar

